<?xml version="1.0" encoding="UTF-8" standalone="no"?>
<svg
   version="1.0"
   width="518.000000pt"
   height="481.000000pt"
   viewBox="0 0 518.000000 481.000000"
   preserveAspectRatio="xMidYMid meet"
   id="svg14"
   sodipodi:docname="arvore_fl3.svg"
   inkscape:version="1.3 (0e150ed6c4, 2023-07-21)"
   xmlns:inkscape="http://www.inkscape.org/namespaces/inkscape"
   xmlns:sodipodi="http://sodipodi.sourceforge.net/DTD/sodipodi-0.dtd"
   xmlns="http://www.w3.org/2000/svg"
   xmlns:svg="http://www.w3.org/2000/svg">
  <defs
     id="defs14" />
  <sodipodi:namedview
     id="namedview14"
     pagecolor="#ffffff"
     bordercolor="#000000"
     borderopacity="0.25"
     inkscape:showpageshadow="2"
     inkscape:pageopacity="0.0"
     inkscape:pagecheckerboard="0"
     inkscape:deskcolor="#d1d1d1"
     inkscape:document-units="pt"
     showgrid="false"
     inkscape:zoom="1.1709979"
     inkscape:cx="344.5779"
     inkscape:cy="320.66667"
     inkscape:window-width="1920"
     inkscape:window-height="986"
     inkscape:window-x="-11"
     inkscape:window-y="-11"
     inkscape:window-maximized="1"
     inkscape:current-layer="g28" />
  <path
     id="path43-26-5"
     style="fill:#735712;fill-opacity:1;stroke-width:0.976443"
     d="m 261.0403,266.82533 c 106.9078,167.2666 136.4873,142.37731 136.4873,142.37731 z"
     sodipodi:nodetypes="ccc" />
  <path
     id="path43-2"
     style="fill:#735712;fill-opacity:1;stroke-width:0.75"
     d="M 201.64386,397.64065 C 329.86212,282.61908 260.83177,285.63559 260.83177,285.63559 Z"
     sodipodi:nodetypes="ccc" />
  <path
     id="path43-2-5"
     style="fill:#735712;fill-opacity:1;stroke-width:0.864879"
     d="M 46.480496,280.63971 C 274.17662,258.04927 267.56354,226.27287 267.56354,226.27287 Z"
     sodipodi:nodetypes="ccc" />
  <path
     id="path43-2-5-4"
     style="fill:#735712;fill-opacity:1;stroke-width:0.864879"
     d="M 476.0306,204.55497 C 278.93862,320.79008 271.28641,287.15441 271.28641,287.15441 Z"
     sodipodi:nodetypes="ccc" />
  <path
     id="path43"
     style="fill:#735712;fill-opacity:1;stroke-width:0.766578"
     d="M 381.08537,78.779052 C 377.18087,218.07672 290.70374,240.18018 290.70374,240.18018 Z"
     sodipodi:nodetypes="ccc" />
  <path
     id="path43-26"
     style="fill:#735712;fill-opacity:1;stroke-width:0.993422"
     d="M 278.7961,231.38006 C 181.08556,42.888828 158.29758,57.353611 158.29758,57.353611 Z" />
  <g
     transform="matrix(0.10250848,-0.00710583,-0.00711171,-0.10236043,9.8774339,505.08386)"
     fill="#000000"
     stroke="none"
     id="g14"
     style="fill:#127512;fill-opacity:1">
    <path
       d="m 2560,4755 c -34,-36 -41,-89 -24,-170 8,-38 18,-83 21,-99 4,-19 1,-33 -8,-40 -8,-6 -15,-28 -15,-50 -2,-52 -52,-156 -76,-156 -21,0 -23,-11 -6,-28 9,-9 1,-12 -39,-12 -46,0 -54,3 -73,30 -18,26 -66,60 -84,60 -3,0 -6,-18 -8,-39 l -3,-40 -50,18 c -27,10 -57,21 -67,25 -11,5 -18,2 -22,-12 -6,-17 -18,-20 -79,-24 -71,-4 -73,-3 -103,29 -21,22 -41,33 -59,33 h -28 l 6,-60 c 6,-67 -7,-89 -41,-71 -15,8 -20,25 -25,88 -6,77 -41,203 -57,203 -24,0 -80,-141 -80,-202 0,-21 -5,-28 -19,-28 -10,0 -21,-9 -24,-19 -6,-25 2,-34 20,-19 7,6 15,9 17,7 2,-2 6,-35 8,-73 3,-75 -9,-94 -35,-56 l -15,21 -16,-23 c -10,-14 -16,-43 -16,-76 v -53 l -39,31 c -36,29 -111,57 -111,41 0,-10 31,-55 49,-69 14,-11 14,-14 2,-22 -12,-7 -12,-11 -2,-24 11,-14 11,-16 -3,-16 -9,0 -19,8 -22,18 -41,121 -113,212 -168,212 -15,0 -15,-12 0,-89 4,-20 2,-22 -13,-16 -35,14 -84,23 -103,18 -15,-4 -17,-9 -9,-30 5,-13 9,-27 9,-31 0,-4 -42,-7 -93,-8 -58,0 -105,-6 -126,-15 l -35,-15 45,-42 c 24,-24 68,-55 97,-69 44,-21 52,-30 52,-52 0,-15 7,-51 15,-79 11,-36 13,-62 7,-84 l -9,-33 -15,30 c -9,17 -27,41 -41,53 -25,24 -25,24 -32,3 -10,-32 -35,-26 -119,30 -103,69 -121,59 -95,-47 8,-31 14,-41 20,-33 19,32 120,-101 146,-191 8,-30 17,-56 18,-58 1,-1 17,11 35,28 24,23 36,28 46,20 10,-9 15,-1 26,36 7,26 18,49 24,51 14,5 47,-97 42,-129 -2,-17 -11,-24 -32,-26 -28,-4 -29,-4 -23,-53 4,-28 2,-49 -3,-49 -5,0 -13,-12 -16,-27 -12,-47 -77,-154 -91,-149 -13,5 -17,-11 -13,-47 1,-17 -4,-18 -56,-11 l -58,7 18,-29 c 10,-16 28,-39 39,-51 16,-19 18,-25 7,-38 -10,-11 -10,-18 -1,-29 9,-10 9,-16 1,-21 -15,-9 -14,-12 -49,81 -36,92 -92,164 -152,194 -21,11 -41,20 -44,20 -9,0 -6,-73 5,-109 11,-39 7,-49 -12,-33 -22,17 -89,31 -120,25 -24,-5 -29,-10 -24,-27 19,-67 29,-61 -101,-61 -91,0 -127,-4 -157,-18 l -40,-18 45,-45 c 86,-89 214,-140 330,-132 l 68,5 -57,-63 c -80,-86 -141,-217 -142,-301 0,-19 3,-21 28,-14 39,11 91,39 130,68 21,16 39,22 52,18 15,-5 35,7 80,47 62,57 88,73 132,82 15,4 52,26 83,51 67,55 79,57 71,9 l -7,-35 26,17 c 26,17 27,16 96,-31 80,-55 109,-89 135,-160 10,-27 35,-78 57,-112 l 39,-63 h 54 c 53,0 54,0 54,30 0,23 -13,43 -53,85 -86,87 -146,225 -147,336 v 36 l -97,23 c -67,16 -106,30 -123,46 l -25,24 h 23 c 13,0 40,-9 61,-19 21,-11 65,-26 99,-34 l 60,-14 6,29 5,28 52,-21 c 88,-34 176,-102 229,-177 l 38,-53 26,56 c 13,30 30,55 37,55 26,0 94,-85 111,-140 15,-46 21,-55 42,-56 18,-1 27,5 32,19 5,16 17,0 58,-79 28,-54 70,-129 94,-165 41,-65 48,-94 33,-134 -6,-15 -10,-8 -16,32 -7,57 -42,118 -65,118 -8,-1 -30,10 -49,23 -43,32 -53,19 -48,-68 2,-52 9,-75 34,-115 18,-27 31,-51 30,-52 -2,-1 -27,10 -56,24 -43,22 -68,27 -132,27 -102,1 -116,-12 -58,-54 24,-18 56,-37 72,-42 30,-11 35,-26 12,-34 -23,-9 -18,-23 10,-30 28,-7 31,-14 14,-31 -9,-9 -35,12 -103,81 -112,114 -186,156 -278,156 -57,0 -59,-1 -52,-22 10,-35 34,-80 60,-114 l 23,-32 -72,-4 c -86,-5 -151,-31 -142,-58 4,-14 -6,-24 -41,-44 -26,-14 -48,-26 -50,-26 -2,0 5,15 16,33 11,18 26,51 34,75 15,41 15,42 -6,42 -12,0 -57,10 -100,22 -75,22 -79,25 -88,58 -26,97 -41,334 -22,342 5,2 12,21 15,43 l 6,40 -17,-25 c -34,-51 -108,-124 -158,-156 -56,-36 -209,-93 -220,-82 -3,4 -2,21 4,37 6,17 9,31 6,31 -20,0 -95,-65 -100,-87 -7,-27 14,-53 42,-53 9,0 11,-20 7,-77 -4,-63 -9,-82 -27,-98 -55,-51 -72,-106 -38,-124 9,-5 44,-12 77,-16 48,-6 67,-14 92,-39 18,-17 33,-34 33,-37 0,-4 -29,1 -65,9 -54,13 -79,14 -143,5 -42,-6 -99,-21 -126,-32 -57,-25 -53,-37 28,-75 93,-44 257,-55 391,-26 24,6 44,5 49,-1 6,-5 -2,-9 -23,-9 -23,0 -41,-9 -62,-30 l -30,-29 28,-18 c 18,-12 44,-18 81,-17 l 54,2 -31,-32 c -30,-31 -61,-92 -61,-121 0,-13 4,-14 23,-4 12,6 34,23 50,37 22,21 27,23 27,9 0,-19 15,-23 25,-7 9,14 25,12 25,-3 0,-8 -26,-21 -58,-31 -77,-24 -159,-80 -183,-127 -10,-21 -19,-41 -19,-45 0,-4 27,-4 61,-1 54,5 60,3 53,-11 -13,-28 -17,-122 -6,-122 6,0 23,5 38,10 l 27,11 -6,-58 c -7,-65 8,-172 28,-199 11,-16 17,-12 64,37 77,81 116,207 93,305 l -9,41 71,-71 c 80,-79 80,-70 3,-126 -44,-32 -81,-85 -73,-105 9,-25 35,-29 105,-17 36,7 122,15 190,18 130,5 177,18 219,57 l 24,22 -4,-25 c -2,-21 -13,-28 -61,-43 -50,-16 -56,-21 -45,-34 11,-14 9,-15 -22,-7 -84,21 -219,-2 -233,-41 -3,-6 0,-33 6,-59 l 11,-48 -42,-39 c -41,-40 -61,-91 -48,-125 13,-33 114,6 239,92 l 77,53 v -27 c 0,-76 63,-221 108,-250 39,-25 52,3 53,112 v 91 l 20,-45 c 15,-32 18,-55 13,-83 -6,-37 -5,-39 17,-32 13,4 34,13 46,21 21,13 24,12 38,-17 l 16,-31 28,44 c 16,23 44,58 64,77 31,29 34,36 25,56 -8,19 -6,31 12,59 22,36 35,42 57,28 9,-6 10,-17 3,-42 -5,-18 -8,-36 -5,-38 6,-6 89,43 105,62 18,23 32,20 75,-14 21,-16 41,-30 45,-30 15,0 19,29 10,61 -11,39 -9,43 24,35 21,-5 26,-14 31,-54 11,-79 44,-192 70,-236 13,-22 42,-59 65,-81 34,-33 42,-37 50,-25 17,26 11,151 -10,210 -11,30 -19,58 -20,62 0,4 54,6 120,5 66,-1 120,-6 120,-10 0,-4 -7,-24 -16,-45 -16,-37 -22,-141 -9,-161 12,-21 44,-11 68,22 52,69 96,193 84,238 -4,15 -1,19 11,17 27,-5 26,-74 -3,-193 -15,-59 -24,-113 -21,-121 12,-32 96,36 132,107 11,20 34,49 51,64 28,23 34,24 39,11 5,-13 16,-7 55,28 26,24 61,46 77,49 16,3 48,22 71,41 51,43 61,44 61,11 0,-22 3,-24 17,-16 13,7 26,4 49,-10 31,-19 32,-19 37,0 8,30 -19,91 -59,132 -30,31 -34,40 -22,44 9,4 29,0 45,-8 15,-8 56,-23 91,-32 34,-10 62,-19 62,-22 0,-17 -28,-30 -49,-22 l -24,10 7,-60 c 9,-83 43,-197 74,-254 25,-46 92,-117 111,-117 17,0 24,90 13,156 -6,36 -24,91 -40,123 l -29,59 50,-24 c 72,-33 141,-39 218,-20 35,9 76,25 92,35 l 28,18 -33,25 c -45,34 -84,54 -136,68 -24,6 -61,24 -82,39 -36,26 -37,28 -16,37 26,11 49,58 81,171 14,48 36,98 48,111 l 22,23 8,-31 c 6,-24 4,-37 -7,-49 -54,-59 -80,-218 -41,-247 16,-12 22,-12 39,-1 32,21 86,106 86,136 0,44 20,101 36,101 8,0 35,-30 62,-67 62,-90 125,-153 150,-153 11,0 30,8 43,19 l 23,18 -22,54 c -30,77 -34,96 -27,119 9,28 64,26 140,-5 33,-14 63,-25 68,-25 11,0 8,38 -7,74 -19,46 -125,148 -147,141 -23,-7 -74,54 -94,114 -19,57 -19,156 0,210 l 15,42 -42,-35 c -52,-45 -105,-71 -188,-91 -57,-15 -71,-23 -111,-68 -26,-29 -49,-50 -51,-47 -32,41 -61,102 -68,143 -5,29 -13,65 -19,81 -14,34 -15,32 28,41 31,7 33,5 26,-11 -22,-54 -21,-57 21,-50 59,11 137,52 194,103 53,48 74,52 46,7 -23,-33 -15,-39 23,-20 16,9 40,16 52,16 32,0 138,52 141,70 2,8 14,-6 26,-32 13,-25 29,-52 37,-58 44,-37 46,68 2,137 -15,24 -27,45 -27,48 0,13 34,3 63,-19 18,-13 53,-34 80,-46 47,-22 61,-40 31,-40 -8,0 -12,-5 -8,-11 3,-6 -5,-4 -19,6 -24,16 -26,15 -32,-6 -4,-12 -6,-81 -4,-153 4,-141 6,-137 -48,-120 -22,6 -23,4 -23,-44 0,-28 -4,-62 -9,-75 -9,-23 -7,-25 20,-29 16,-3 52,3 80,12 l 50,17 24,-31 24,-30 11,29 c 34,88 36,218 5,292 -8,18 -12,33 -9,33 2,0 23,-14 46,-30 80,-59 198,-73 299,-38 l 31,11 -39,39 c -21,22 -59,52 -84,66 -53,31 -163,129 -150,134 5,2 32,25 61,52 l 51,48 -22,24 c -26,28 -27,26 32,48 47,18 140,82 146,102 10,31 -164,57 -241,35 -22,-6 -41,-9 -42,-8 -1,1 -10,33 -20,70 -18,67 -15,95 12,104 5,2 48,-19 94,-46 47,-27 89,-46 94,-44 11,7 -1,78 -21,117 -9,17 -38,60 -65,95 -49,65 -59,91 -34,91 7,0 45,-7 84,-16 50,-11 82,-13 113,-7 l 44,9 -80,52 c -54,35 -90,52 -112,52 -33,0 -63,22 -63,46 0,8 11,42 25,76 14,34 25,67 25,75 0,7 18,22 40,33 22,11 40,24 40,28 0,4 -19,20 -41,36 -29,20 -38,33 -33,45 30,71 38,101 28,111 -15,15 -72,-9 -125,-51 -22,-17 -46,-29 -53,-26 -25,10 -116,79 -116,88 0,12 67,116 80,124 17,11 11,25 -19,43 l -30,18 67,45 c 67,44 148,137 134,151 -5,5 -38,11 -74,15 -51,4 -81,1 -134,-15 -79,-24 -155,-69 -180,-106 -25,-39 -35,-31 -19,15 8,23 15,68 15,101 0,57 2,62 40,99 31,30 40,47 40,72 0,46 -15,57 -77,57 -46,0 -55,3 -62,22 -8,21 -8,21 -31,-10 -20,-26 -31,-32 -62,-32 -102,0 -139,67 -91,163 13,26 12,27 -11,27 -45,0 -41,36 18,160 14,30 26,67 26,82 0,14 6,29 13,32 20,8 -60,73 -112,90 -74,25 -122,28 -178,13 -29,-8 -53,-12 -53,-10 0,2 16,20 35,40 19,20 46,59 59,87 23,49 51,165 41,174 -10,10 -95,-50 -134,-95 -42,-47 -115,-183 -127,-237 -6,-25 -5,-28 15,-21 15,5 21,2 21,-9 0,-12 -10,-16 -35,-16 -39,0 -42,6 -19,38 11,16 14,34 9,62 -8,46 -13,48 -48,20 l -25,-20 -46,26 c -25,14 -49,30 -52,35 -4,6 -11,6 -20,-2 -11,-9 -14,-6 -14,17 0,43 -18,99 -40,126 l -19,23 -22,-49 -21,-49 -19,24 c -10,13 -19,27 -19,32 0,19 -47,77 -62,77 -10,0 -41,-9 -69,-21 -46,-18 -59,-19 -100,-9 l -48,12 6,61 c 4,45 1,73 -10,100 -31,74 -75,54 -101,-47 -9,-33 -22,-66 -29,-75 -8,-9 -27,-47 -43,-84 -29,-68 -29,-68 -32,-33 -2,25 4,46 22,73 27,39 35,104 16,133 -7,12 -12,12 -29,-4 -26,-23 -46,-10 -57,37 -12,57 -44,135 -58,140 -8,3 -24,-5 -36,-18 z m 350,-326 c 0,-10 -7,-19 -15,-19 -15,0 -21,31 -9,43 11,10 24,-3 24,-24 z m -328,-151 c 4,-37 2,-48 -9,-48 -7,0 -16,7 -19,15 -9,22 -22,18 -38,-12 l -15,-28 -1,28 c 0,30 22,80 48,110 16,18 16,18 23,0 3,-10 8,-39 11,-65 z m 323,-48 c -21,-23 -35,-26 -35,-6 0,13 15,21 44,25 5,0 1,-8 -9,-19 z m 198,-22 c 16,-6 25,-14 20,-18 -11,-11 -123,-24 -123,-14 0,18 45,54 60,48 8,-3 28,-11 43,-16 z m -698,-56 c 0,-18 -20,-15 -23,4 -3,10 1,15 10,12 7,-3 13,-10 13,-16 z m 441,-59 c -10,-10 -19,5 -10,18 6,11 8,11 12,0 2,-7 1,-15 -2,-18 z m 1010,-38 c -30,-16 -56,-14 -56,5 0,5 19,10 43,10 h 42 z m -2180,-85 c 7,0 16,-4 19,-10 4,-6 -6,-10 -22,-10 -27,0 -29,3 -29,38 -1,36 -1,36 9,10 6,-16 16,-28 23,-28 z m 1598,36 60,7 -16,-25 c -16,-25 -16,-26 2,-21 16,4 26,-7 51,-61 28,-60 31,-74 25,-124 -4,-31 -7,-64 -8,-72 -1,-8 1,-44 5,-80 l 7,-65 h -124 c -87,0 -122,3 -115,11 5,6 4,36 -3,72 -15,80 1,154 47,221 l 34,50 -36,-15 c -49,-21 -142,-35 -177,-28 -29,6 -29,6 17,26 26,11 47,24 47,29 0,5 -16,19 -36,33 -35,23 -35,24 -13,31 45,14 124,21 148,13 13,-5 51,-6 85,-2 z m -911,-56 c 25,-27 47,-50 50,-50 2,0 21,14 42,30 42,34 55,37 55,15 0,-8 7,-15 15,-15 9,0 29,-7 45,-15 30,-15 30,-15 30,10 0,15 -5,35 -11,47 -14,25 -8,31 21,20 20,-7 26,-22 41,-97 10,-49 29,-110 43,-137 23,-43 24,-53 16,-105 -6,-32 -10,-101 -10,-153 0,-105 28,-300 44,-300 5,0 22,11 36,25 l 27,26 1,-35 c 1,-28 -3,-36 -21,-42 -12,-4 -42,-20 -66,-37 -36,-25 -43,-27 -37,-11 30,71 29,169 -2,169 -7,0 -22,15 -33,34 l -21,35 -19,-25 c -32,-41 -42,-88 -36,-162 l 6,-70 -25,36 c -31,47 -97,91 -156,105 -26,7 -49,12 -53,12 -10,0 43,-95 64,-114 27,-24 27,-34 0,-38 l -21,-3 21,-26 c 20,-26 20,-27 2,-32 -16,-4 -24,8 -46,72 -63,176 -121,249 -231,292 l -27,10 6,-71 c 7,-80 9,-78 -74,-54 -76,22 -162,70 -214,119 -69,64 -66,68 78,86 51,7 94,13 96,15 2,2 -4,15 -13,29 -9,14 -23,36 -32,49 l -15,24 85,1 c 159,2 232,51 151,103 -19,13 -35,25 -35,28 0,3 20,15 43,26 38,19 44,27 58,80 18,67 55,144 68,144 5,0 29,-22 54,-50 z m 1103,38 c 22,28 16,-1 -11,-56 -14,-29 -25,-56 -25,-62 0,-17 -19,-11 -30,10 -8,15 -6,33 6,71 15,45 18,49 32,35 14,-14 17,-13 28,2 z m 290,-47 c -15,-28 -30,-51 -34,-51 -7,0 -45,61 -40,64 55,27 94,43 96,41 2,-2 -8,-26 -22,-54 z m -1741,29 c -3,-5 -16,-15 -28,-21 -22,-12 -22,-12 -3,10 19,21 43,30 31,11 z m 774,-59 c 9,-6 11,-16 7,-27 -7,-18 -8,-18 -22,0 -23,32 -16,46 15,27 z m -664,-95 c -16,-53 -18,-56 -43,-50 -52,13 -112,47 -101,58 7,7 153,54 157,51 2,-2 -4,-28 -13,-59 z m 897,47 c 24,-9 45,-17 46,-19 2,-1 -19,-86 -47,-189 -48,-175 -54,-190 -94,-235 -23,-26 -44,-46 -46,-44 -2,1 5,24 15,51 15,38 19,75 19,178 -1,113 -4,139 -26,203 l -25,72 h 58 c 31,0 77,-7 100,-17 z m -1597,-33 c 19,-8 19,-9 -2,-9 -12,-1 -28,-3 -36,-6 -8,-4 -14,0 -14,10 0,16 21,19 52,5 z m 205,-14 c 0,-9 -30,-14 -35,-6 -4,6 3,10 14,10 12,0 21,-2 21,-4 z m -204,-50 c -4,-17 -2,-25 9,-28 10,-2 -3,-17 -36,-41 -28,-21 -52,-37 -54,-35 -1,2 13,31 32,66 35,63 60,82 49,38 z m -176,-15 c -32,-27 -36,-28 -53,-13 -9,8 -15,17 -12,20 4,4 60,17 90,21 5,0 -6,-12 -25,-28 z m 427,-1 c 26,-10 30,-17 39,-70 11,-65 6,-72 -33,-45 -13,9 -23,29 -25,52 -3,21 -8,46 -12,56 -9,20 -8,20 31,7 z m 2127,-51 c 38,-45 73,-113 83,-160 l 6,-30 28,27 c 35,34 55,27 69,-25 9,-33 15,-41 34,-41 23,0 23,-3 29,-112 5,-120 -4,-150 -33,-103 -20,33 -32,27 -52,-26 l -17,-44 v 43 c -1,49 20,106 51,139 18,19 19,25 8,38 -12,14 -16,10 -33,-37 -11,-29 -31,-70 -43,-90 -20,-30 -28,-36 -50,-32 l -26,5 21,-27 c 33,-42 28,-56 -14,-38 -19,7 -44,14 -55,14 -20,0 -20,-1 -3,-27 9,-16 26,-38 37,-50 11,-13 14,-23 8,-23 -7,0 -12,-7 -12,-15 0,-8 5,-15 10,-15 6,0 10,-4 10,-10 0,-17 -30,-11 -36,8 -15,44 -66,146 -85,170 -22,29 -86,72 -106,72 -16,0 -17,-42 -3,-89 5,-19 8,-36 6,-38 -2,-2 -16,3 -32,12 -16,8 -49,15 -73,15 -40,0 -43,-2 -38,-22 2,-13 7,-30 11,-39 6,-13 -5,-15 -86,-15 -94,1 -188,-18 -188,-37 0,-17 82,-87 130,-112 82,-42 189,-53 273,-29 10,3 -15,-27 -55,-68 l -73,-73 -61,31 c -34,17 -84,37 -113,45 -30,7 -69,28 -96,50 -25,21 -63,46 -85,56 -22,10 -40,21 -40,25 0,4 13,22 28,40 16,18 38,49 50,68 11,20 32,46 46,59 14,14 26,28 26,33 0,4 -18,20 -40,34 -22,15 -40,29 -39,33 0,3 26,19 58,34 32,16 82,49 110,74 58,50 126,144 111,153 -8,5 26,70 38,70 11,0 79,-56 151,-124 41,-39 71,-62 66,-51 -4,11 -10,52 -12,91 -4,57 -1,85 17,138 12,38 27,66 35,66 7,0 29,-19 49,-41 z m -2251,-21 c -6,-31 -6,-32 11,-15 10,9 20,17 23,17 15,0 106,-65 132,-95 33,-38 53,-122 32,-134 -12,-8 41,-62 127,-130 23,-19 42,-42 42,-51 0,-10 7,-34 16,-55 8,-20 13,-39 11,-42 -3,-2 -31,0 -63,6 -32,6 -73,11 -91,11 -36,0 -38,2 -23,30 12,22 7,26 -43,35 -34,7 -39,5 -44,-14 -7,-26 -14,-26 -47,0 -24,19 -31,20 -74,9 -69,-17 -154,-65 -207,-118 -47,-46 -48,-47 -40,-17 18,75 25,144 19,190 l -6,50 96,95 c 57,56 96,103 96,115 0,16 -3,14 -18,-10 -46,-74 -216,-181 -276,-173 l -26,3 28,60 c 33,69 144,179 191,188 15,3 48,22 72,41 57,45 70,46 62,4 z m 2145,0 c -6,-18 -28,-21 -28,-4 0,9 7,16 16,16 9,0 14,-5 12,-12 z M 1291,3577 c -10,-9 -11,-8 -5,6 3,10 9,15 12,12 3,-3 0,-11 -7,-18 z m -131,-437 c 0,-25 9,-81 18,-125 l 18,-80 26,28 26,27 6,-22 c 6,-24 3,-28 -67,-74 l -38,-24 8,22 c 4,13 8,43 8,68 -1,37 -7,51 -33,79 -31,32 -33,33 -47,15 -8,-10 -18,-37 -24,-59 l -9,-40 -1,58 c -1,63 22,121 67,170 31,33 41,22 42,-43 z m 2970,22 c 0,-5 -11,-14 -25,-20 -20,-9 -25,-9 -25,2 0,14 14,24 38,25 6,1 12,-3 12,-7 z m -1202,-68 c -25,-26 -51,-43 -57,-40 -15,10 -14,26 2,26 7,0 31,13 53,30 55,42 56,37 2,-16 z m 1297,-4 c -27,-28 -55,-40 -55,-22 0,6 68,50 79,52 3,0 -8,-13 -24,-30 z m -2534,-79 c 39,-28 93,-57 121,-67 l 49,-16 -8,-42 c -4,-22 -8,-89 -8,-147 v -107 l -26,19 c -14,10 -61,30 -104,44 -43,15 -92,37 -109,50 -17,12 -47,30 -66,40 -19,10 -36,19 -38,20 -4,3 51,80 95,134 l 27,33 -21,17 c -11,9 -29,21 -39,27 -17,10 -16,12 11,27 17,9 34,16 38,17 4,0 39,-22 78,-49 z m 2122,-1 c 5,-4 -7,-10 -27,-12 -20,-2 -36,-3 -36,-2 0,1 3,10 6,18 6,16 38,14 57,-4 z m -1155,-12 c 32,-20 33,-22 16,-35 -26,-19 -37,-16 -68,16 -20,21 -24,30 -14,34 23,9 30,8 66,-15 z m 1158,-53 c -5,-18 -2,-25 9,-25 17,0 19,-12 4,-27 -5,-5 -16,-31 -24,-57 -14,-47 -14,-47 8,-41 44,14 89,51 116,97 l 27,47 18,-40 c 12,-26 35,-53 64,-73 84,-57 120,-95 136,-143 29,-86 20,-105 -38,-83 -29,11 -31,5 -20,-62 4,-23 13,-38 24,-41 27,-7 71,-101 77,-163 l 6,-54 33,20 33,21 10,-38 c 13,-46 1,-95 -34,-147 -36,-52 -31,-54 16,-7 23,22 44,41 48,41 4,0 4,-28 0,-62 -3,-35 -4,-84 -1,-110 5,-46 5,-46 27,-32 20,13 22,13 20,-7 -1,-15 -13,-25 -40,-35 -45,-15 -51,-13 -36,14 13,25 15,82 2,82 -5,0 -11,9 -14,20 -7,29 -25,25 -47,-12 -21,-35 -27,-19 -10,26 10,29 0,35 -20,11 -8,-10 -21,-13 -37,-9 -23,6 -24,5 -13,-16 16,-30 6,-36 -36,-21 -30,11 -38,11 -44,0 -6,-8 -13,0 -25,27 -18,43 -72,104 -92,104 -12,0 -19,-42 -15,-91 1,-14 -7,-12 -47,9 l -47,26 40,58 c 22,32 46,58 53,58 16,0 87,-35 126,-62 32,-23 32,-22 7,33 -12,28 -20,66 -20,104 0,59 -2,62 -44,104 -25,24 -50,57 -57,73 -6,15 -12,28 -13,28 -1,0 -56,7 -121,15 -66,8 -125,15 -132,15 -6,0 -15,-15 -18,-32 -4,-18 -16,-50 -27,-72 -22,-44 -15,-56 35,-56 19,0 27,-5 27,-17 0,-10 18,-28 41,-41 l 41,-24 -58,-51 c -32,-29 -74,-69 -93,-90 -49,-52 -141,-189 -134,-200 3,-5 19,-6 35,-3 26,5 29,4 18,-9 -7,-8 -9,-15 -4,-15 5,0 1,-5 -8,-10 -11,-7 -26,-7 -43,0 -14,5 -41,10 -58,11 -29,0 -30,1 -13,12 11,7 35,26 54,43 30,27 35,37 36,82 1,31 -2,52 -9,52 -33,-1 -97,-43 -122,-81 l -28,-43 -6,65 c -5,64 -25,115 -52,137 -12,10 -16,8 -21,-10 -3,-13 -6,-42 -6,-66 0,-39 -2,-43 -20,-37 -16,5 -20,2 -20,-14 0,-12 -7,-21 -15,-21 -20,0 -20,3 20,100 40,98 47,197 19,252 l -16,30 -24,-23 c -14,-13 -35,-39 -46,-57 l -21,-34 -24,49 c -14,26 -29,66 -33,88 -4,22 -15,71 -23,108 -20,88 -16,100 26,83 18,-7 64,-23 102,-35 39,-12 108,-41 154,-63 l 84,-42 23,29 c 13,16 22,30 20,32 -1,1 -40,10 -87,18 -179,34 -368,107 -397,155 -8,12 -10,21 -5,19 4,-2 34,-17 64,-32 108,-54 232,-71 338,-46 24,5 46,8 48,5 3,-3 1,-19 -5,-35 -13,-37 -8,-38 62,-7 95,42 200,159 267,299 25,51 56,66 45,22 z m 322,-93 c 6,-36 10,-68 8,-70 -2,-2 -18,4 -35,13 -25,12 -31,22 -31,48 -1,17 -7,43 -15,57 -21,37 -19,39 24,28 38,-10 38,-10 49,-76 z m -2018,60 c -14,-9 -46,-36 -71,-59 -25,-24 -49,-43 -52,-43 -3,0 -31,25 -61,55 l -55,56 72,-6 c 39,-3 92,-2 117,3 67,14 78,13 50,-6 z m 228,-25 c -2,-16 3,-23 19,-25 l 23,-3 -24,-48 c -14,-26 -28,-65 -32,-87 -5,-27 -22,-56 -60,-97 -30,-32 -70,-92 -91,-135 l -37,-77 -7,55 c -4,30 -13,72 -20,93 -12,36 -11,39 18,70 44,47 105,132 152,215 40,69 65,86 59,39 z m 546,27 c 20,-8 11,-24 -15,-24 -10,0 -19,7 -19,15 0,16 9,19 34,9 z m -1543,-58 c -19,-19 -40,-32 -47,-29 -23,9 -16,18 29,40 56,29 56,28 18,-11 z m 1398,14 c 35,-9 40,-14 45,-48 13,-89 18,-152 11,-152 -4,0 -25,10 -46,22 -36,20 -39,25 -39,64 0,23 -9,63 -20,89 -16,37 -17,46 -6,42 8,-3 33,-11 55,-17 z m -193,-59 c -3,-5 -21,-14 -38,-20 l -33,-11 24,20 c 23,20 57,28 47,11 z M 900,2764 c 0,-2 -16,-4 -35,-4 -26,0 -33,4 -29,14 4,11 12,12 35,4 16,-5 29,-12 29,-14 z m 3473,-27 c 15,-6 16,-10 5,-27 -17,-27 -35,-25 -42,4 -3,13 -9,32 -13,43 -6,17 -5,17 13,2 10,-9 27,-19 37,-22 z m -1655,-41 c 33,-24 71,-59 85,-78 27,-34 51,-88 43,-95 -2,-2 -22,5 -44,16 l -40,21 -6,-28 c -8,-42 -6,-152 3,-152 4,0 18,-26 31,-57 17,-42 45,-79 97,-131 l 73,-73 -77,3 -77,3 -20,65 -20,65 -8,-50 c -13,-90 -17,-98 -41,-90 -63,19 -97,26 -147,32 -64,6 -61,5 -51,22 7,11 16,11 41,3 l 31,-11 -22,36 c -28,44 -27,118 2,174 10,21 19,40 19,43 0,3 -22,8 -50,12 -27,4 -50,12 -50,18 0,6 18,36 41,66 49,65 83,130 98,188 7,23 16,42 20,42 5,0 36,-20 69,-44 z m 1758,-21 c -9,-14 -24,-25 -33,-25 -13,0 -10,7 12,30 33,35 45,32 21,-5 z m -3219,-85 c 7,-41 10,-76 8,-78 -2,-3 -19,4 -37,15 -28,16 -34,26 -38,64 -3,24 -11,54 -18,66 -18,32 -16,33 30,19 l 43,-12 z m 3202,-11 c 47,-17 38,-43 -16,-47 -50,-4 -83,11 -83,38 0,16 7,20 34,20 18,0 47,-5 65,-11 z m -2609,-39 c 0,-5 -8,-10 -17,-10 -15,0 -16,2 -3,10 19,12 20,12 20,0 z m 2467,-72 c 28,-26 29,-38 3,-38 -18,0 -40,26 -40,49 0,17 11,13 37,-11 z m 133,-48 c 8,-5 11,-12 7,-16 -4,-4 -15,0 -24,9 -18,18 -8,23 17,7 z m 60,-40 c 0,-14 -14,-12 -28,2 -19,19 -14,30 8,18 11,-6 20,-15 20,-20 z M 720,2122 c -23,-12 -41,-15 -52,-10 -33,16 -18,28 35,28 h 52 z m 1577,-12 c -7,-18 -19,-30 -29,-30 -24,0 -23,9 4,37 29,31 38,29 25,-7 z m 858,-60 c 22,-42 19,-44 -21,-14 -36,28 -36,31 3,43 1,1 9,-12 18,-29 z m 671,-27 c -3,-3 -13,-3 -22,1 -13,5 -14,9 -3,22 11,14 13,14 22,-1 5,-9 6,-19 3,-22 z m -696,-38 c 10,-13 9,-15 -8,-15 -24,0 -37,-15 -22,-25 18,-11 11,-23 -18,-30 -15,-3 -46,-16 -67,-30 l -40,-24 37,-15 c 47,-20 128,-20 175,-1 19,8 37,15 39,15 2,0 -4,-17 -13,-37 -15,-37 -15,-144 0,-159 9,-10 46,25 64,60 8,16 17,63 20,105 3,42 7,78 9,80 9,10 33,-23 49,-67 10,-26 31,-65 46,-88 15,-22 31,-53 35,-69 6,-25 5,-26 -15,-16 -16,9 -21,9 -21,-1 -1,-7 -9,2 -18,20 l -18,33 -21,-23 c -32,-36 -86,-117 -128,-193 -21,-38 -45,-78 -53,-87 -25,-30 -26,-268 -1,-268 6,0 32,21 59,46 l 50,47 v -35 c 0,-20 -14,-63 -32,-99 -29,-55 -37,-64 -60,-64 -26,1 -27,0 -13,-22 8,-12 15,-24 15,-27 0,-2 -24,-4 -53,-3 -48,1 -56,4 -78,33 -26,36 -68,64 -93,64 -14,0 -16,-7 -11,-37 4,-21 9,-46 12,-55 5,-22 4,-22 -35,-2 -34,16 -98,16 -96,-1 1,-5 5,-20 9,-32 6,-22 5,-23 -72,-23 -77,0 -148,-13 -157,-29 -3,-5 8,-21 24,-37 16,-16 30,-32 30,-36 0,-13 -169,-9 -193,3 -12,7 -24,13 -26,15 -5,4 44,79 72,111 19,21 19,22 -13,38 -29,15 -30,18 -15,29 15,11 12,14 -26,25 -24,7 -63,23 -86,36 l -41,23 -22,-22 -22,-21 6,29 c 6,25 0,36 -54,91 -58,62 -60,63 -66,38 -9,-34 2,-183 17,-233 11,-37 14,-39 29,-25 15,14 18,14 23,1 6,-15 1,-20 -45,-49 l -28,-17 7,45 c 5,39 3,49 -16,66 -11,11 -21,24 -21,29 0,6 -5,10 -11,10 -19,0 -40,-68 -33,-112 4,-34 3,-39 -6,-25 -17,27 -86,67 -116,67 -26,0 -26,-1 -10,-25 13,-20 14,-25 2,-25 -7,0 -20,14 -27,32 -7,18 -31,50 -52,71 -37,37 -39,38 -58,21 -10,-9 -19,-27 -19,-38 0,-18 -6,-21 -40,-21 -22,0 -40,4 -40,10 0,6 -15,16 -33,23 -19,7 -51,27 -73,46 -33,29 -36,35 -21,41 9,4 17,11 17,17 0,5 11,24 24,41 13,18 42,68 63,112 21,44 65,130 98,190 l 60,110 9,-42 c 5,-24 13,-43 19,-43 18,0 80,74 103,125 17,35 24,68 24,110 v 60 l 31,-33 c 50,-53 101,-82 159,-89 52,-6 52,-6 45,18 -21,69 -63,114 -150,164 -55,31 -56,32 -38,53 16,19 32,21 168,27 135,5 148,4 131,-9 -10,-8 -24,-17 -30,-20 -7,-3 -6,-8 4,-15 10,-7 2,-11 -33,-13 l -47,-3 31,-60 c 31,-58 54,-93 133,-209 81,-120 231,-234 354,-270 63,-18 64,-15 31,85 -54,165 -174,330 -278,384 -17,8 -31,17 -31,19 0,2 19,0 43,-5 35,-6 51,-3 97,18 46,22 73,27 167,31 l 112,4 44,42 c 38,35 106,71 143,75 6,0 17,-6 24,-14 z m 1315,-115 c -11,-18 -43,-31 -50,-20 -3,6 4,14 17,19 31,13 40,13 33,1 z m -2595,-24 c 0,-3 -4,-8 -10,-11 -5,-3 -10,-1 -10,4 0,6 5,11 10,11 6,0 10,-2 10,-4 z m -40,-33 c 0,-5 -23,-20 -50,-34 -28,-15 -50,-23 -50,-19 0,5 4,11 10,15 5,3 7,12 4,20 -4,9 4,15 28,18 18,2 39,5 46,5 6,1 12,-1 12,-5 z m 1740,-28 35,-13 -32,-1 c -18,-1 -36,-1 -40,-2 -5,0 -9,7 -11,15 -4,19 2,19 48,1 z M 860,1670 c 0,-23 -10,-26 -28,-8 -18,18 -15,28 8,28 13,0 20,-7 20,-20 z m 705,-87 c -19,-32 -35,-63 -35,-69 0,-6 -33,-41 -74,-78 l -74,-66 40,-77 c 21,-43 42,-97 45,-120 l 6,-43 -49,17 c -67,22 -207,162 -224,221 -6,23 -26,62 -45,87 -44,57 -44,69 -4,60 18,-4 29,-3 26,2 -3,5 30,9 76,9 99,0 197,28 277,78 30,19 58,34 62,35 4,1 -8,-25 -27,-56 z m -546,-2 c 12,-8 11,-13 -10,-30 -20,-16 -25,-17 -27,-5 -4,19 5,44 15,44 4,0 15,-4 22,-9 z m 2450,-204 c 23,-37 116,-127 132,-127 23,0 3,-22 -64,-74 -40,-31 -75,-56 -78,-56 -2,0 -4,44 -4,98 0,78 -5,109 -24,160 -14,37 -29,61 -35,59 -9,-4 -10,7 -2,44 l 10,49 21,-58 c 12,-32 31,-75 44,-95 z m 552,70 c -29,-30 -34,-17 -8,23 18,28 22,31 25,16 2,-10 -5,-28 -17,-39 z M 1008,1324 c -2,-1 -9,1 -16,5 -9,5 -11,17 -6,37 l 8,29 8,-34 c 5,-18 8,-35 6,-37 z m 62,39 c 0,-20 -24,-11 -28,10 -2,12 1,15 12,11 9,-3 16,-13 16,-21 z m 2996,-15 c 11,-17 -26,-38 -69,-38 -40,0 -77,14 -77,30 0,18 135,26 146,8 z m -745,-78 c -7,-32 -8,-33 -15,-12 -5,14 -3,29 5,38 16,20 19,15 10,-26 z m 607,-39 c 16,-20 15,-41 -2,-41 -23,0 -46,29 -46,57 0,23 2,24 18,12 9,-7 23,-20 30,-28 z m 178,-46 c 25,-19 6,-19 -37,0 -32,13 -32,14 -8,15 14,0 34,-7 45,-15 z m -787,-150 c -7,-7 -16,-2 -28,14 l -19,25 -20,-40 c -20,-38 -21,-38 -22,-11 0,38 26,96 58,130 l 27,28 7,-68 c 4,-41 3,-72 -3,-78 z M 2318,894 c -16,-16 -31,-23 -38,-19 -9,6 -2,14 21,26 46,24 48,23 17,-7 z m 1152,1 c -7,-8 -20,-15 -29,-15 -13,1 -13,3 3,15 26,19 42,19 26,0 z m 140,-35 c 0,-5 -2,-10 -4,-10 -3,0 -8,5 -11,10 -3,6 -1,10 4,10 6,0 11,-4 11,-10 z M 3106,735 c 18,-14 18,-14 -8,-15 -18,0 -28,5 -28,15 0,19 11,19 36,0 z"
       id="path1"
       style="fill:#127512;fill-opacity:1" />
    <path
       d="m 2939,1706 -75,-11 15,-63 16,-63 32,45 c 18,25 48,55 67,68 33,21 47,40 29,37 -5,-1 -42,-7 -84,-13 z"
       id="path2"
       style="fill:#127512;fill-opacity:1" />
    <path
       d="m 3080,1460 c 0,-5 5,-10 11,-10 5,0 7,5 4,10 -3,6 -8,10 -11,10 -2,0 -4,-4 -4,-10 z"
       id="path3"
       style="fill:#127512;fill-opacity:1" />
    <path
       d="m 2981,1340 -34,-29 18,-73 c 23,-95 23,-95 82,-122 l 50,-24 -33,49 c -35,52 -58,140 -52,195 2,19 4,34 3,34 0,-1 -15,-14 -34,-30 z"
       id="path4"
       style="fill:#127512;fill-opacity:1" />
    <path
       d="m 2526,1154 c 8,-83 10,-87 34,-74 27,15 92,102 83,111 -5,5 -34,11 -66,15 l -58,7 z"
       id="path5"
       style="fill:#127512;fill-opacity:1" />
    <path
       d="m 1265,1470 c 3,-5 8,-10 11,-10 2,0 4,5 4,10 0,6 -5,10 -11,10 -5,0 -7,-4 -4,-10 z"
       id="path6"
       style="fill:#127512;fill-opacity:1" />
    <path
       d="m 2294,4499 c -9,-10 -9,-21 -1,-39 10,-25 10,-25 14,-2 3,12 3,30 1,39 -3,14 -5,14 -14,2 z"
       id="path7"
       style="fill:#127512;fill-opacity:1" />
    <path
       d="m 2447,4470 c 6,-21 18,-26 28,-11 3,6 -3,15 -14,20 -16,9 -18,8 -14,-9 z"
       id="path8"
       style="fill:#127512;fill-opacity:1" />
    <path
       d="m 2324,4353 5,-32 -34,15 c -19,8 -45,14 -57,13 -13,0 6,-10 42,-23 36,-12 74,-26 85,-31 19,-8 19,-7 4,11 -9,10 -24,33 -33,49 l -17,30 z"
       id="path9"
       style="fill:#127512;fill-opacity:1" />
    <path
       d="m 717,3342 c -61,-37 -36,-102 40,-102 30,0 34,3 28,18 -4,9 -10,36 -12,60 -6,46 -14,50 -56,24 z"
       id="path10"
       style="fill:#127512;fill-opacity:1" />
    <path
       d="m 786,3201 c -3,-4 4,-17 15,-27 18,-16 18,-19 4,-24 -11,-4 -3,-12 29,-28 l 45,-21 -34,45 c -19,25 -35,50 -35,55 0,11 -17,12 -24,0 z"
       id="path11"
       style="fill:#127512;fill-opacity:1" />
    <path
       d="m 1128,2204 c -32,-45 -63,-112 -55,-121 2,-2 30,12 62,31 31,19 62,37 68,39 14,4 2,49 -21,77 l -18,23 z"
       id="path12"
       style="fill:#127512;fill-opacity:1" />
    <path
       d="m 3160,531 c 0,-5 -22,-26 -50,-47 -27,-20 -47,-41 -44,-45 3,-5 21,-13 40,-18 70,-19 111,24 84,89 -12,28 -30,41 -30,21 z"
       id="path13"
       style="fill:#127512;fill-opacity:1" />
    <path
       d="m 1858,427 c -33,-13 -37,-27 -8,-27 10,0 24,9 30,20 6,11 9,20 8,19 -2,-1 -15,-6 -30,-12 z"
       id="path14"
       style="fill:#127512;fill-opacity:1" />
  </g>
  <g
     transform="matrix(0.06716822,-0.01426066,-0.01593805,-0.07506876,128.79921,462.05982)"
     fill="#000000"
     stroke="none"
     id="g28"
     style="fill:#00a700;fill-opacity:1">
    <path
       d="m 2560,4755 c -34,-36 -41,-89 -24,-170 8,-38 18,-83 21,-99 4,-19 1,-33 -8,-40 -8,-6 -15,-28 -15,-50 -2,-52 -52,-156 -76,-156 -21,0 -23,-11 -6,-28 9,-9 1,-12 -39,-12 -46,0 -54,3 -73,30 -18,26 -66,60 -84,60 -3,0 -6,-18 -8,-39 l -3,-40 -50,18 c -27,10 -57,21 -67,25 -11,5 -18,2 -22,-12 -6,-17 -18,-20 -79,-24 -71,-4 -73,-3 -103,29 -21,22 -41,33 -59,33 h -28 l 6,-60 c 6,-67 -7,-89 -41,-71 -15,8 -20,25 -25,88 -6,77 -41,203 -57,203 -24,0 -80,-141 -80,-202 0,-21 -5,-28 -19,-28 -10,0 -21,-9 -24,-19 -6,-25 2,-34 20,-19 7,6 15,9 17,7 2,-2 6,-35 8,-73 3,-75 -9,-94 -35,-56 l -15,21 -16,-23 c -10,-14 -16,-43 -16,-76 v -53 l -39,31 c -36,29 -111,57 -111,41 0,-10 31,-55 49,-69 14,-11 14,-14 2,-22 -12,-7 -12,-11 -2,-24 11,-14 11,-16 -3,-16 -9,0 -19,8 -22,18 -41,121 -113,212 -168,212 -15,0 -15,-12 0,-89 4,-20 2,-22 -13,-16 -35,14 -84,23 -103,18 -15,-4 -17,-9 -9,-30 5,-13 9,-27 9,-31 0,-4 -42,-7 -93,-8 -58,0 -105,-6 -126,-15 l -35,-15 45,-42 c 24,-24 68,-55 97,-69 44,-21 52,-30 52,-52 0,-15 7,-51 15,-79 11,-36 13,-62 7,-84 l -9,-33 -15,30 c -9,17 -27,41 -41,53 -25,24 -25,24 -32,3 -10,-32 -35,-26 -119,30 -103,69 -121,59 -95,-47 8,-31 14,-41 20,-33 19,32 120,-101 146,-191 8,-30 17,-56 18,-58 1,-1 17,11 35,28 24,23 36,28 46,20 10,-9 15,-1 26,36 7,26 18,49 24,51 14,5 47,-97 42,-129 -2,-17 -11,-24 -32,-26 -28,-4 -29,-4 -23,-53 4,-28 2,-49 -3,-49 -5,0 -13,-12 -16,-27 -12,-47 -77,-154 -91,-149 -13,5 -17,-11 -13,-47 1,-17 -4,-18 -56,-11 l -58,7 18,-29 c 10,-16 28,-39 39,-51 16,-19 18,-25 7,-38 -10,-11 -10,-18 -1,-29 9,-10 9,-16 1,-21 -15,-9 -14,-12 -49,81 -36,92 -92,164 -152,194 -21,11 -41,20 -44,20 -9,0 -6,-73 5,-109 11,-39 7,-49 -12,-33 -22,17 -89,31 -120,25 -24,-5 -29,-10 -24,-27 19,-67 29,-61 -101,-61 -91,0 -127,-4 -157,-18 l -40,-18 45,-45 c 86,-89 214,-140 330,-132 l 68,5 -57,-63 c -80,-86 -141,-217 -142,-301 0,-19 3,-21 28,-14 39,11 91,39 130,68 21,16 39,22 52,18 15,-5 35,7 80,47 62,57 88,73 132,82 15,4 52,26 83,51 67,55 79,57 71,9 l -7,-35 26,17 c 26,17 27,16 96,-31 80,-55 109,-89 135,-160 10,-27 35,-78 57,-112 l 39,-63 h 54 c 53,0 54,0 54,30 0,23 -13,43 -53,85 -86,87 -146,225 -147,336 v 36 l -97,23 c -67,16 -106,30 -123,46 l -25,24 h 23 c 13,0 40,-9 61,-19 21,-11 65,-26 99,-34 l 60,-14 6,29 5,28 52,-21 c 88,-34 176,-102 229,-177 l 38,-53 26,56 c 13,30 30,55 37,55 26,0 94,-85 111,-140 15,-46 21,-55 42,-56 18,-1 27,5 32,19 5,16 17,0 58,-79 28,-54 70,-129 94,-165 41,-65 48,-94 33,-134 -6,-15 -10,-8 -16,32 -7,57 -42,118 -65,118 -8,-1 -30,10 -49,23 -43,32 -53,19 -48,-68 2,-52 9,-75 34,-115 18,-27 31,-51 30,-52 -2,-1 -27,10 -56,24 -43,22 -68,27 -132,27 -102,1 -116,-12 -58,-54 24,-18 56,-37 72,-42 30,-11 35,-26 12,-34 -23,-9 -18,-23 10,-30 28,-7 31,-14 14,-31 -9,-9 -35,12 -103,81 -112,114 -186,156 -278,156 -57,0 -59,-1 -52,-22 10,-35 34,-80 60,-114 l 23,-32 -72,-4 c -86,-5 -151,-31 -142,-58 4,-14 -6,-24 -41,-44 -26,-14 -48,-26 -50,-26 -2,0 5,15 16,33 11,18 26,51 34,75 15,41 15,42 -6,42 -12,0 -57,10 -100,22 -75,22 -79,25 -88,58 -26,97 -41,334 -22,342 5,2 12,21 15,43 l 6,40 -17,-25 c -34,-51 -108,-124 -158,-156 -56,-36 -209,-93 -220,-82 -3,4 -2,21 4,37 6,17 9,31 6,31 -20,0 -95,-65 -100,-87 -7,-27 14,-53 42,-53 9,0 11,-20 7,-77 -4,-63 -9,-82 -27,-98 -55,-51 -72,-106 -38,-124 9,-5 44,-12 77,-16 48,-6 67,-14 92,-39 18,-17 33,-34 33,-37 0,-4 -29,1 -65,9 -54,13 -79,14 -143,5 -42,-6 -99,-21 -126,-32 -57,-25 -53,-37 28,-75 93,-44 257,-55 391,-26 24,6 44,5 49,-1 6,-5 -2,-9 -23,-9 -23,0 -41,-9 -62,-30 l -30,-29 28,-18 c 18,-12 44,-18 81,-17 l 54,2 -31,-32 c -30,-31 -61,-92 -61,-121 0,-13 4,-14 23,-4 12,6 34,23 50,37 22,21 27,23 27,9 0,-19 15,-23 25,-7 9,14 25,12 25,-3 0,-8 -26,-21 -58,-31 -77,-24 -159,-80 -183,-127 -10,-21 -19,-41 -19,-45 0,-4 27,-4 61,-1 54,5 60,3 53,-11 -13,-28 -17,-122 -6,-122 6,0 23,5 38,10 l 27,11 -6,-58 c -7,-65 8,-172 28,-199 11,-16 17,-12 64,37 77,81 116,207 93,305 l -9,41 71,-71 c 80,-79 80,-70 3,-126 -44,-32 -81,-85 -73,-105 9,-25 35,-29 105,-17 36,7 122,15 190,18 130,5 177,18 219,57 l 24,22 -4,-25 c -2,-21 -13,-28 -61,-43 -50,-16 -56,-21 -45,-34 11,-14 9,-15 -22,-7 -84,21 -219,-2 -233,-41 -3,-6 0,-33 6,-59 l 11,-48 -42,-39 c -41,-40 -61,-91 -48,-125 13,-33 114,6 239,92 l 77,53 v -27 c 0,-76 63,-221 108,-250 39,-25 52,3 53,112 v 91 l 20,-45 c 15,-32 18,-55 13,-83 -6,-37 -5,-39 17,-32 13,4 34,13 46,21 21,13 24,12 38,-17 l 16,-31 28,44 c 16,23 44,58 64,77 31,29 34,36 25,56 -8,19 -6,31 12,59 22,36 35,42 57,28 9,-6 10,-17 3,-42 -5,-18 -8,-36 -5,-38 6,-6 89,43 105,62 18,23 32,20 75,-14 21,-16 41,-30 45,-30 15,0 19,29 10,61 -11,39 -9,43 24,35 21,-5 26,-14 31,-54 11,-79 44,-192 70,-236 13,-22 42,-59 65,-81 34,-33 42,-37 50,-25 17,26 11,151 -10,210 -11,30 -19,58 -20,62 0,4 54,6 120,5 66,-1 120,-6 120,-10 0,-4 -7,-24 -16,-45 -16,-37 -22,-141 -9,-161 12,-21 44,-11 68,22 52,69 96,193 84,238 -4,15 -1,19 11,17 27,-5 26,-74 -3,-193 -15,-59 -24,-113 -21,-121 12,-32 96,36 132,107 11,20 34,49 51,64 28,23 34,24 39,11 5,-13 16,-7 55,28 26,24 61,46 77,49 16,3 48,22 71,41 51,43 61,44 61,11 0,-22 3,-24 17,-16 13,7 26,4 49,-10 31,-19 32,-19 37,0 8,30 -19,91 -59,132 -30,31 -34,40 -22,44 9,4 29,0 45,-8 15,-8 56,-23 91,-32 34,-10 62,-19 62,-22 0,-17 -28,-30 -49,-22 l -24,10 7,-60 c 9,-83 43,-197 74,-254 25,-46 92,-117 111,-117 17,0 24,90 13,156 -6,36 -24,91 -40,123 l -29,59 50,-24 c 72,-33 141,-39 218,-20 35,9 76,25 92,35 l 28,18 -33,25 c -45,34 -84,54 -136,68 -24,6 -61,24 -82,39 -36,26 -37,28 -16,37 26,11 49,58 81,171 14,48 36,98 48,111 l 22,23 8,-31 c 6,-24 4,-37 -7,-49 -54,-59 -80,-218 -41,-247 16,-12 22,-12 39,-1 32,21 86,106 86,136 0,44 20,101 36,101 8,0 35,-30 62,-67 62,-90 125,-153 150,-153 11,0 30,8 43,19 l 23,18 -22,54 c -30,77 -34,96 -27,119 9,28 64,26 140,-5 33,-14 63,-25 68,-25 11,0 8,38 -7,74 -19,46 -125,148 -147,141 -23,-7 -74,54 -94,114 -19,57 -19,156 0,210 l 15,42 -42,-35 c -52,-45 -105,-71 -188,-91 -57,-15 -71,-23 -111,-68 -26,-29 -49,-50 -51,-47 -32,41 -61,102 -68,143 -5,29 -13,65 -19,81 -14,34 -15,32 28,41 31,7 33,5 26,-11 -22,-54 -21,-57 21,-50 59,11 137,52 194,103 53,48 74,52 46,7 -23,-33 -15,-39 23,-20 16,9 40,16 52,16 32,0 138,52 141,70 2,8 14,-6 26,-32 13,-25 29,-52 37,-58 44,-37 46,68 2,137 -15,24 -27,45 -27,48 0,13 34,3 63,-19 18,-13 53,-34 80,-46 47,-22 61,-40 31,-40 -8,0 -12,-5 -8,-11 3,-6 -5,-4 -19,6 -24,16 -26,15 -32,-6 -4,-12 -6,-81 -4,-153 4,-141 6,-137 -48,-120 -22,6 -23,4 -23,-44 0,-28 -4,-62 -9,-75 -9,-23 -7,-25 20,-29 16,-3 52,3 80,12 l 50,17 24,-31 24,-30 11,29 c 34,88 36,218 5,292 -8,18 -12,33 -9,33 2,0 23,-14 46,-30 80,-59 198,-73 299,-38 l 31,11 -39,39 c -21,22 -59,52 -84,66 -53,31 -163,129 -150,134 5,2 32,25 61,52 l 51,48 -22,24 c -26,28 -27,26 32,48 47,18 140,82 146,102 10,31 -164,57 -241,35 -22,-6 -41,-9 -42,-8 -1,1 -10,33 -20,70 -18,67 -15,95 12,104 5,2 48,-19 94,-46 47,-27 89,-46 94,-44 11,7 -1,78 -21,117 -9,17 -38,60 -65,95 -49,65 -59,91 -34,91 7,0 45,-7 84,-16 50,-11 82,-13 113,-7 l 44,9 -80,52 c -54,35 -90,52 -112,52 -33,0 -63,22 -63,46 0,8 11,42 25,76 14,34 25,67 25,75 0,7 18,22 40,33 22,11 40,24 40,28 0,4 -19,20 -41,36 -29,20 -38,33 -33,45 30,71 38,101 28,111 -15,15 -72,-9 -125,-51 -22,-17 -46,-29 -53,-26 -25,10 -116,79 -116,88 0,12 67,116 80,124 17,11 11,25 -19,43 l -30,18 67,45 c 67,44 148,137 134,151 -5,5 -38,11 -74,15 -51,4 -81,1 -134,-15 -79,-24 -155,-69 -180,-106 -25,-39 -35,-31 -19,15 8,23 15,68 15,101 0,57 2,62 40,99 31,30 40,47 40,72 0,46 -15,57 -77,57 -46,0 -55,3 -62,22 -8,21 -8,21 -31,-10 -20,-26 -31,-32 -62,-32 -102,0 -139,67 -91,163 13,26 12,27 -11,27 -45,0 -41,36 18,160 14,30 26,67 26,82 0,14 6,29 13,32 20,8 -60,73 -112,90 -74,25 -122,28 -178,13 -29,-8 -53,-12 -53,-10 0,2 16,20 35,40 19,20 46,59 59,87 23,49 51,165 41,174 -10,10 -95,-50 -134,-95 -42,-47 -115,-183 -127,-237 -6,-25 -5,-28 15,-21 15,5 21,2 21,-9 0,-12 -10,-16 -35,-16 -39,0 -42,6 -19,38 11,16 14,34 9,62 -8,46 -13,48 -48,20 l -25,-20 -46,26 c -25,14 -49,30 -52,35 -4,6 -11,6 -20,-2 -11,-9 -14,-6 -14,17 0,43 -18,99 -40,126 l -19,23 -22,-49 -21,-49 -19,24 c -10,13 -19,27 -19,32 0,19 -47,77 -62,77 -10,0 -41,-9 -69,-21 -46,-18 -59,-19 -100,-9 l -48,12 6,61 c 4,45 1,73 -10,100 -31,74 -75,54 -101,-47 -9,-33 -22,-66 -29,-75 -8,-9 -27,-47 -43,-84 -29,-68 -29,-68 -32,-33 -2,25 4,46 22,73 27,39 35,104 16,133 -7,12 -12,12 -29,-4 -26,-23 -46,-10 -57,37 -12,57 -44,135 -58,140 -8,3 -24,-5 -36,-18 z m 350,-326 c 0,-10 -7,-19 -15,-19 -15,0 -21,31 -9,43 11,10 24,-3 24,-24 z m -328,-151 c 4,-37 2,-48 -9,-48 -7,0 -16,7 -19,15 -9,22 -22,18 -38,-12 l -15,-28 -1,28 c 0,30 22,80 48,110 16,18 16,18 23,0 3,-10 8,-39 11,-65 z m 323,-48 c -21,-23 -35,-26 -35,-6 0,13 15,21 44,25 5,0 1,-8 -9,-19 z m 198,-22 c 16,-6 25,-14 20,-18 -11,-11 -123,-24 -123,-14 0,18 45,54 60,48 8,-3 28,-11 43,-16 z m -698,-56 c 0,-18 -20,-15 -23,4 -3,10 1,15 10,12 7,-3 13,-10 13,-16 z m 441,-59 c -10,-10 -19,5 -10,18 6,11 8,11 12,0 2,-7 1,-15 -2,-18 z m 1010,-38 c -30,-16 -56,-14 -56,5 0,5 19,10 43,10 h 42 z m -2180,-85 c 7,0 16,-4 19,-10 4,-6 -6,-10 -22,-10 -27,0 -29,3 -29,38 -1,36 -1,36 9,10 6,-16 16,-28 23,-28 z m 1598,36 60,7 -16,-25 c -16,-25 -16,-26 2,-21 16,4 26,-7 51,-61 28,-60 31,-74 25,-124 -4,-31 -7,-64 -8,-72 -1,-8 1,-44 5,-80 l 7,-65 h -124 c -87,0 -122,3 -115,11 5,6 4,36 -3,72 -15,80 1,154 47,221 l 34,50 -36,-15 c -49,-21 -142,-35 -177,-28 -29,6 -29,6 17,26 26,11 47,24 47,29 0,5 -16,19 -36,33 -35,23 -35,24 -13,31 45,14 124,21 148,13 13,-5 51,-6 85,-2 z m -911,-56 c 25,-27 47,-50 50,-50 2,0 21,14 42,30 42,34 55,37 55,15 0,-8 7,-15 15,-15 9,0 29,-7 45,-15 30,-15 30,-15 30,10 0,15 -5,35 -11,47 -14,25 -8,31 21,20 20,-7 26,-22 41,-97 10,-49 29,-110 43,-137 23,-43 24,-53 16,-105 -6,-32 -10,-101 -10,-153 0,-105 28,-300 44,-300 5,0 22,11 36,25 l 27,26 1,-35 c 1,-28 -3,-36 -21,-42 -12,-4 -42,-20 -66,-37 -36,-25 -43,-27 -37,-11 30,71 29,169 -2,169 -7,0 -22,15 -33,34 l -21,35 -19,-25 c -32,-41 -42,-88 -36,-162 l 6,-70 -25,36 c -31,47 -97,91 -156,105 -26,7 -49,12 -53,12 -10,0 43,-95 64,-114 27,-24 27,-34 0,-38 l -21,-3 21,-26 c 20,-26 20,-27 2,-32 -16,-4 -24,8 -46,72 -63,176 -121,249 -231,292 l -27,10 6,-71 c 7,-80 9,-78 -74,-54 -76,22 -162,70 -214,119 -69,64 -66,68 78,86 51,7 94,13 96,15 2,2 -4,15 -13,29 -9,14 -23,36 -32,49 l -15,24 85,1 c 159,2 232,51 151,103 -19,13 -35,25 -35,28 0,3 20,15 43,26 38,19 44,27 58,80 18,67 55,144 68,144 5,0 29,-22 54,-50 z m 1103,38 c 22,28 16,-1 -11,-56 -14,-29 -25,-56 -25,-62 0,-17 -19,-11 -30,10 -8,15 -6,33 6,71 15,45 18,49 32,35 14,-14 17,-13 28,2 z m 290,-47 c -15,-28 -30,-51 -34,-51 -7,0 -45,61 -40,64 55,27 94,43 96,41 2,-2 -8,-26 -22,-54 z m -1741,29 c -3,-5 -16,-15 -28,-21 -22,-12 -22,-12 -3,10 19,21 43,30 31,11 z m 774,-59 c 9,-6 11,-16 7,-27 -7,-18 -8,-18 -22,0 -23,32 -16,46 15,27 z m -664,-95 c -16,-53 -18,-56 -43,-50 -52,13 -112,47 -101,58 7,7 153,54 157,51 2,-2 -4,-28 -13,-59 z m 897,47 c 24,-9 45,-17 46,-19 2,-1 -19,-86 -47,-189 -48,-175 -54,-190 -94,-235 -23,-26 -44,-46 -46,-44 -2,1 5,24 15,51 15,38 19,75 19,178 -1,113 -4,139 -26,203 l -25,72 h 58 c 31,0 77,-7 100,-17 z m -1597,-33 c 19,-8 19,-9 -2,-9 -12,-1 -28,-3 -36,-6 -8,-4 -14,0 -14,10 0,16 21,19 52,5 z m 205,-14 c 0,-9 -30,-14 -35,-6 -4,6 3,10 14,10 12,0 21,-2 21,-4 z m -204,-50 c -4,-17 -2,-25 9,-28 10,-2 -3,-17 -36,-41 -28,-21 -52,-37 -54,-35 -1,2 13,31 32,66 35,63 60,82 49,38 z m -176,-15 c -32,-27 -36,-28 -53,-13 -9,8 -15,17 -12,20 4,4 60,17 90,21 5,0 -6,-12 -25,-28 z m 427,-1 c 26,-10 30,-17 39,-70 11,-65 6,-72 -33,-45 -13,9 -23,29 -25,52 -3,21 -8,46 -12,56 -9,20 -8,20 31,7 z m 2127,-51 c 38,-45 73,-113 83,-160 l 6,-30 28,27 c 35,34 55,27 69,-25 9,-33 15,-41 34,-41 23,0 23,-3 29,-112 5,-120 -4,-150 -33,-103 -20,33 -32,27 -52,-26 l -17,-44 v 43 c -1,49 20,106 51,139 18,19 19,25 8,38 -12,14 -16,10 -33,-37 -11,-29 -31,-70 -43,-90 -20,-30 -28,-36 -50,-32 l -26,5 21,-27 c 33,-42 28,-56 -14,-38 -19,7 -44,14 -55,14 -20,0 -20,-1 -3,-27 9,-16 26,-38 37,-50 11,-13 14,-23 8,-23 -7,0 -12,-7 -12,-15 0,-8 5,-15 10,-15 6,0 10,-4 10,-10 0,-17 -30,-11 -36,8 -15,44 -66,146 -85,170 -22,29 -86,72 -106,72 -16,0 -17,-42 -3,-89 5,-19 8,-36 6,-38 -2,-2 -16,3 -32,12 -16,8 -49,15 -73,15 -40,0 -43,-2 -38,-22 2,-13 7,-30 11,-39 6,-13 -5,-15 -86,-15 -94,1 -188,-18 -188,-37 0,-17 82,-87 130,-112 82,-42 189,-53 273,-29 10,3 -15,-27 -55,-68 l -73,-73 -61,31 c -34,17 -84,37 -113,45 -30,7 -69,28 -96,50 -25,21 -63,46 -85,56 -22,10 -40,21 -40,25 0,4 13,22 28,40 16,18 38,49 50,68 11,20 32,46 46,59 14,14 26,28 26,33 0,4 -18,20 -40,34 -22,15 -40,29 -39,33 0,3 26,19 58,34 32,16 82,49 110,74 58,50 126,144 111,153 -8,5 26,70 38,70 11,0 79,-56 151,-124 41,-39 71,-62 66,-51 -4,11 -10,52 -12,91 -4,57 -1,85 17,138 12,38 27,66 35,66 7,0 29,-19 49,-41 z m -2251,-21 c -6,-31 -6,-32 11,-15 10,9 20,17 23,17 15,0 106,-65 132,-95 33,-38 53,-122 32,-134 -12,-8 41,-62 127,-130 23,-19 42,-42 42,-51 0,-10 7,-34 16,-55 8,-20 13,-39 11,-42 -3,-2 -31,0 -63,6 -32,6 -73,11 -91,11 -36,0 -38,2 -23,30 12,22 7,26 -43,35 -34,7 -39,5 -44,-14 -7,-26 -14,-26 -47,0 -24,19 -31,20 -74,9 -69,-17 -154,-65 -207,-118 -47,-46 -48,-47 -40,-17 18,75 25,144 19,190 l -6,50 96,95 c 57,56 96,103 96,115 0,16 -3,14 -18,-10 -46,-74 -216,-181 -276,-173 l -26,3 28,60 c 33,69 144,179 191,188 15,3 48,22 72,41 57,45 70,46 62,4 z m 2145,0 c -6,-18 -28,-21 -28,-4 0,9 7,16 16,16 9,0 14,-5 12,-12 z M 1291,3577 c -10,-9 -11,-8 -5,6 3,10 9,15 12,12 3,-3 0,-11 -7,-18 z m -131,-437 c 0,-25 9,-81 18,-125 l 18,-80 26,28 26,27 6,-22 c 6,-24 3,-28 -67,-74 l -38,-24 8,22 c 4,13 8,43 8,68 -1,37 -7,51 -33,79 -31,32 -33,33 -47,15 -8,-10 -18,-37 -24,-59 l -9,-40 -1,58 c -1,63 22,121 67,170 31,33 41,22 42,-43 z m 2970,22 c 0,-5 -11,-14 -25,-20 -20,-9 -25,-9 -25,2 0,14 14,24 38,25 6,1 12,-3 12,-7 z m -1202,-68 c -25,-26 -51,-43 -57,-40 -15,10 -14,26 2,26 7,0 31,13 53,30 55,42 56,37 2,-16 z m 1297,-4 c -27,-28 -55,-40 -55,-22 0,6 68,50 79,52 3,0 -8,-13 -24,-30 z m -2534,-79 c 39,-28 93,-57 121,-67 l 49,-16 -8,-42 c -4,-22 -8,-89 -8,-147 v -107 l -26,19 c -14,10 -61,30 -104,44 -43,15 -92,37 -109,50 -17,12 -47,30 -66,40 -19,10 -36,19 -38,20 -4,3 51,80 95,134 l 27,33 -21,17 c -11,9 -29,21 -39,27 -17,10 -16,12 11,27 17,9 34,16 38,17 4,0 39,-22 78,-49 z m 2122,-1 c 5,-4 -7,-10 -27,-12 -20,-2 -36,-3 -36,-2 0,1 3,10 6,18 6,16 38,14 57,-4 z m -1155,-12 c 32,-20 33,-22 16,-35 -26,-19 -37,-16 -68,16 -20,21 -24,30 -14,34 23,9 30,8 66,-15 z m 1158,-53 c -5,-18 -2,-25 9,-25 17,0 19,-12 4,-27 -5,-5 -16,-31 -24,-57 -14,-47 -14,-47 8,-41 44,14 89,51 116,97 l 27,47 18,-40 c 12,-26 35,-53 64,-73 84,-57 120,-95 136,-143 29,-86 20,-105 -38,-83 -29,11 -31,5 -20,-62 4,-23 13,-38 24,-41 27,-7 71,-101 77,-163 l 6,-54 33,20 33,21 10,-38 c 13,-46 1,-95 -34,-147 -36,-52 -31,-54 16,-7 23,22 44,41 48,41 4,0 4,-28 0,-62 -3,-35 -4,-84 -1,-110 5,-46 5,-46 27,-32 20,13 22,13 20,-7 -1,-15 -13,-25 -40,-35 -45,-15 -51,-13 -36,14 13,25 15,82 2,82 -5,0 -11,9 -14,20 -7,29 -25,25 -47,-12 -21,-35 -27,-19 -10,26 10,29 0,35 -20,11 -8,-10 -21,-13 -37,-9 -23,6 -24,5 -13,-16 16,-30 6,-36 -36,-21 -30,11 -38,11 -44,0 -6,-8 -13,0 -25,27 -18,43 -72,104 -92,104 -12,0 -19,-42 -15,-91 1,-14 -7,-12 -47,9 l -47,26 40,58 c 22,32 46,58 53,58 16,0 87,-35 126,-62 32,-23 32,-22 7,33 -12,28 -20,66 -20,104 0,59 -2,62 -44,104 -25,24 -50,57 -57,73 -6,15 -12,28 -13,28 -1,0 -56,7 -121,15 -66,8 -125,15 -132,15 -6,0 -15,-15 -18,-32 -4,-18 -16,-50 -27,-72 -22,-44 -15,-56 35,-56 19,0 27,-5 27,-17 0,-10 18,-28 41,-41 l 41,-24 -58,-51 c -32,-29 -74,-69 -93,-90 -49,-52 -141,-189 -134,-200 3,-5 19,-6 35,-3 26,5 29,4 18,-9 -7,-8 -9,-15 -4,-15 5,0 1,-5 -8,-10 -11,-7 -26,-7 -43,0 -14,5 -41,10 -58,11 -29,0 -30,1 -13,12 11,7 35,26 54,43 30,27 35,37 36,82 1,31 -2,52 -9,52 -33,-1 -97,-43 -122,-81 l -28,-43 -6,65 c -5,64 -25,115 -52,137 -12,10 -16,8 -21,-10 -3,-13 -6,-42 -6,-66 0,-39 -2,-43 -20,-37 -16,5 -20,2 -20,-14 0,-12 -7,-21 -15,-21 -20,0 -20,3 20,100 40,98 47,197 19,252 l -16,30 -24,-23 c -14,-13 -35,-39 -46,-57 l -21,-34 -24,49 c -14,26 -29,66 -33,88 -4,22 -15,71 -23,108 -20,88 -16,100 26,83 18,-7 64,-23 102,-35 39,-12 108,-41 154,-63 l 84,-42 23,29 c 13,16 22,30 20,32 -1,1 -40,10 -87,18 -179,34 -368,107 -397,155 -8,12 -10,21 -5,19 4,-2 34,-17 64,-32 108,-54 232,-71 338,-46 24,5 46,8 48,5 3,-3 1,-19 -5,-35 -13,-37 -8,-38 62,-7 95,42 200,159 267,299 25,51 56,66 45,22 z m 322,-93 c 6,-36 10,-68 8,-70 -2,-2 -18,4 -35,13 -25,12 -31,22 -31,48 -1,17 -7,43 -15,57 -21,37 -19,39 24,28 38,-10 38,-10 49,-76 z m -2018,60 c -14,-9 -46,-36 -71,-59 -25,-24 -49,-43 -52,-43 -3,0 -31,25 -61,55 l -55,56 72,-6 c 39,-3 92,-2 117,3 67,14 78,13 50,-6 z m 228,-25 c -2,-16 3,-23 19,-25 l 23,-3 -24,-48 c -14,-26 -28,-65 -32,-87 -5,-27 -22,-56 -60,-97 -30,-32 -70,-92 -91,-135 l -37,-77 -7,55 c -4,30 -13,72 -20,93 -12,36 -11,39 18,70 44,47 105,132 152,215 40,69 65,86 59,39 z m 546,27 c 20,-8 11,-24 -15,-24 -10,0 -19,7 -19,15 0,16 9,19 34,9 z m -1543,-58 c -19,-19 -40,-32 -47,-29 -23,9 -16,18 29,40 56,29 56,28 18,-11 z m 1398,14 c 35,-9 40,-14 45,-48 13,-89 18,-152 11,-152 -4,0 -25,10 -46,22 -36,20 -39,25 -39,64 0,23 -9,63 -20,89 -16,37 -17,46 -6,42 8,-3 33,-11 55,-17 z m -193,-59 c -3,-5 -21,-14 -38,-20 l -33,-11 24,20 c 23,20 57,28 47,11 z M 900,2764 c 0,-2 -16,-4 -35,-4 -26,0 -33,4 -29,14 4,11 12,12 35,4 16,-5 29,-12 29,-14 z m 3473,-27 c 15,-6 16,-10 5,-27 -17,-27 -35,-25 -42,4 -3,13 -9,32 -13,43 -6,17 -5,17 13,2 10,-9 27,-19 37,-22 z m -1655,-41 c 33,-24 71,-59 85,-78 27,-34 51,-88 43,-95 -2,-2 -22,5 -44,16 l -40,21 -6,-28 c -8,-42 -6,-152 3,-152 4,0 18,-26 31,-57 17,-42 45,-79 97,-131 l 73,-73 -77,3 -77,3 -20,65 -20,65 -8,-50 c -13,-90 -17,-98 -41,-90 -63,19 -97,26 -147,32 -64,6 -61,5 -51,22 7,11 16,11 41,3 l 31,-11 -22,36 c -28,44 -27,118 2,174 10,21 19,40 19,43 0,3 -22,8 -50,12 -27,4 -50,12 -50,18 0,6 18,36 41,66 49,65 83,130 98,188 7,23 16,42 20,42 5,0 36,-20 69,-44 z m 1758,-21 c -9,-14 -24,-25 -33,-25 -13,0 -10,7 12,30 33,35 45,32 21,-5 z m -3219,-85 c 7,-41 10,-76 8,-78 -2,-3 -19,4 -37,15 -28,16 -34,26 -38,64 -3,24 -11,54 -18,66 -18,32 -16,33 30,19 l 43,-12 z m 3202,-11 c 47,-17 38,-43 -16,-47 -50,-4 -83,11 -83,38 0,16 7,20 34,20 18,0 47,-5 65,-11 z m -2609,-39 c 0,-5 -8,-10 -17,-10 -15,0 -16,2 -3,10 19,12 20,12 20,0 z m 2467,-72 c 28,-26 29,-38 3,-38 -18,0 -40,26 -40,49 0,17 11,13 37,-11 z m 133,-48 c 8,-5 11,-12 7,-16 -4,-4 -15,0 -24,9 -18,18 -8,23 17,7 z m 60,-40 c 0,-14 -14,-12 -28,2 -19,19 -14,30 8,18 11,-6 20,-15 20,-20 z M 720,2122 c -23,-12 -41,-15 -52,-10 -33,16 -18,28 35,28 h 52 z m 1577,-12 c -7,-18 -19,-30 -29,-30 -24,0 -23,9 4,37 29,31 38,29 25,-7 z m 858,-60 c 22,-42 19,-44 -21,-14 -36,28 -36,31 3,43 1,1 9,-12 18,-29 z m 671,-27 c -3,-3 -13,-3 -22,1 -13,5 -14,9 -3,22 11,14 13,14 22,-1 5,-9 6,-19 3,-22 z m -696,-38 c 10,-13 9,-15 -8,-15 -24,0 -37,-15 -22,-25 18,-11 11,-23 -18,-30 -15,-3 -46,-16 -67,-30 l -40,-24 37,-15 c 47,-20 128,-20 175,-1 19,8 37,15 39,15 2,0 -4,-17 -13,-37 -15,-37 -15,-144 0,-159 9,-10 46,25 64,60 8,16 17,63 20,105 3,42 7,78 9,80 9,10 33,-23 49,-67 10,-26 31,-65 46,-88 15,-22 31,-53 35,-69 6,-25 5,-26 -15,-16 -16,9 -21,9 -21,-1 -1,-7 -9,2 -18,20 l -18,33 -21,-23 c -32,-36 -86,-117 -128,-193 -21,-38 -45,-78 -53,-87 -25,-30 -26,-268 -1,-268 6,0 32,21 59,46 l 50,47 v -35 c 0,-20 -14,-63 -32,-99 -29,-55 -37,-64 -60,-64 -26,1 -27,0 -13,-22 8,-12 15,-24 15,-27 0,-2 -24,-4 -53,-3 -48,1 -56,4 -78,33 -26,36 -68,64 -93,64 -14,0 -16,-7 -11,-37 4,-21 9,-46 12,-55 5,-22 4,-22 -35,-2 -34,16 -98,16 -96,-1 1,-5 5,-20 9,-32 6,-22 5,-23 -72,-23 -77,0 -148,-13 -157,-29 -3,-5 8,-21 24,-37 16,-16 30,-32 30,-36 0,-13 -169,-9 -193,3 -12,7 -24,13 -26,15 -5,4 44,79 72,111 19,21 19,22 -13,38 -29,15 -30,18 -15,29 15,11 12,14 -26,25 -24,7 -63,23 -86,36 l -41,23 -22,-22 -22,-21 6,29 c 6,25 0,36 -54,91 -58,62 -60,63 -66,38 -9,-34 2,-183 17,-233 11,-37 14,-39 29,-25 15,14 18,14 23,1 6,-15 1,-20 -45,-49 l -28,-17 7,45 c 5,39 3,49 -16,66 -11,11 -21,24 -21,29 0,6 -5,10 -11,10 -19,0 -40,-68 -33,-112 4,-34 3,-39 -6,-25 -17,27 -86,67 -116,67 -26,0 -26,-1 -10,-25 13,-20 14,-25 2,-25 -7,0 -20,14 -27,32 -7,18 -31,50 -52,71 -37,37 -39,38 -58,21 -10,-9 -19,-27 -19,-38 0,-18 -6,-21 -40,-21 -22,0 -40,4 -40,10 0,6 -15,16 -33,23 -19,7 -51,27 -73,46 -33,29 -36,35 -21,41 9,4 17,11 17,17 0,5 11,24 24,41 13,18 42,68 63,112 21,44 65,130 98,190 l 60,110 9,-42 c 5,-24 13,-43 19,-43 18,0 80,74 103,125 17,35 24,68 24,110 v 60 l 31,-33 c 50,-53 101,-82 159,-89 52,-6 52,-6 45,18 -21,69 -63,114 -150,164 -55,31 -56,32 -38,53 16,19 32,21 168,27 135,5 148,4 131,-9 -10,-8 -24,-17 -30,-20 -7,-3 -6,-8 4,-15 10,-7 2,-11 -33,-13 l -47,-3 31,-60 c 31,-58 54,-93 133,-209 81,-120 231,-234 354,-270 63,-18 64,-15 31,85 -54,165 -174,330 -278,384 -17,8 -31,17 -31,19 0,2 19,0 43,-5 35,-6 51,-3 97,18 46,22 73,27 167,31 l 112,4 44,42 c 38,35 106,71 143,75 6,0 17,-6 24,-14 z m 1315,-115 c -11,-18 -43,-31 -50,-20 -3,6 4,14 17,19 31,13 40,13 33,1 z m -2595,-24 c 0,-3 -4,-8 -10,-11 -5,-3 -10,-1 -10,4 0,6 5,11 10,11 6,0 10,-2 10,-4 z m -40,-33 c 0,-5 -23,-20 -50,-34 -28,-15 -50,-23 -50,-19 0,5 4,11 10,15 5,3 7,12 4,20 -4,9 4,15 28,18 18,2 39,5 46,5 6,1 12,-1 12,-5 z m 1740,-28 35,-13 -32,-1 c -18,-1 -36,-1 -40,-2 -5,0 -9,7 -11,15 -4,19 2,19 48,1 z M 860,1670 c 0,-23 -10,-26 -28,-8 -18,18 -15,28 8,28 13,0 20,-7 20,-20 z m 705,-87 c -19,-32 -35,-63 -35,-69 0,-6 -33,-41 -74,-78 l -74,-66 40,-77 c 21,-43 42,-97 45,-120 l 6,-43 -49,17 c -67,22 -207,162 -224,221 -6,23 -26,62 -45,87 -44,57 -44,69 -4,60 18,-4 29,-3 26,2 -3,5 30,9 76,9 99,0 197,28 277,78 30,19 58,34 62,35 4,1 -8,-25 -27,-56 z m -546,-2 c 12,-8 11,-13 -10,-30 -20,-16 -25,-17 -27,-5 -4,19 5,44 15,44 4,0 15,-4 22,-9 z m 2450,-204 c 23,-37 116,-127 132,-127 23,0 3,-22 -64,-74 -40,-31 -75,-56 -78,-56 -2,0 -4,44 -4,98 0,78 -5,109 -24,160 -14,37 -29,61 -35,59 -9,-4 -10,7 -2,44 l 10,49 21,-58 c 12,-32 31,-75 44,-95 z m 552,70 c -29,-30 -34,-17 -8,23 18,28 22,31 25,16 2,-10 -5,-28 -17,-39 z M 1008,1324 c -2,-1 -9,1 -16,5 -9,5 -11,17 -6,37 l 8,29 8,-34 c 5,-18 8,-35 6,-37 z m 62,39 c 0,-20 -24,-11 -28,10 -2,12 1,15 12,11 9,-3 16,-13 16,-21 z m 2996,-15 c 11,-17 -26,-38 -69,-38 -40,0 -77,14 -77,30 0,18 135,26 146,8 z m -745,-78 c -7,-32 -8,-33 -15,-12 -5,14 -3,29 5,38 16,20 19,15 10,-26 z m 607,-39 c 16,-20 15,-41 -2,-41 -23,0 -46,29 -46,57 0,23 2,24 18,12 9,-7 23,-20 30,-28 z m 178,-46 c 25,-19 6,-19 -37,0 -32,13 -32,14 -8,15 14,0 34,-7 45,-15 z m -787,-150 c -7,-7 -16,-2 -28,14 l -19,25 -20,-40 c -20,-38 -21,-38 -22,-11 0,38 26,96 58,130 l 27,28 7,-68 c 4,-41 3,-72 -3,-78 z M 2318,894 c -16,-16 -31,-23 -38,-19 -9,6 -2,14 21,26 46,24 48,23 17,-7 z m 1152,1 c -7,-8 -20,-15 -29,-15 -13,1 -13,3 3,15 26,19 42,19 26,0 z m 140,-35 c 0,-5 -2,-10 -4,-10 -3,0 -8,5 -11,10 -3,6 -1,10 4,10 6,0 11,-4 11,-10 z M 3106,735 c 18,-14 18,-14 -8,-15 -18,0 -28,5 -28,15 0,19 11,19 36,0 z"
       id="path15"
       style="fill:#00a700;fill-opacity:1" />
    <path
       d="m 2939,1706 -75,-11 15,-63 16,-63 32,45 c 18,25 48,55 67,68 33,21 47,40 29,37 -5,-1 -42,-7 -84,-13 z"
       id="path16"
       style="fill:#00a700;fill-opacity:1" />
    <path
       d="m 3080,1460 c 0,-5 5,-10 11,-10 5,0 7,5 4,10 -3,6 -8,10 -11,10 -2,0 -4,-4 -4,-10 z"
       id="path17"
       style="fill:#00a700;fill-opacity:1" />
    <path
       d="m 2981,1340 -34,-29 18,-73 c 23,-95 23,-95 82,-122 l 50,-24 -33,49 c -35,52 -58,140 -52,195 2,19 4,34 3,34 0,-1 -15,-14 -34,-30 z"
       id="path18"
       style="fill:#00a700;fill-opacity:1" />
    <path
       d="m 2526,1154 c 8,-83 10,-87 34,-74 27,15 92,102 83,111 -5,5 -34,11 -66,15 l -58,7 z"
       id="path19"
       style="fill:#00a700;fill-opacity:1" />
    <path
       d="m 1265,1470 c 3,-5 8,-10 11,-10 2,0 4,5 4,10 0,6 -5,10 -11,10 -5,0 -7,-4 -4,-10 z"
       id="path20"
       style="fill:#00a700;fill-opacity:1" />
    <path
       d="m 2294,4499 c -9,-10 -9,-21 -1,-39 10,-25 10,-25 14,-2 3,12 3,30 1,39 -3,14 -5,14 -14,2 z"
       id="path21"
       style="fill:#00a700;fill-opacity:1" />
    <path
       d="m 2447,4470 c 6,-21 18,-26 28,-11 3,6 -3,15 -14,20 -16,9 -18,8 -14,-9 z"
       id="path22"
       style="fill:#00a700;fill-opacity:1" />
    <path
       d="m 2324,4353 5,-32 -34,15 c -19,8 -45,14 -57,13 -13,0 6,-10 42,-23 36,-12 74,-26 85,-31 19,-8 19,-7 4,11 -9,10 -24,33 -33,49 l -17,30 z"
       id="path23"
       style="fill:#00a700;fill-opacity:1" />
    <path
       d="m 717,3342 c -61,-37 -36,-102 40,-102 30,0 34,3 28,18 -4,9 -10,36 -12,60 -6,46 -14,50 -56,24 z"
       id="path24"
       style="fill:#00a700;fill-opacity:1" />
    <path
       d="m 786,3201 c -3,-4 4,-17 15,-27 18,-16 18,-19 4,-24 -11,-4 -3,-12 29,-28 l 45,-21 -34,45 c -19,25 -35,50 -35,55 0,11 -17,12 -24,0 z"
       id="path25"
       style="fill:#00a700;fill-opacity:1" />
    <path
       d="m 1128,2204 c -32,-45 -63,-112 -55,-121 2,-2 30,12 62,31 31,19 62,37 68,39 14,4 2,49 -21,77 l -18,23 z"
       id="path26"
       style="fill:#00a700;fill-opacity:1" />
    <path
       d="m 3160,531 c 0,-5 -22,-26 -50,-47 -27,-20 -47,-41 -44,-45 3,-5 21,-13 40,-18 70,-19 111,24 84,89 -12,28 -30,41 -30,21 z"
       id="path27"
       style="fill:#00a700;fill-opacity:1" />
    <path
       d="m 1858,427 c -33,-13 -37,-27 -8,-27 10,0 24,9 30,20 6,11 9,20 8,19 -2,-1 -15,-6 -30,-12 z"
       id="path28"
       style="fill:#00a700;fill-opacity:1" />
  </g>
  <g
     transform="matrix(0.03274229,-0.00281154,-0.00301955,-0.03341742,186.57194,327.49454)"
     fill="#000000"
     stroke="none"
     id="g42"
     style="fill:#127312;fill-opacity:1">
    <path
       d="m 2560,4755 c -34,-36 -41,-89 -24,-170 8,-38 18,-83 21,-99 4,-19 1,-33 -8,-40 -8,-6 -15,-28 -15,-50 -2,-52 -52,-156 -76,-156 -21,0 -23,-11 -6,-28 9,-9 1,-12 -39,-12 -46,0 -54,3 -73,30 -18,26 -66,60 -84,60 -3,0 -6,-18 -8,-39 l -3,-40 -50,18 c -27,10 -57,21 -67,25 -11,5 -18,2 -22,-12 -6,-17 -18,-20 -79,-24 -71,-4 -73,-3 -103,29 -21,22 -41,33 -59,33 h -28 l 6,-60 c 6,-67 -7,-89 -41,-71 -15,8 -20,25 -25,88 -6,77 -41,203 -57,203 -24,0 -80,-141 -80,-202 0,-21 -5,-28 -19,-28 -10,0 -21,-9 -24,-19 -6,-25 2,-34 20,-19 7,6 15,9 17,7 2,-2 6,-35 8,-73 3,-75 -9,-94 -35,-56 l -15,21 -16,-23 c -10,-14 -16,-43 -16,-76 v -53 l -39,31 c -36,29 -111,57 -111,41 0,-10 31,-55 49,-69 14,-11 14,-14 2,-22 -12,-7 -12,-11 -2,-24 11,-14 11,-16 -3,-16 -9,0 -19,8 -22,18 -41,121 -113,212 -168,212 -15,0 -15,-12 0,-89 4,-20 2,-22 -13,-16 -35,14 -84,23 -103,18 -15,-4 -17,-9 -9,-30 5,-13 9,-27 9,-31 0,-4 -42,-7 -93,-8 -58,0 -105,-6 -126,-15 l -35,-15 45,-42 c 24,-24 68,-55 97,-69 44,-21 52,-30 52,-52 0,-15 7,-51 15,-79 11,-36 13,-62 7,-84 l -9,-33 -15,30 c -9,17 -27,41 -41,53 -25,24 -25,24 -32,3 -10,-32 -35,-26 -119,30 -103,69 -121,59 -95,-47 8,-31 14,-41 20,-33 19,32 120,-101 146,-191 8,-30 17,-56 18,-58 1,-1 17,11 35,28 24,23 36,28 46,20 10,-9 15,-1 26,36 7,26 18,49 24,51 14,5 47,-97 42,-129 -2,-17 -11,-24 -32,-26 -28,-4 -29,-4 -23,-53 4,-28 2,-49 -3,-49 -5,0 -13,-12 -16,-27 -12,-47 -77,-154 -91,-149 -13,5 -17,-11 -13,-47 1,-17 -4,-18 -56,-11 l -58,7 18,-29 c 10,-16 28,-39 39,-51 16,-19 18,-25 7,-38 -10,-11 -10,-18 -1,-29 9,-10 9,-16 1,-21 -15,-9 -14,-12 -49,81 -36,92 -92,164 -152,194 -21,11 -41,20 -44,20 -9,0 -6,-73 5,-109 11,-39 7,-49 -12,-33 -22,17 -89,31 -120,25 -24,-5 -29,-10 -24,-27 19,-67 29,-61 -101,-61 -91,0 -127,-4 -157,-18 l -40,-18 45,-45 c 86,-89 214,-140 330,-132 l 68,5 -57,-63 c -80,-86 -141,-217 -142,-301 0,-19 3,-21 28,-14 39,11 91,39 130,68 21,16 39,22 52,18 15,-5 35,7 80,47 62,57 88,73 132,82 15,4 52,26 83,51 67,55 79,57 71,9 l -7,-35 26,17 c 26,17 27,16 96,-31 80,-55 109,-89 135,-160 10,-27 35,-78 57,-112 l 39,-63 h 54 c 53,0 54,0 54,30 0,23 -13,43 -53,85 -86,87 -146,225 -147,336 v 36 l -97,23 c -67,16 -106,30 -123,46 l -25,24 h 23 c 13,0 40,-9 61,-19 21,-11 65,-26 99,-34 l 60,-14 6,29 5,28 52,-21 c 88,-34 176,-102 229,-177 l 38,-53 26,56 c 13,30 30,55 37,55 26,0 94,-85 111,-140 15,-46 21,-55 42,-56 18,-1 27,5 32,19 5,16 17,0 58,-79 28,-54 70,-129 94,-165 41,-65 48,-94 33,-134 -6,-15 -10,-8 -16,32 -7,57 -42,118 -65,118 -8,-1 -30,10 -49,23 -43,32 -53,19 -48,-68 2,-52 9,-75 34,-115 18,-27 31,-51 30,-52 -2,-1 -27,10 -56,24 -43,22 -68,27 -132,27 -102,1 -116,-12 -58,-54 24,-18 56,-37 72,-42 30,-11 35,-26 12,-34 -23,-9 -18,-23 10,-30 28,-7 31,-14 14,-31 -9,-9 -35,12 -103,81 -112,114 -186,156 -278,156 -57,0 -59,-1 -52,-22 10,-35 34,-80 60,-114 l 23,-32 -72,-4 c -86,-5 -151,-31 -142,-58 4,-14 -6,-24 -41,-44 -26,-14 -48,-26 -50,-26 -2,0 5,15 16,33 11,18 26,51 34,75 15,41 15,42 -6,42 -12,0 -57,10 -100,22 -75,22 -79,25 -88,58 -26,97 -41,334 -22,342 5,2 12,21 15,43 l 6,40 -17,-25 c -34,-51 -108,-124 -158,-156 -56,-36 -209,-93 -220,-82 -3,4 -2,21 4,37 6,17 9,31 6,31 -20,0 -95,-65 -100,-87 -7,-27 14,-53 42,-53 9,0 11,-20 7,-77 -4,-63 -9,-82 -27,-98 -55,-51 -72,-106 -38,-124 9,-5 44,-12 77,-16 48,-6 67,-14 92,-39 18,-17 33,-34 33,-37 0,-4 -29,1 -65,9 -54,13 -79,14 -143,5 -42,-6 -99,-21 -126,-32 -57,-25 -53,-37 28,-75 93,-44 257,-55 391,-26 24,6 44,5 49,-1 6,-5 -2,-9 -23,-9 -23,0 -41,-9 -62,-30 l -30,-29 28,-18 c 18,-12 44,-18 81,-17 l 54,2 -31,-32 c -30,-31 -61,-92 -61,-121 0,-13 4,-14 23,-4 12,6 34,23 50,37 22,21 27,23 27,9 0,-19 15,-23 25,-7 9,14 25,12 25,-3 0,-8 -26,-21 -58,-31 -77,-24 -159,-80 -183,-127 -10,-21 -19,-41 -19,-45 0,-4 27,-4 61,-1 54,5 60,3 53,-11 -13,-28 -17,-122 -6,-122 6,0 23,5 38,10 l 27,11 -6,-58 c -7,-65 8,-172 28,-199 11,-16 17,-12 64,37 77,81 116,207 93,305 l -9,41 71,-71 c 80,-79 80,-70 3,-126 -44,-32 -81,-85 -73,-105 9,-25 35,-29 105,-17 36,7 122,15 190,18 130,5 177,18 219,57 l 24,22 -4,-25 c -2,-21 -13,-28 -61,-43 -50,-16 -56,-21 -45,-34 11,-14 9,-15 -22,-7 -84,21 -219,-2 -233,-41 -3,-6 0,-33 6,-59 l 11,-48 -42,-39 c -41,-40 -61,-91 -48,-125 13,-33 114,6 239,92 l 77,53 v -27 c 0,-76 63,-221 108,-250 39,-25 52,3 53,112 v 91 l 20,-45 c 15,-32 18,-55 13,-83 -6,-37 -5,-39 17,-32 13,4 34,13 46,21 21,13 24,12 38,-17 l 16,-31 28,44 c 16,23 44,58 64,77 31,29 34,36 25,56 -8,19 -6,31 12,59 22,36 35,42 57,28 9,-6 10,-17 3,-42 -5,-18 -8,-36 -5,-38 6,-6 89,43 105,62 18,23 32,20 75,-14 21,-16 41,-30 45,-30 15,0 19,29 10,61 -11,39 -9,43 24,35 21,-5 26,-14 31,-54 11,-79 44,-192 70,-236 13,-22 42,-59 65,-81 34,-33 42,-37 50,-25 17,26 11,151 -10,210 -11,30 -19,58 -20,62 0,4 54,6 120,5 66,-1 120,-6 120,-10 0,-4 -7,-24 -16,-45 -16,-37 -22,-141 -9,-161 12,-21 44,-11 68,22 52,69 96,193 84,238 -4,15 -1,19 11,17 27,-5 26,-74 -3,-193 -15,-59 -24,-113 -21,-121 12,-32 96,36 132,107 11,20 34,49 51,64 28,23 34,24 39,11 5,-13 16,-7 55,28 26,24 61,46 77,49 16,3 48,22 71,41 51,43 61,44 61,11 0,-22 3,-24 17,-16 13,7 26,4 49,-10 31,-19 32,-19 37,0 8,30 -19,91 -59,132 -30,31 -34,40 -22,44 9,4 29,0 45,-8 15,-8 56,-23 91,-32 34,-10 62,-19 62,-22 0,-17 -28,-30 -49,-22 l -24,10 7,-60 c 9,-83 43,-197 74,-254 25,-46 92,-117 111,-117 17,0 24,90 13,156 -6,36 -24,91 -40,123 l -29,59 50,-24 c 72,-33 141,-39 218,-20 35,9 76,25 92,35 l 28,18 -33,25 c -45,34 -84,54 -136,68 -24,6 -61,24 -82,39 -36,26 -37,28 -16,37 26,11 49,58 81,171 14,48 36,98 48,111 l 22,23 8,-31 c 6,-24 4,-37 -7,-49 -54,-59 -80,-218 -41,-247 16,-12 22,-12 39,-1 32,21 86,106 86,136 0,44 20,101 36,101 8,0 35,-30 62,-67 62,-90 125,-153 150,-153 11,0 30,8 43,19 l 23,18 -22,54 c -30,77 -34,96 -27,119 9,28 64,26 140,-5 33,-14 63,-25 68,-25 11,0 8,38 -7,74 -19,46 -125,148 -147,141 -23,-7 -74,54 -94,114 -19,57 -19,156 0,210 l 15,42 -42,-35 c -52,-45 -105,-71 -188,-91 -57,-15 -71,-23 -111,-68 -26,-29 -49,-50 -51,-47 -32,41 -61,102 -68,143 -5,29 -13,65 -19,81 -14,34 -15,32 28,41 31,7 33,5 26,-11 -22,-54 -21,-57 21,-50 59,11 137,52 194,103 53,48 74,52 46,7 -23,-33 -15,-39 23,-20 16,9 40,16 52,16 32,0 138,52 141,70 2,8 14,-6 26,-32 13,-25 29,-52 37,-58 44,-37 46,68 2,137 -15,24 -27,45 -27,48 0,13 34,3 63,-19 18,-13 53,-34 80,-46 47,-22 61,-40 31,-40 -8,0 -12,-5 -8,-11 3,-6 -5,-4 -19,6 -24,16 -26,15 -32,-6 -4,-12 -6,-81 -4,-153 4,-141 6,-137 -48,-120 -22,6 -23,4 -23,-44 0,-28 -4,-62 -9,-75 -9,-23 -7,-25 20,-29 16,-3 52,3 80,12 l 50,17 24,-31 24,-30 11,29 c 34,88 36,218 5,292 -8,18 -12,33 -9,33 2,0 23,-14 46,-30 80,-59 198,-73 299,-38 l 31,11 -39,39 c -21,22 -59,52 -84,66 -53,31 -163,129 -150,134 5,2 32,25 61,52 l 51,48 -22,24 c -26,28 -27,26 32,48 47,18 140,82 146,102 10,31 -164,57 -241,35 -22,-6 -41,-9 -42,-8 -1,1 -10,33 -20,70 -18,67 -15,95 12,104 5,2 48,-19 94,-46 47,-27 89,-46 94,-44 11,7 -1,78 -21,117 -9,17 -38,60 -65,95 -49,65 -59,91 -34,91 7,0 45,-7 84,-16 50,-11 82,-13 113,-7 l 44,9 -80,52 c -54,35 -90,52 -112,52 -33,0 -63,22 -63,46 0,8 11,42 25,76 14,34 25,67 25,75 0,7 18,22 40,33 22,11 40,24 40,28 0,4 -19,20 -41,36 -29,20 -38,33 -33,45 30,71 38,101 28,111 -15,15 -72,-9 -125,-51 -22,-17 -46,-29 -53,-26 -25,10 -116,79 -116,88 0,12 67,116 80,124 17,11 11,25 -19,43 l -30,18 67,45 c 67,44 148,137 134,151 -5,5 -38,11 -74,15 -51,4 -81,1 -134,-15 -79,-24 -155,-69 -180,-106 -25,-39 -35,-31 -19,15 8,23 15,68 15,101 0,57 2,62 40,99 31,30 40,47 40,72 0,46 -15,57 -77,57 -46,0 -55,3 -62,22 -8,21 -8,21 -31,-10 -20,-26 -31,-32 -62,-32 -102,0 -139,67 -91,163 13,26 12,27 -11,27 -45,0 -41,36 18,160 14,30 26,67 26,82 0,14 6,29 13,32 20,8 -60,73 -112,90 -74,25 -122,28 -178,13 -29,-8 -53,-12 -53,-10 0,2 16,20 35,40 19,20 46,59 59,87 23,49 51,165 41,174 -10,10 -95,-50 -134,-95 -42,-47 -115,-183 -127,-237 -6,-25 -5,-28 15,-21 15,5 21,2 21,-9 0,-12 -10,-16 -35,-16 -39,0 -42,6 -19,38 11,16 14,34 9,62 -8,46 -13,48 -48,20 l -25,-20 -46,26 c -25,14 -49,30 -52,35 -4,6 -11,6 -20,-2 -11,-9 -14,-6 -14,17 0,43 -18,99 -40,126 l -19,23 -22,-49 -21,-49 -19,24 c -10,13 -19,27 -19,32 0,19 -47,77 -62,77 -10,0 -41,-9 -69,-21 -46,-18 -59,-19 -100,-9 l -48,12 6,61 c 4,45 1,73 -10,100 -31,74 -75,54 -101,-47 -9,-33 -22,-66 -29,-75 -8,-9 -27,-47 -43,-84 -29,-68 -29,-68 -32,-33 -2,25 4,46 22,73 27,39 35,104 16,133 -7,12 -12,12 -29,-4 -26,-23 -46,-10 -57,37 -12,57 -44,135 -58,140 -8,3 -24,-5 -36,-18 z m 350,-326 c 0,-10 -7,-19 -15,-19 -15,0 -21,31 -9,43 11,10 24,-3 24,-24 z m -328,-151 c 4,-37 2,-48 -9,-48 -7,0 -16,7 -19,15 -9,22 -22,18 -38,-12 l -15,-28 -1,28 c 0,30 22,80 48,110 16,18 16,18 23,0 3,-10 8,-39 11,-65 z m 323,-48 c -21,-23 -35,-26 -35,-6 0,13 15,21 44,25 5,0 1,-8 -9,-19 z m 198,-22 c 16,-6 25,-14 20,-18 -11,-11 -123,-24 -123,-14 0,18 45,54 60,48 8,-3 28,-11 43,-16 z m -698,-56 c 0,-18 -20,-15 -23,4 -3,10 1,15 10,12 7,-3 13,-10 13,-16 z m 441,-59 c -10,-10 -19,5 -10,18 6,11 8,11 12,0 2,-7 1,-15 -2,-18 z m 1010,-38 c -30,-16 -56,-14 -56,5 0,5 19,10 43,10 h 42 z m -2180,-85 c 7,0 16,-4 19,-10 4,-6 -6,-10 -22,-10 -27,0 -29,3 -29,38 -1,36 -1,36 9,10 6,-16 16,-28 23,-28 z m 1598,36 60,7 -16,-25 c -16,-25 -16,-26 2,-21 16,4 26,-7 51,-61 28,-60 31,-74 25,-124 -4,-31 -7,-64 -8,-72 -1,-8 1,-44 5,-80 l 7,-65 h -124 c -87,0 -122,3 -115,11 5,6 4,36 -3,72 -15,80 1,154 47,221 l 34,50 -36,-15 c -49,-21 -142,-35 -177,-28 -29,6 -29,6 17,26 26,11 47,24 47,29 0,5 -16,19 -36,33 -35,23 -35,24 -13,31 45,14 124,21 148,13 13,-5 51,-6 85,-2 z m -911,-56 c 25,-27 47,-50 50,-50 2,0 21,14 42,30 42,34 55,37 55,15 0,-8 7,-15 15,-15 9,0 29,-7 45,-15 30,-15 30,-15 30,10 0,15 -5,35 -11,47 -14,25 -8,31 21,20 20,-7 26,-22 41,-97 10,-49 29,-110 43,-137 23,-43 24,-53 16,-105 -6,-32 -10,-101 -10,-153 0,-105 28,-300 44,-300 5,0 22,11 36,25 l 27,26 1,-35 c 1,-28 -3,-36 -21,-42 -12,-4 -42,-20 -66,-37 -36,-25 -43,-27 -37,-11 30,71 29,169 -2,169 -7,0 -22,15 -33,34 l -21,35 -19,-25 c -32,-41 -42,-88 -36,-162 l 6,-70 -25,36 c -31,47 -97,91 -156,105 -26,7 -49,12 -53,12 -10,0 43,-95 64,-114 27,-24 27,-34 0,-38 l -21,-3 21,-26 c 20,-26 20,-27 2,-32 -16,-4 -24,8 -46,72 -63,176 -121,249 -231,292 l -27,10 6,-71 c 7,-80 9,-78 -74,-54 -76,22 -162,70 -214,119 -69,64 -66,68 78,86 51,7 94,13 96,15 2,2 -4,15 -13,29 -9,14 -23,36 -32,49 l -15,24 85,1 c 159,2 232,51 151,103 -19,13 -35,25 -35,28 0,3 20,15 43,26 38,19 44,27 58,80 18,67 55,144 68,144 5,0 29,-22 54,-50 z m 1103,38 c 22,28 16,-1 -11,-56 -14,-29 -25,-56 -25,-62 0,-17 -19,-11 -30,10 -8,15 -6,33 6,71 15,45 18,49 32,35 14,-14 17,-13 28,2 z m 290,-47 c -15,-28 -30,-51 -34,-51 -7,0 -45,61 -40,64 55,27 94,43 96,41 2,-2 -8,-26 -22,-54 z m -1741,29 c -3,-5 -16,-15 -28,-21 -22,-12 -22,-12 -3,10 19,21 43,30 31,11 z m 774,-59 c 9,-6 11,-16 7,-27 -7,-18 -8,-18 -22,0 -23,32 -16,46 15,27 z m -664,-95 c -16,-53 -18,-56 -43,-50 -52,13 -112,47 -101,58 7,7 153,54 157,51 2,-2 -4,-28 -13,-59 z m 897,47 c 24,-9 45,-17 46,-19 2,-1 -19,-86 -47,-189 -48,-175 -54,-190 -94,-235 -23,-26 -44,-46 -46,-44 -2,1 5,24 15,51 15,38 19,75 19,178 -1,113 -4,139 -26,203 l -25,72 h 58 c 31,0 77,-7 100,-17 z m -1597,-33 c 19,-8 19,-9 -2,-9 -12,-1 -28,-3 -36,-6 -8,-4 -14,0 -14,10 0,16 21,19 52,5 z m 205,-14 c 0,-9 -30,-14 -35,-6 -4,6 3,10 14,10 12,0 21,-2 21,-4 z m -204,-50 c -4,-17 -2,-25 9,-28 10,-2 -3,-17 -36,-41 -28,-21 -52,-37 -54,-35 -1,2 13,31 32,66 35,63 60,82 49,38 z m -176,-15 c -32,-27 -36,-28 -53,-13 -9,8 -15,17 -12,20 4,4 60,17 90,21 5,0 -6,-12 -25,-28 z m 427,-1 c 26,-10 30,-17 39,-70 11,-65 6,-72 -33,-45 -13,9 -23,29 -25,52 -3,21 -8,46 -12,56 -9,20 -8,20 31,7 z m 2127,-51 c 38,-45 73,-113 83,-160 l 6,-30 28,27 c 35,34 55,27 69,-25 9,-33 15,-41 34,-41 23,0 23,-3 29,-112 5,-120 -4,-150 -33,-103 -20,33 -32,27 -52,-26 l -17,-44 v 43 c -1,49 20,106 51,139 18,19 19,25 8,38 -12,14 -16,10 -33,-37 -11,-29 -31,-70 -43,-90 -20,-30 -28,-36 -50,-32 l -26,5 21,-27 c 33,-42 28,-56 -14,-38 -19,7 -44,14 -55,14 -20,0 -20,-1 -3,-27 9,-16 26,-38 37,-50 11,-13 14,-23 8,-23 -7,0 -12,-7 -12,-15 0,-8 5,-15 10,-15 6,0 10,-4 10,-10 0,-17 -30,-11 -36,8 -15,44 -66,146 -85,170 -22,29 -86,72 -106,72 -16,0 -17,-42 -3,-89 5,-19 8,-36 6,-38 -2,-2 -16,3 -32,12 -16,8 -49,15 -73,15 -40,0 -43,-2 -38,-22 2,-13 7,-30 11,-39 6,-13 -5,-15 -86,-15 -94,1 -188,-18 -188,-37 0,-17 82,-87 130,-112 82,-42 189,-53 273,-29 10,3 -15,-27 -55,-68 l -73,-73 -61,31 c -34,17 -84,37 -113,45 -30,7 -69,28 -96,50 -25,21 -63,46 -85,56 -22,10 -40,21 -40,25 0,4 13,22 28,40 16,18 38,49 50,68 11,20 32,46 46,59 14,14 26,28 26,33 0,4 -18,20 -40,34 -22,15 -40,29 -39,33 0,3 26,19 58,34 32,16 82,49 110,74 58,50 126,144 111,153 -8,5 26,70 38,70 11,0 79,-56 151,-124 41,-39 71,-62 66,-51 -4,11 -10,52 -12,91 -4,57 -1,85 17,138 12,38 27,66 35,66 7,0 29,-19 49,-41 z m -2251,-21 c -6,-31 -6,-32 11,-15 10,9 20,17 23,17 15,0 106,-65 132,-95 33,-38 53,-122 32,-134 -12,-8 41,-62 127,-130 23,-19 42,-42 42,-51 0,-10 7,-34 16,-55 8,-20 13,-39 11,-42 -3,-2 -31,0 -63,6 -32,6 -73,11 -91,11 -36,0 -38,2 -23,30 12,22 7,26 -43,35 -34,7 -39,5 -44,-14 -7,-26 -14,-26 -47,0 -24,19 -31,20 -74,9 -69,-17 -154,-65 -207,-118 -47,-46 -48,-47 -40,-17 18,75 25,144 19,190 l -6,50 96,95 c 57,56 96,103 96,115 0,16 -3,14 -18,-10 -46,-74 -216,-181 -276,-173 l -26,3 28,60 c 33,69 144,179 191,188 15,3 48,22 72,41 57,45 70,46 62,4 z m 2145,0 c -6,-18 -28,-21 -28,-4 0,9 7,16 16,16 9,0 14,-5 12,-12 z M 1291,3577 c -10,-9 -11,-8 -5,6 3,10 9,15 12,12 3,-3 0,-11 -7,-18 z m -131,-437 c 0,-25 9,-81 18,-125 l 18,-80 26,28 26,27 6,-22 c 6,-24 3,-28 -67,-74 l -38,-24 8,22 c 4,13 8,43 8,68 -1,37 -7,51 -33,79 -31,32 -33,33 -47,15 -8,-10 -18,-37 -24,-59 l -9,-40 -1,58 c -1,63 22,121 67,170 31,33 41,22 42,-43 z m 2970,22 c 0,-5 -11,-14 -25,-20 -20,-9 -25,-9 -25,2 0,14 14,24 38,25 6,1 12,-3 12,-7 z m -1202,-68 c -25,-26 -51,-43 -57,-40 -15,10 -14,26 2,26 7,0 31,13 53,30 55,42 56,37 2,-16 z m 1297,-4 c -27,-28 -55,-40 -55,-22 0,6 68,50 79,52 3,0 -8,-13 -24,-30 z m -2534,-79 c 39,-28 93,-57 121,-67 l 49,-16 -8,-42 c -4,-22 -8,-89 -8,-147 v -107 l -26,19 c -14,10 -61,30 -104,44 -43,15 -92,37 -109,50 -17,12 -47,30 -66,40 -19,10 -36,19 -38,20 -4,3 51,80 95,134 l 27,33 -21,17 c -11,9 -29,21 -39,27 -17,10 -16,12 11,27 17,9 34,16 38,17 4,0 39,-22 78,-49 z m 2122,-1 c 5,-4 -7,-10 -27,-12 -20,-2 -36,-3 -36,-2 0,1 3,10 6,18 6,16 38,14 57,-4 z m -1155,-12 c 32,-20 33,-22 16,-35 -26,-19 -37,-16 -68,16 -20,21 -24,30 -14,34 23,9 30,8 66,-15 z m 1158,-53 c -5,-18 -2,-25 9,-25 17,0 19,-12 4,-27 -5,-5 -16,-31 -24,-57 -14,-47 -14,-47 8,-41 44,14 89,51 116,97 l 27,47 18,-40 c 12,-26 35,-53 64,-73 84,-57 120,-95 136,-143 29,-86 20,-105 -38,-83 -29,11 -31,5 -20,-62 4,-23 13,-38 24,-41 27,-7 71,-101 77,-163 l 6,-54 33,20 33,21 10,-38 c 13,-46 1,-95 -34,-147 -36,-52 -31,-54 16,-7 23,22 44,41 48,41 4,0 4,-28 0,-62 -3,-35 -4,-84 -1,-110 5,-46 5,-46 27,-32 20,13 22,13 20,-7 -1,-15 -13,-25 -40,-35 -45,-15 -51,-13 -36,14 13,25 15,82 2,82 -5,0 -11,9 -14,20 -7,29 -25,25 -47,-12 -21,-35 -27,-19 -10,26 10,29 0,35 -20,11 -8,-10 -21,-13 -37,-9 -23,6 -24,5 -13,-16 16,-30 6,-36 -36,-21 -30,11 -38,11 -44,0 -6,-8 -13,0 -25,27 -18,43 -72,104 -92,104 -12,0 -19,-42 -15,-91 1,-14 -7,-12 -47,9 l -47,26 40,58 c 22,32 46,58 53,58 16,0 87,-35 126,-62 32,-23 32,-22 7,33 -12,28 -20,66 -20,104 0,59 -2,62 -44,104 -25,24 -50,57 -57,73 -6,15 -12,28 -13,28 -1,0 -56,7 -121,15 -66,8 -125,15 -132,15 -6,0 -15,-15 -18,-32 -4,-18 -16,-50 -27,-72 -22,-44 -15,-56 35,-56 19,0 27,-5 27,-17 0,-10 18,-28 41,-41 l 41,-24 -58,-51 c -32,-29 -74,-69 -93,-90 -49,-52 -141,-189 -134,-200 3,-5 19,-6 35,-3 26,5 29,4 18,-9 -7,-8 -9,-15 -4,-15 5,0 1,-5 -8,-10 -11,-7 -26,-7 -43,0 -14,5 -41,10 -58,11 -29,0 -30,1 -13,12 11,7 35,26 54,43 30,27 35,37 36,82 1,31 -2,52 -9,52 -33,-1 -97,-43 -122,-81 l -28,-43 -6,65 c -5,64 -25,115 -52,137 -12,10 -16,8 -21,-10 -3,-13 -6,-42 -6,-66 0,-39 -2,-43 -20,-37 -16,5 -20,2 -20,-14 0,-12 -7,-21 -15,-21 -20,0 -20,3 20,100 40,98 47,197 19,252 l -16,30 -24,-23 c -14,-13 -35,-39 -46,-57 l -21,-34 -24,49 c -14,26 -29,66 -33,88 -4,22 -15,71 -23,108 -20,88 -16,100 26,83 18,-7 64,-23 102,-35 39,-12 108,-41 154,-63 l 84,-42 23,29 c 13,16 22,30 20,32 -1,1 -40,10 -87,18 -179,34 -368,107 -397,155 -8,12 -10,21 -5,19 4,-2 34,-17 64,-32 108,-54 232,-71 338,-46 24,5 46,8 48,5 3,-3 1,-19 -5,-35 -13,-37 -8,-38 62,-7 95,42 200,159 267,299 25,51 56,66 45,22 z m 322,-93 c 6,-36 10,-68 8,-70 -2,-2 -18,4 -35,13 -25,12 -31,22 -31,48 -1,17 -7,43 -15,57 -21,37 -19,39 24,28 38,-10 38,-10 49,-76 z m -2018,60 c -14,-9 -46,-36 -71,-59 -25,-24 -49,-43 -52,-43 -3,0 -31,25 -61,55 l -55,56 72,-6 c 39,-3 92,-2 117,3 67,14 78,13 50,-6 z m 228,-25 c -2,-16 3,-23 19,-25 l 23,-3 -24,-48 c -14,-26 -28,-65 -32,-87 -5,-27 -22,-56 -60,-97 -30,-32 -70,-92 -91,-135 l -37,-77 -7,55 c -4,30 -13,72 -20,93 -12,36 -11,39 18,70 44,47 105,132 152,215 40,69 65,86 59,39 z m 546,27 c 20,-8 11,-24 -15,-24 -10,0 -19,7 -19,15 0,16 9,19 34,9 z m -1543,-58 c -19,-19 -40,-32 -47,-29 -23,9 -16,18 29,40 56,29 56,28 18,-11 z m 1398,14 c 35,-9 40,-14 45,-48 13,-89 18,-152 11,-152 -4,0 -25,10 -46,22 -36,20 -39,25 -39,64 0,23 -9,63 -20,89 -16,37 -17,46 -6,42 8,-3 33,-11 55,-17 z m -193,-59 c -3,-5 -21,-14 -38,-20 l -33,-11 24,20 c 23,20 57,28 47,11 z M 900,2764 c 0,-2 -16,-4 -35,-4 -26,0 -33,4 -29,14 4,11 12,12 35,4 16,-5 29,-12 29,-14 z m 3473,-27 c 15,-6 16,-10 5,-27 -17,-27 -35,-25 -42,4 -3,13 -9,32 -13,43 -6,17 -5,17 13,2 10,-9 27,-19 37,-22 z m -1655,-41 c 33,-24 71,-59 85,-78 27,-34 51,-88 43,-95 -2,-2 -22,5 -44,16 l -40,21 -6,-28 c -8,-42 -6,-152 3,-152 4,0 18,-26 31,-57 17,-42 45,-79 97,-131 l 73,-73 -77,3 -77,3 -20,65 -20,65 -8,-50 c -13,-90 -17,-98 -41,-90 -63,19 -97,26 -147,32 -64,6 -61,5 -51,22 7,11 16,11 41,3 l 31,-11 -22,36 c -28,44 -27,118 2,174 10,21 19,40 19,43 0,3 -22,8 -50,12 -27,4 -50,12 -50,18 0,6 18,36 41,66 49,65 83,130 98,188 7,23 16,42 20,42 5,0 36,-20 69,-44 z m 1758,-21 c -9,-14 -24,-25 -33,-25 -13,0 -10,7 12,30 33,35 45,32 21,-5 z m -3219,-85 c 7,-41 10,-76 8,-78 -2,-3 -19,4 -37,15 -28,16 -34,26 -38,64 -3,24 -11,54 -18,66 -18,32 -16,33 30,19 l 43,-12 z m 3202,-11 c 47,-17 38,-43 -16,-47 -50,-4 -83,11 -83,38 0,16 7,20 34,20 18,0 47,-5 65,-11 z m -2609,-39 c 0,-5 -8,-10 -17,-10 -15,0 -16,2 -3,10 19,12 20,12 20,0 z m 2467,-72 c 28,-26 29,-38 3,-38 -18,0 -40,26 -40,49 0,17 11,13 37,-11 z m 133,-48 c 8,-5 11,-12 7,-16 -4,-4 -15,0 -24,9 -18,18 -8,23 17,7 z m 60,-40 c 0,-14 -14,-12 -28,2 -19,19 -14,30 8,18 11,-6 20,-15 20,-20 z M 720,2122 c -23,-12 -41,-15 -52,-10 -33,16 -18,28 35,28 h 52 z m 1577,-12 c -7,-18 -19,-30 -29,-30 -24,0 -23,9 4,37 29,31 38,29 25,-7 z m 858,-60 c 22,-42 19,-44 -21,-14 -36,28 -36,31 3,43 1,1 9,-12 18,-29 z m 671,-27 c -3,-3 -13,-3 -22,1 -13,5 -14,9 -3,22 11,14 13,14 22,-1 5,-9 6,-19 3,-22 z m -696,-38 c 10,-13 9,-15 -8,-15 -24,0 -37,-15 -22,-25 18,-11 11,-23 -18,-30 -15,-3 -46,-16 -67,-30 l -40,-24 37,-15 c 47,-20 128,-20 175,-1 19,8 37,15 39,15 2,0 -4,-17 -13,-37 -15,-37 -15,-144 0,-159 9,-10 46,25 64,60 8,16 17,63 20,105 3,42 7,78 9,80 9,10 33,-23 49,-67 10,-26 31,-65 46,-88 15,-22 31,-53 35,-69 6,-25 5,-26 -15,-16 -16,9 -21,9 -21,-1 -1,-7 -9,2 -18,20 l -18,33 -21,-23 c -32,-36 -86,-117 -128,-193 -21,-38 -45,-78 -53,-87 -25,-30 -26,-268 -1,-268 6,0 32,21 59,46 l 50,47 v -35 c 0,-20 -14,-63 -32,-99 -29,-55 -37,-64 -60,-64 -26,1 -27,0 -13,-22 8,-12 15,-24 15,-27 0,-2 -24,-4 -53,-3 -48,1 -56,4 -78,33 -26,36 -68,64 -93,64 -14,0 -16,-7 -11,-37 4,-21 9,-46 12,-55 5,-22 4,-22 -35,-2 -34,16 -98,16 -96,-1 1,-5 5,-20 9,-32 6,-22 5,-23 -72,-23 -77,0 -148,-13 -157,-29 -3,-5 8,-21 24,-37 16,-16 30,-32 30,-36 0,-13 -169,-9 -193,3 -12,7 -24,13 -26,15 -5,4 44,79 72,111 19,21 19,22 -13,38 -29,15 -30,18 -15,29 15,11 12,14 -26,25 -24,7 -63,23 -86,36 l -41,23 -22,-22 -22,-21 6,29 c 6,25 0,36 -54,91 -58,62 -60,63 -66,38 -9,-34 2,-183 17,-233 11,-37 14,-39 29,-25 15,14 18,14 23,1 6,-15 1,-20 -45,-49 l -28,-17 7,45 c 5,39 3,49 -16,66 -11,11 -21,24 -21,29 0,6 -5,10 -11,10 -19,0 -40,-68 -33,-112 4,-34 3,-39 -6,-25 -17,27 -86,67 -116,67 -26,0 -26,-1 -10,-25 13,-20 14,-25 2,-25 -7,0 -20,14 -27,32 -7,18 -31,50 -52,71 -37,37 -39,38 -58,21 -10,-9 -19,-27 -19,-38 0,-18 -6,-21 -40,-21 -22,0 -40,4 -40,10 0,6 -15,16 -33,23 -19,7 -51,27 -73,46 -33,29 -36,35 -21,41 9,4 17,11 17,17 0,5 11,24 24,41 13,18 42,68 63,112 21,44 65,130 98,190 l 60,110 9,-42 c 5,-24 13,-43 19,-43 18,0 80,74 103,125 17,35 24,68 24,110 v 60 l 31,-33 c 50,-53 101,-82 159,-89 52,-6 52,-6 45,18 -21,69 -63,114 -150,164 -55,31 -56,32 -38,53 16,19 32,21 168,27 135,5 148,4 131,-9 -10,-8 -24,-17 -30,-20 -7,-3 -6,-8 4,-15 10,-7 2,-11 -33,-13 l -47,-3 31,-60 c 31,-58 54,-93 133,-209 81,-120 231,-234 354,-270 63,-18 64,-15 31,85 -54,165 -174,330 -278,384 -17,8 -31,17 -31,19 0,2 19,0 43,-5 35,-6 51,-3 97,18 46,22 73,27 167,31 l 112,4 44,42 c 38,35 106,71 143,75 6,0 17,-6 24,-14 z m 1315,-115 c -11,-18 -43,-31 -50,-20 -3,6 4,14 17,19 31,13 40,13 33,1 z m -2595,-24 c 0,-3 -4,-8 -10,-11 -5,-3 -10,-1 -10,4 0,6 5,11 10,11 6,0 10,-2 10,-4 z m -40,-33 c 0,-5 -23,-20 -50,-34 -28,-15 -50,-23 -50,-19 0,5 4,11 10,15 5,3 7,12 4,20 -4,9 4,15 28,18 18,2 39,5 46,5 6,1 12,-1 12,-5 z m 1740,-28 35,-13 -32,-1 c -18,-1 -36,-1 -40,-2 -5,0 -9,7 -11,15 -4,19 2,19 48,1 z M 860,1670 c 0,-23 -10,-26 -28,-8 -18,18 -15,28 8,28 13,0 20,-7 20,-20 z m 705,-87 c -19,-32 -35,-63 -35,-69 0,-6 -33,-41 -74,-78 l -74,-66 40,-77 c 21,-43 42,-97 45,-120 l 6,-43 -49,17 c -67,22 -207,162 -224,221 -6,23 -26,62 -45,87 -44,57 -44,69 -4,60 18,-4 29,-3 26,2 -3,5 30,9 76,9 99,0 197,28 277,78 30,19 58,34 62,35 4,1 -8,-25 -27,-56 z m -546,-2 c 12,-8 11,-13 -10,-30 -20,-16 -25,-17 -27,-5 -4,19 5,44 15,44 4,0 15,-4 22,-9 z m 2450,-204 c 23,-37 116,-127 132,-127 23,0 3,-22 -64,-74 -40,-31 -75,-56 -78,-56 -2,0 -4,44 -4,98 0,78 -5,109 -24,160 -14,37 -29,61 -35,59 -9,-4 -10,7 -2,44 l 10,49 21,-58 c 12,-32 31,-75 44,-95 z m 552,70 c -29,-30 -34,-17 -8,23 18,28 22,31 25,16 2,-10 -5,-28 -17,-39 z M 1008,1324 c -2,-1 -9,1 -16,5 -9,5 -11,17 -6,37 l 8,29 8,-34 c 5,-18 8,-35 6,-37 z m 62,39 c 0,-20 -24,-11 -28,10 -2,12 1,15 12,11 9,-3 16,-13 16,-21 z m 2996,-15 c 11,-17 -26,-38 -69,-38 -40,0 -77,14 -77,30 0,18 135,26 146,8 z m -745,-78 c -7,-32 -8,-33 -15,-12 -5,14 -3,29 5,38 16,20 19,15 10,-26 z m 607,-39 c 16,-20 15,-41 -2,-41 -23,0 -46,29 -46,57 0,23 2,24 18,12 9,-7 23,-20 30,-28 z m 178,-46 c 25,-19 6,-19 -37,0 -32,13 -32,14 -8,15 14,0 34,-7 45,-15 z m -787,-150 c -7,-7 -16,-2 -28,14 l -19,25 -20,-40 c -20,-38 -21,-38 -22,-11 0,38 26,96 58,130 l 27,28 7,-68 c 4,-41 3,-72 -3,-78 z M 2318,894 c -16,-16 -31,-23 -38,-19 -9,6 -2,14 21,26 46,24 48,23 17,-7 z m 1152,1 c -7,-8 -20,-15 -29,-15 -13,1 -13,3 3,15 26,19 42,19 26,0 z m 140,-35 c 0,-5 -2,-10 -4,-10 -3,0 -8,5 -11,10 -3,6 -1,10 4,10 6,0 11,-4 11,-10 z M 3106,735 c 18,-14 18,-14 -8,-15 -18,0 -28,5 -28,15 0,19 11,19 36,0 z"
       id="path29"
       style="fill:#127312;fill-opacity:1" />
    <path
       d="m 2939,1706 -75,-11 15,-63 16,-63 32,45 c 18,25 48,55 67,68 33,21 47,40 29,37 -5,-1 -42,-7 -84,-13 z"
       id="path30"
       style="fill:#127312;fill-opacity:1" />
    <path
       d="m 3080,1460 c 0,-5 5,-10 11,-10 5,0 7,5 4,10 -3,6 -8,10 -11,10 -2,0 -4,-4 -4,-10 z"
       id="path31"
       style="fill:#127312;fill-opacity:1" />
    <path
       d="m 2981,1340 -34,-29 18,-73 c 23,-95 23,-95 82,-122 l 50,-24 -33,49 c -35,52 -58,140 -52,195 2,19 4,34 3,34 0,-1 -15,-14 -34,-30 z"
       id="path32"
       style="fill:#127312;fill-opacity:1" />
    <path
       d="m 2526,1154 c 8,-83 10,-87 34,-74 27,15 92,102 83,111 -5,5 -34,11 -66,15 l -58,7 z"
       id="path33"
       style="fill:#127312;fill-opacity:1" />
    <path
       d="m 1265,1470 c 3,-5 8,-10 11,-10 2,0 4,5 4,10 0,6 -5,10 -11,10 -5,0 -7,-4 -4,-10 z"
       id="path34"
       style="fill:#127312;fill-opacity:1" />
    <path
       d="m 2294,4499 c -9,-10 -9,-21 -1,-39 10,-25 10,-25 14,-2 3,12 3,30 1,39 -3,14 -5,14 -14,2 z"
       id="path35"
       style="fill:#127312;fill-opacity:1" />
    <path
       d="m 2447,4470 c 6,-21 18,-26 28,-11 3,6 -3,15 -14,20 -16,9 -18,8 -14,-9 z"
       id="path36"
       style="fill:#127312;fill-opacity:1" />
    <path
       d="m 2324,4353 5,-32 -34,15 c -19,8 -45,14 -57,13 -13,0 6,-10 42,-23 36,-12 74,-26 85,-31 19,-8 19,-7 4,11 -9,10 -24,33 -33,49 l -17,30 z"
       id="path37"
       style="fill:#127312;fill-opacity:1" />
    <path
       d="m 717,3342 c -61,-37 -36,-102 40,-102 30,0 34,3 28,18 -4,9 -10,36 -12,60 -6,46 -14,50 -56,24 z"
       id="path38"
       style="fill:#127312;fill-opacity:1" />
    <path
       d="m 786,3201 c -3,-4 4,-17 15,-27 18,-16 18,-19 4,-24 -11,-4 -3,-12 29,-28 l 45,-21 -34,45 c -19,25 -35,50 -35,55 0,11 -17,12 -24,0 z"
       id="path39"
       style="fill:#127312;fill-opacity:1" />
    <path
       d="m 1128,2204 c -32,-45 -63,-112 -55,-121 2,-2 30,12 62,31 31,19 62,37 68,39 14,4 2,49 -21,77 l -18,23 z"
       id="path40"
       style="fill:#127312;fill-opacity:1" />
    <path
       d="m 3160,531 c 0,-5 -22,-26 -50,-47 -27,-20 -47,-41 -44,-45 3,-5 21,-13 40,-18 70,-19 111,24 84,89 -12,28 -30,41 -30,21 z"
       id="path41"
       style="fill:#127312;fill-opacity:1" />
    <path
       d="m 1858,427 c -33,-13 -37,-27 -8,-27 10,0 24,9 30,20 6,11 9,20 8,19 -2,-1 -15,-6 -30,-12 z"
       id="path42"
       style="fill:#127312;fill-opacity:1" />
  </g>
</svg>
