<?xml version="1.0" encoding="UTF-8"?>
<svg width="752pt" height="752pt" version="1.1" viewBox="0 0 752 752" xmlns="http://www.w3.org/2000/svg">
 <path d="m376 181.83c-63.719 0-115.42 50.555-117.95 113.66h-80.953c-2.6172 0-4.7344 2.1211-4.7344 4.7344v265.21c0 2.6133 2.1172 4.7344 4.7344 4.7344h397.81c2.6133 0 4.7344-2.1211 4.7344-4.7344v-265.21c0-2.6133-2.1211-4.7344-4.7344-4.7344h-80.953c-2.5312-63.105-54.23-113.66-117.95-113.66zm0 9.4727c60.215 0 108.92 48.711 108.92 108.92h0.003906c0 2.6172 2.1211 4.7344 4.7344 4.7344h80.508v255.73h-146.81v-127.87c0-2.6133-2.1211-4.7344-4.7344-4.7344h-85.246c-2.6133 0-4.7344 2.1211-4.7344 4.7344v127.87h-146.81v-255.73h80.508c2.6133 0 4.7344-2.1172 4.7344-4.7344 0-60.215 48.711-108.92 108.92-108.92zm-14.207 23.68v33.152h-33.152v28.414h33.152v33.152h28.414v-33.152h33.152v-28.414h-33.152v-33.152zm-146.81 118.39c-2.6172 0-4.7344 2.1211-4.7344 4.7344v56.828c0 2.6172 2.1172 4.7383 4.7344 4.7383h85.246-0.003907c2.6172 0 4.7383-2.1211 4.7383-4.7383v-56.828c0-2.6133-2.1211-4.7344-4.7383-4.7344h-85.246zm118.39 0c-2.6133 0-4.7344 2.1211-4.7344 4.7344v56.828c0 2.6172 2.1211 4.7383 4.7344 4.7383h85.246c2.6133 0 4.7344-2.1211 4.7344-4.7383v-56.828c0-2.6133-2.1211-4.7344-4.7344-4.7344zm118.39 0c-2.6133 0-4.7344 2.1211-4.7344 4.7344v56.828c0 2.6172 2.1211 4.7383 4.7344 4.7383h85.246c2.6133 0 4.7344-2.1211 4.7344-4.7383v-56.828c0-2.6133-2.1211-4.7344-4.7344-4.7344zm-232.05 9.4727h75.773v47.359h-75.773zm118.39 0h75.773v47.359h-75.773zm118.39 0h75.773v47.359h-75.773zm-241.53 85.246 0.003906-0.003906c-2.6172 0-4.7344 2.1211-4.7344 4.7344v56.832c0 2.6133 2.1172 4.7344 4.7344 4.7344h85.246-0.003907c2.6172 0 4.7383-2.1211 4.7383-4.7344v-56.832c0-2.6133-2.1211-4.7344-4.7383-4.7344h-85.246zm236.79 0 0.003907-0.003906c-2.6133 0-4.7344 2.1211-4.7344 4.7344v56.832c0 2.6133 2.1211 4.7344 4.7344 4.7344h85.246c2.6133 0 4.7344-2.1211 4.7344-4.7344v-56.832c0-2.6133-2.1211-4.7344-4.7344-4.7344h-85.246zm-232.05 9.4727h75.773v47.359h-75.773zm118.39 0h75.773v123.13h-75.773zm118.39 0h75.773v47.359h-75.773z"/>
</svg>
