<?xml version="1.0" encoding="UTF-8" standalone="no"?>
<!-- Created with Inkscape (http://www.inkscape.org/) -->

<svg
   version="1.1"
   id="svg1"
   width="126"
   height="138"
   viewBox="0 0 126 138"
   sodipodi:docname="igrej_fl.svg"
   inkscape:version="1.3 (0e150ed6c4, 2023-07-21)"
   xmlns:inkscape="http://www.inkscape.org/namespaces/inkscape"
   xmlns:sodipodi="http://sodipodi.sourceforge.net/DTD/sodipodi-0.dtd"
   xmlns="http://www.w3.org/2000/svg"
   xmlns:svg="http://www.w3.org/2000/svg">
  <defs
     id="defs1" />
  <sodipodi:namedview
     id="namedview1"
     pagecolor="#ffffff"
     bordercolor="#000000"
     borderopacity="0.25"
     inkscape:showpageshadow="2"
     inkscape:pageopacity="0.0"
     inkscape:pagecheckerboard="0"
     inkscape:deskcolor="#d1d1d1"
     showgrid="false"
     inkscape:zoom="3.8487611"
     inkscape:cx="61.578257"
     inkscape:cy="52.874158"
     inkscape:window-width="1920"
     inkscape:window-height="986"
     inkscape:window-x="-11"
     inkscape:window-y="-11"
     inkscape:window-maximized="1"
     inkscape:current-layer="g1" />
  <g
     inkscape:groupmode="layer"
     inkscape:label="Image"
     id="g1">
    <g
       id="g2">
      <g
         id="g12">
        <path
           style="fill:#1a1a1a;fill-opacity:1;stroke-width:7.55906;stroke-dasharray:none"
           d="m 48.284922,58.413683 15.067911,-12.86285 15.25166,13.046605 v 40.242347 l -7.90146,0.18375 -2.02131,-2.94008 H 57.288917 l -1.47004,3.12384 -7.166445,-0.18376 z"
           id="path3" />
        <path
           style="fill:#1a1a1a;fill-opacity:1;stroke-width:7.55906;stroke-dasharray:none"
           d="m 33.30889,80.556159 13.138482,-11.392809 0.09188,29.952065 -13.414115,-0.0919 z"
           id="path4" />
        <path
           style="fill:#1a1a1a;fill-opacity:1;stroke-width:7.55906;stroke-dasharray:none"
           d="m 93.543243,80.534854 -13.13848,-11.392809 -0.0919,29.95207 13.41412,-0.0919 z"
           id="path4-2" />
        <path
           style="fill:#1a1a1a;fill-opacity:1;stroke-width:7.559;stroke-dasharray:none;paint-order:stroke markers fill"
           d="M 25.95869,80.923669 46.631127,63.6507 v 2.94008 L 27.153098,82.485587 Z"
           id="path5" />
        <path
           style="fill:#1a1a1a;fill-opacity:1;stroke-width:7.559;stroke-dasharray:none;paint-order:stroke markers fill"
           d="M 100.94404,81.09544 80.271603,63.822471 v 2.94008 l 19.47803,15.894807 z"
           id="path5-2" />
        <path
           style="fill:#1a1a1a;fill-opacity:1;stroke-width:7.559;stroke-dasharray:none;paint-order:stroke markers fill"
           d="m 40.65909,59.102764 -0.137816,0.780959 0.183755,0.505326 0.275632,0.36751 0.643143,0.09188 20.810249,-17.364847 0.36751,-0.229693 0.50533,-0.04594 0.68908,0.137816 21.17776,17.410786 0.59721,-0.09188 0.45938,-0.459387 0.13782,-0.321571 -0.0919,-0.643143 -22.14248,-18.605193 0.0459,-8.039281 0.27564,-0.36751 0.27563,-0.459387 3.72104,0.04594 0.22969,-0.275632 v -0.597204 l -0.18375,-0.413449 -3.85886,0.04594 -0.18375,-0.275632 -0.27564,-0.321572 -0.18375,-4.272303 c 0,0 -0.27563,-0.36751 -0.45939,-0.36751 -0.18375,0 -0.78096,0 -0.78096,0 l -0.18375,0.275632 v 3.766978 l -0.13782,0.183755 -0.13782,0.183755 -0.18375,0.505326 0.046,0.183752 -3.858855,-0.137816 -0.183755,0.36751 v 0.551265 l 0.229694,0.551265 0.551265,0.229693 3.491341,-0.04594 0.18376,0.36751 0.18375,0.505326 0.0459,7.71771 z"
           id="path6" />
        <path
           style="fill:#f9f9f9;fill-opacity:1;stroke-width:0.491002;stroke-dasharray:none;paint-order:stroke markers fill"
           d="m 58.271025,87.425281 c 0.0249,-6.375605 7.58e-4,-6.035092 0.500859,-7.063961 0.614283,-1.263777 1.807807,-2.224827 3.148125,-2.534934 0.577124,-0.133529 1.574604,-0.133529 2.151724,0 0.9532,0.220539 1.95018,0.849086 2.58088,1.627124 0.54331,0.670221 1.01612,1.822179 1.01913,2.482992 5.3e-4,0.116109 0.0302,0.211107 0.0659,0.211107 0.0428,0 0.065,1.872897 0.065,5.488779 v 5.488779 h -4.77694 -4.776921 z"
           id="path8" />
        <path
           style="fill:#f9f9f9;fill-opacity:1;stroke-width:0.392311;stroke-dasharray:none;paint-order:stroke markers fill"
           d="m 59.559487,62.499373 c 0.01847,-5.488114 5.62e-4,-5.195001 0.371458,-6.08065 0.455577,-1.087858 1.340743,-1.915129 2.334778,-2.182069 0.42802,-0.114941 1.16779,-0.114941 1.59581,0 0.70693,0.18984 1.44633,0.730893 1.91409,1.400627 0.40293,0.576926 0.75359,1.56853 0.75582,2.137357 3.9e-4,0.09995 0.0224,0.181721 0.0489,0.181721 0.0317,0 0.0482,1.612187 0.0482,4.724735 v 4.724735 h -3.54277 -3.542767 z"
           id="path9" />
        <path
           style="fill:#1a1a1a;fill-opacity:1;stroke-width:7.559;stroke-dasharray:none;paint-order:stroke markers fill"
           d="m 58.590284,97.368993 9.223747,-0.0649 5.781081,9.288697 H 53.069027 Z"
           id="path10" />
        <rect
           style="fill:#f9f9f9;fill-opacity:1;stroke-width:15.621;stroke-dasharray:none;paint-order:stroke markers fill"
           id="rect10"
           width="11.172426"
           height="2.1435471"
           x="57.615944"
           y="98.668114"
           ry="0.56741291"
           rx="1.6238992" />
        <rect
           style="fill:#f9f9f9;fill-opacity:1;stroke-width:17.6861;stroke-dasharray:none;paint-order:stroke markers fill"
           id="rect11"
           width="13.900577"
           height="2.208503"
           x="56.446739"
           y="101.33131"
           ry="0.58460724"
           rx="2.0204327" />
        <rect
           style="fill:#f9f9f9;fill-opacity:1;stroke-width:19.4945;stroke-dasharray:none;paint-order:stroke markers fill"
           id="rect12"
           width="16.888552"
           height="2.208503"
           x="54.952751"
           y="103.92955"
           ry="0.58460724"
           rx="2.4547312" />
      </g>
      <circle
         style="fill:#1a1a1a;stroke-width:7.559;paint-order:stroke markers fill"
         id="path1"
         cx="63.315613"
         cy="30.888466"
         r="1.8142668" />
    </g>
  </g>
</svg>
