<?xml version="1.0" encoding="UTF-8"?>
<!DOCTYPE svg PUBLIC "-//W3C//DTD SVG 1.1//EN" "http://www.w3.org/Graphics/SVG/1.1/DTD/svg11.dtd">
<svg xmlns="http://www.w3.org/2000/svg" version="1.1" width="368px" height="358px" style="shape-rendering:geometricPrecision; text-rendering:geometricPrecision; image-rendering:optimizeQuality; fill-rule:evenodd; clip-rule:evenodd" xmlns:xlink="http://www.w3.org/1999/xlink">
<g><path style="opacity:0.939" fill="#323232" d="M 163.5,6.5 C 182.032,5.21078 200.366,5.21078 218.5,6.5C 218.5,6.83333 218.5,7.16667 218.5,7.5C 200.09,7.81955 181.757,7.48622 163.5,6.5 Z"/></g>
<g><path style="opacity:1" fill="#020202" d="M 163.5,6.5 C 181.757,7.48622 200.09,7.81955 218.5,7.5C 219.5,7.5 220.5,7.5 221.5,7.5C 221.333,18.8382 221.5,30.1716 222,41.5C 223.465,43.915 225.632,44.915 228.5,44.5C 231.285,46.4033 234.285,48.2366 237.5,50C 240.117,50.8215 242.784,51.3215 245.5,51.5C 247.032,53.4562 249.199,54.4562 252,54.5C 255.082,54.2515 256.582,52.5849 256.5,49.5C 257.5,49.5 258.5,49.5 259.5,49.5C 259.281,48.325 259.614,47.325 260.5,46.5C 262.91,43.7185 265.743,41.3852 269,39.5C 269.483,38.552 269.649,37.552 269.5,36.5C 272.167,35.8333 273.833,34.1667 274.5,31.5C 275.552,31.3505 276.552,31.5172 277.5,32C 284.089,39.0947 291.089,45.5947 298.5,51.5C 299.167,54.1667 300.833,55.8333 303.5,56.5C 304.833,59.8333 307.167,62.1667 310.5,63.5C 310.833,66.5 312.5,68.1667 315.5,68.5C 317.167,69.5 318.5,70.8333 319.5,72.5C 320.833,75.8333 323.167,78.1667 326.5,79.5C 328.428,81.7808 329.428,84.4475 329.5,87.5C 326.5,91.1667 323.167,94.5 319.5,97.5C 317.167,97.8333 315.833,99.1667 315.5,101.5C 314.167,101.5 313.5,102.167 313.5,103.5C 313.167,104.5 312.5,105.167 311.5,105.5C 307.854,106.462 306.687,108.795 308,112.5C 308.383,113.056 308.883,113.389 309.5,113.5C 311.679,117.203 313.345,121.203 314.5,125.5C 314.157,127.483 314.824,128.817 316.5,129.5C 317.458,131.302 318.125,133.302 318.5,135.5C 318.5,136.5 318.5,137.5 318.5,138.5C 330.5,138.5 342.5,138.5 354.5,138.5C 354.5,164.167 354.5,189.833 354.5,215.5C 342.12,214.854 330.12,215.521 318.5,217.5C 318.5,218.167 318.167,218.5 317.5,218.5C 315.271,221.354 313.938,224.687 313.5,228.5C 313.5,229.167 313.5,229.833 313.5,230.5C 311.952,230.821 311.285,231.821 311.5,233.5C 311.5,233.833 311.5,234.167 311.5,234.5C 309.744,235.552 309.077,237.219 309.5,239.5C 308.391,239.443 307.391,239.11 306.5,238.5C 304.675,234.676 301.675,232.343 297.5,231.5C 297.027,230.094 296.027,229.427 294.5,229.5C 293.735,227.071 292.069,225.738 289.5,225.5C 288.5,225.167 287.833,224.5 287.5,223.5C 286.657,221.827 285.324,220.66 283.5,220C 284.252,219.329 284.586,218.496 284.5,217.5C 286.163,215.562 286.829,213.228 286.5,210.5C 286.5,209.833 286.833,209.5 287.5,209.5C 288.924,207.485 289.59,205.152 289.5,202.5C 291.04,200.162 291.706,197.495 291.5,194.5C 293.746,182.873 294.079,171.04 292.5,159C 292.453,156.705 291.787,154.871 290.5,153.5C 290.738,148.554 289.404,144.221 286.5,140.5C 286.5,140.167 286.5,139.833 286.5,139.5C 286.016,135.099 284.35,131.433 281.5,128.5C 281.614,125.784 280.614,123.784 278.5,122.5C 278.759,120.011 277.759,118.344 275.5,117.5C 274.833,117.5 274.5,117.167 274.5,116.5C 272.253,111.262 268.92,106.929 264.5,103.5C 261.833,101.5 259.5,99.1667 257.5,96.5C 256.738,94.7376 255.404,93.7376 253.5,93.5C 252.73,91.0646 251.063,89.7313 248.5,89.5C 246.223,88.5514 244.223,87.2181 242.5,85.5C 241.71,84.5987 240.71,83.9321 239.5,83.5C 237.388,81.2295 234.721,79.8961 231.5,79.5C 227.203,78.3454 223.203,76.6787 219.5,74.5C 218.432,73.5655 217.099,73.2322 215.5,73.5C 213.485,72.0762 211.152,71.4095 208.5,71.5C 204.733,70.2053 200.733,69.5387 196.5,69.5C 195.833,69.5 195.167,69.5 194.5,69.5C 187.5,68.1667 180.5,68.1667 173.5,69.5C 172.833,69.5 172.167,69.5 171.5,69.5C 167.575,69.4299 163.909,70.0966 160.5,71.5C 159.609,72.1098 158.609,72.4431 157.5,72.5C 151.602,72.2066 146.602,73.8732 142.5,77.5C 140.102,77.2594 138.102,77.9261 136.5,79.5C 135.232,81.047 133.565,82.047 131.5,82.5C 129.821,82.2852 128.821,82.9519 128.5,84.5C 125.966,84.2591 124.3,85.2591 123.5,87.5C 121.821,87.2852 120.821,87.9519 120.5,89.5C 119.71,90.4013 118.71,91.0679 117.5,91.5C 113.344,91.3203 111.01,93.3203 110.5,97.5C 110.5,98.1667 110.167,98.5 109.5,98.5C 106.588,100.066 103.921,102.066 101.5,104.5C 100.754,105.736 100.421,107.07 100.5,108.5C 99.8333,108.5 99.5,108.833 99.5,109.5C 98.5041,109.586 97.6708,109.252 97,108.5C 96.187,110.436 95.687,112.436 95.5,114.5C 94.5254,116.795 93.1921,118.795 91.5,120.5C 90.0937,120.973 89.427,121.973 89.5,123.5C 89.1667,124.167 88.8333,124.833 88.5,125.5C 86.8958,126.287 86.2291,127.62 86.5,129.5C 83.2204,136.704 80.5537,144.037 78.5,151.5C 77.087,154.219 76.4203,157.219 76.5,160.5C 73.8333,170.167 73.8333,179.833 76.5,189.5C 77.9168,192.998 78.5835,196.665 78.5,200.5C 78.4095,203.152 79.0762,205.485 80.5,207.5C 80.0773,209.781 80.744,211.448 82.5,212.5C 84.5377,216.262 86.2044,220.262 87.5,224.5C 87.3285,226.492 87.9951,228.158 89.5,229.5C 89.2907,230.086 88.9574,230.586 88.5,231C 89.9007,231.41 91.234,231.91 92.5,232.5C 92.7497,234.674 93.7497,236.341 95.5,237.5C 96.3629,238.94 96.3629,240.274 95.5,241.5C 97.1386,242.322 98.8053,242.989 100.5,243.5C 104.833,248.5 109.5,253.167 114.5,257.5C 115.265,259.929 116.931,261.262 119.5,261.5C 121.368,262.263 123.035,263.263 124.5,264.5C 126.61,267.729 129.61,269.729 133.5,270.5C 135.176,272.834 137.509,273.834 140.5,273.5C 141.895,275.379 143.895,276.379 146.5,276.5C 149.53,278.13 152.863,279.13 156.5,279.5C 159.273,280.657 162.273,281.324 165.5,281.5C 167.284,280.28 168.95,280.28 170.5,281.5C 170.611,282.117 170.944,282.617 171.5,283C 179.833,283.667 188.167,283.667 196.5,283C 201.801,282.59 206.801,281.423 211.5,279.5C 214.992,279.554 217.992,278.554 220.5,276.5C 220.833,276.5 221.167,276.5 221.5,276.5C 223.937,276.244 226.271,275.577 228.5,274.5C 229.852,275.524 231.185,276.524 232.5,277.5C 233.75,281.086 236.084,283.752 239.5,285.5C 240.833,286.167 241.833,287.167 242.5,288.5C 244.056,291.736 246.056,294.736 248.5,297.5C 246.668,298.057 245.335,299.057 244.5,300.5C 243.329,301.345 241.995,302.011 240.5,302.5C 238.302,302.12 236.635,302.787 235.5,304.5C 234.791,305.404 233.791,305.737 232.5,305.5C 229.729,305.421 227.063,305.921 224.5,307C 223.748,307.671 223.414,308.504 223.5,309.5C 222.883,309.611 222.383,309.944 222,310.5C 221.5,321.495 221.333,332.495 221.5,343.5C 195.5,343.5 169.5,343.5 143.5,343.5C 142.505,332.012 142.172,320.345 142.5,308.5C 138.605,304.252 133.605,302.252 127.5,302.5C 125.013,301.677 122.679,300.677 120.5,299.5C 117.997,298.237 115.664,298.737 113.5,301C 109.806,305.36 105.806,309.36 101.5,313C 102.056,313.383 102.389,313.883 102.5,314.5C 101.417,314.539 100.417,314.873 99.5,315.5C 97.1125,318.058 94.6125,320.391 92,322.5C 87.1689,317.152 81.6689,312.819 75.5,309.5C 75.1077,307.821 74.6077,306.154 74,304.5C 70.9045,301.547 67.4045,299.214 63.5,297.5C 63.1667,294.5 61.5,292.833 58.5,292.5C 57.3036,289.457 55.4703,286.791 53,284.5C 51.1947,282.518 49.028,281.184 46.5,280.5C 45.588,278.405 44.4213,276.405 43,274.5C 41.9887,273.663 40.8221,273.33 39.5,273.5C 39.1075,271.716 38.4408,270.05 37.5,268.5C 44.1667,261.167 51.1667,254.167 58.5,247.5C 62.6466,246.4 63.3133,244.4 60.5,241.5C 60.1667,238.833 59.8333,236.167 59.5,233.5C 58.5,233.5 57.5,233.5 56.5,233.5C 56.1667,232.167 55.8333,230.833 55.5,229.5C 54.5013,225.858 53.3347,222.191 52,218.5C 51.1841,217.177 50.0174,216.511 48.5,216.5C 37.1667,215.833 25.8333,215.167 14.5,214.5C 15.4977,189.672 15.831,164.672 15.5,139.5C 27.0123,139.828 38.3456,139.495 49.5,138.5C 49.5,138.167 49.5,137.833 49.5,137.5C 50.658,134.011 51.9914,130.678 53.5,127.5C 54.9312,126.097 56.0978,124.431 57,122.5C 57.49,121.207 57.6567,119.873 57.5,118.5C 57.7239,116.213 58.3906,114.047 59.5,112C 59.1377,110.775 58.6377,109.609 58,108.5C 52.9635,103.631 48.1302,98.6313 43.5,93.5C 42.8333,92.1667 41.8333,91.1667 40.5,90.5C 39.8333,89.1667 38.8333,88.1667 37.5,87.5C 36.5,87.1667 35.8333,86.5 35.5,85.5C 36.925,84.078 37.925,82.4113 38.5,80.5C 44.1082,76.561 49.1082,71.8943 53.5,66.5C 55.1667,65.5 56.5,64.1667 57.5,62.5C 59.1667,61.5 60.5,60.1667 61.5,58.5C 64.8333,57.1667 67.1667,54.8333 68.5,51.5C 75.9107,45.5947 82.9107,39.0947 89.5,32C 90.8193,31.805 92.1526,31.9717 93.5,32.5C 96.8333,35.1667 99.8333,38.1667 102.5,41.5C 103.451,43.472 104.451,45.472 105.5,47.5C 108.311,49.1437 110.644,51.3103 112.5,54C 113.448,54.4828 114.448,54.6495 115.5,54.5C 117.746,53.5448 120.079,52.8782 122.5,52.5C 126.701,51.7767 130.368,50.1101 133.5,47.5C 133.833,47.5 134.167,47.5 134.5,47.5C 137.802,47.0884 140.469,45.755 142.5,43.5C 142.333,31.4954 142.5,19.4954 143,7.5C 144.333,6.83333 145.667,6.16667 147,5.5C 152.225,6.22166 157.725,6.55499 163.5,6.5 Z"/></g>
<g><path style="opacity:0.67" fill="#656565" d="M 228.5,44.5 C 225.632,44.915 223.465,43.915 222,41.5C 221.5,30.1716 221.333,18.8382 221.5,7.5C 220.5,7.5 219.5,7.5 218.5,7.5C 218.5,7.16667 218.5,6.83333 218.5,6.5C 219.528,6.07418 220.861,6.07418 222.5,6.5C 222.333,17.505 222.5,28.505 223,39.5C 224.107,42.113 225.94,43.7797 228.5,44.5 Z"/></g>
<g><path style="opacity:0.89" fill="#797979" d="M 298.5,51.5 C 291.089,45.5947 284.089,39.0947 277.5,32C 276.552,31.5172 275.552,31.3505 274.5,31.5C 275.002,29.9153 276.002,29.4153 277.5,30C 284.703,37.0351 291.703,44.2018 298.5,51.5 Z"/></g>
<g><path style="opacity:1" fill="#606060" d="M 274.5,31.5 C 273.833,34.1667 272.167,35.8333 269.5,36.5C 270.833,34.5 272.5,32.8333 274.5,31.5 Z"/></g>
<g><path style="opacity:0.933" fill="#555555" d="M 93.5,32.5 C 92.1526,31.9717 90.8193,31.805 89.5,32C 82.9107,39.0947 75.9107,45.5947 68.5,51.5C 75.2974,44.2018 82.2974,37.0351 89.5,30C 91.4122,29.7207 92.7456,30.5541 93.5,32.5 Z"/></g>
<g><path style="opacity:0.878" fill="#626262" d="M 142.5,43.5 C 140.469,45.755 137.802,47.0884 134.5,47.5C 136.837,45.6036 139.504,44.2703 142.5,43.5 Z"/></g>
<g><path style="opacity:1" fill="#424242" d="M 102.5,41.5 C 107.194,45.5271 111.527,49.8604 115.5,54.5C 114.448,54.6495 113.448,54.4828 112.5,54C 110.644,51.3103 108.311,49.1437 105.5,47.5C 104.451,45.472 103.451,43.472 102.5,41.5 Z"/></g>
<g><path style="opacity:0.722" fill="#6c6c6c" d="M 228.5,44.5 C 234.273,46.6447 239.94,48.9781 245.5,51.5C 242.784,51.3215 240.117,50.8215 237.5,50C 234.285,48.2366 231.285,46.4033 228.5,44.5 Z"/></g>
<g><path style="opacity:1" fill="#505050" d="M 269.5,36.5 C 269.649,37.552 269.483,38.552 269,39.5C 265.743,41.3852 262.91,43.7185 260.5,46.5C 259.614,47.325 259.281,48.325 259.5,49.5C 258.5,49.5 257.5,49.5 256.5,49.5C 258.494,46.7372 260.66,44.0706 263,41.5C 264.926,39.4611 267.093,37.7945 269.5,36.5 Z"/></g>
<g><path style="opacity:0.878" fill="#636363" d="M 133.5,47.5 C 130.368,50.1101 126.701,51.7767 122.5,52.5C 125.476,49.5743 129.142,47.9077 133.5,47.5 Z"/></g>
<g><path style="opacity:0.835" fill="#606060" d="M 256.5,49.5 C 256.582,52.5849 255.082,54.2515 252,54.5C 249.199,54.4562 247.032,53.4562 245.5,51.5C 247.738,52.5366 250.071,52.7033 252.5,52C 253.471,50.5187 254.804,49.6854 256.5,49.5 Z"/></g>
<g><path style="opacity:0.82" fill="#6e6e6e" d="M 298.5,51.5 C 300.5,52.8333 302.167,54.5 303.5,56.5C 300.833,55.8333 299.167,54.1667 298.5,51.5 Z"/></g>
<g><path style="opacity:0.961" fill="#545454" d="M 68.5,51.5 C 67.1667,54.8333 64.8333,57.1667 61.5,58.5C 63.5272,55.8061 65.8605,53.4728 68.5,51.5 Z"/></g>
<g><path style="opacity:0.827" fill="#686868" d="M 303.5,56.5 C 306.167,58.5 308.5,60.8333 310.5,63.5C 307.167,62.1667 304.833,59.8333 303.5,56.5 Z"/></g>
<g><path style="opacity:0.608" fill="#8e8e8e" d="M 61.5,58.5 C 60.5,60.1667 59.1667,61.5 57.5,62.5C 57.8333,60.1667 59.1667,58.8333 61.5,58.5 Z"/></g>
<g><path style="opacity:0.608" fill="#7a7a7a" d="M 57.5,62.5 C 56.5,64.1667 55.1667,65.5 53.5,66.5C 53.8333,64.1667 55.1667,62.8333 57.5,62.5 Z"/></g>
<g><path style="opacity:0.941" fill="#4d4d4d" d="M 310.5,63.5 C 312.5,64.8333 314.167,66.5 315.5,68.5C 312.5,68.1667 310.833,66.5 310.5,63.5 Z"/></g>
<g><path style="opacity:0.934" fill="#4d4d4d" d="M 173.5,69.5 C 180.5,68.1667 187.5,68.1667 194.5,69.5C 187.561,70.7126 180.561,70.7126 173.5,69.5 Z"/></g>
<g><path style="opacity:0.471" fill="#848484" d="M 171.5,69.5 C 168.091,70.9034 164.425,71.5701 160.5,71.5C 163.909,70.0966 167.575,69.4299 171.5,69.5 Z"/></g>
<g><path style="opacity:0.412" fill="#7b7b7b" d="M 196.5,69.5 C 200.733,69.5387 204.733,70.2053 208.5,71.5C 204.236,71.6558 200.236,70.9891 196.5,69.5 Z"/></g>
<g><path style="opacity:0.71" fill="#737373" d="M 53.5,66.5 C 49.1082,71.8943 44.1082,76.561 38.5,80.5C 42.8918,75.1057 47.8918,70.439 53.5,66.5 Z"/></g>
<g><path style="opacity:0.224" fill="#848484" d="M 208.5,71.5 C 211.152,71.4095 213.485,72.0762 215.5,73.5C 212.772,73.8294 210.438,73.1628 208.5,71.5 Z"/></g>
<g><path style="opacity:0.851" fill="#6d6d6d" d="M 215.5,73.5 C 217.099,73.2322 218.432,73.5655 219.5,74.5C 217.999,75.4427 216.665,75.1094 215.5,73.5 Z"/></g>
<g><path style="opacity:0.961" fill="#565656" d="M 319.5,72.5 C 322.215,74.5482 324.548,76.8816 326.5,79.5C 323.167,78.1667 320.833,75.8333 319.5,72.5 Z"/></g>
<g><path style="opacity:0.682" fill="#707070" d="M 157.5,72.5 C 152.387,73.6981 147.387,75.3648 142.5,77.5C 146.602,73.8732 151.602,72.2066 157.5,72.5 Z"/></g>
<g><path style="opacity:0.267" fill="#868686" d="M 142.5,77.5 C 140.909,78.2189 139.409,79.2189 138,80.5C 137.617,79.944 137.117,79.6107 136.5,79.5C 138.102,77.9261 140.102,77.2594 142.5,77.5 Z"/></g>
<g><path style="opacity:0.953" fill="#707070" d="M 231.5,79.5 C 234.721,79.8961 237.388,81.2295 239.5,83.5C 236.504,82.7297 233.837,81.3964 231.5,79.5 Z"/></g>
<g><path style="opacity:0.855" fill="#6d6d6d" d="M 38.5,80.5 C 37.925,82.4113 36.925,84.078 35.5,85.5C 34.9131,83.3152 35.9131,81.6485 38.5,80.5 Z"/></g>
<g><path style="opacity:0.525" fill="#7e7e7e" d="M 131.5,82.5 C 130.71,83.4013 129.71,84.0679 128.5,84.5C 128.821,82.9519 129.821,82.2852 131.5,82.5 Z"/></g>
<g><path style="opacity:0.569" fill="#727272" d="M 128.5,84.5 C 127.035,85.7368 125.368,86.7368 123.5,87.5C 124.3,85.2591 125.966,84.2591 128.5,84.5 Z"/></g>
<g><path style="opacity:0.455" fill="#8b8b8b" d="M 239.5,83.5 C 240.71,83.9321 241.71,84.5987 242.5,85.5C 240.821,85.7148 239.821,85.0481 239.5,83.5 Z"/></g>
<g><path style="opacity:1" fill="#414141" d="M 326.5,79.5 C 329.532,80.9991 331.032,83.3324 331,86.5C 330.617,87.056 330.117,87.3893 329.5,87.5C 329.428,84.4475 328.428,81.7808 326.5,79.5 Z"/></g>
<g><path style="opacity:0.02" fill="#808080" d="M 37.5,87.5 C 38.8333,88.1667 39.8333,89.1667 40.5,90.5C 38.5,90.5 37.5,89.5 37.5,87.5 Z"/></g>
<g><path style="opacity:0.012" fill="#858585" d="M 123.5,87.5 C 123.027,88.9063 122.027,89.573 120.5,89.5C 120.821,87.9519 121.821,87.2852 123.5,87.5 Z"/></g>
<g><path style="opacity:0.008" fill="#797979" d="M 40.5,90.5 C 41.8333,91.1667 42.8333,92.1667 43.5,93.5C 41.5,93.5 40.5,92.5 40.5,90.5 Z"/></g>
<g><path style="opacity:1" fill="#464646" d="M 117.5,91.5 C 115.766,94.2003 113.432,96.2003 110.5,97.5C 111.01,93.3203 113.344,91.3203 117.5,91.5 Z"/></g>
<g><path style="opacity:0.718" fill="#686868" d="M 248.5,89.5 C 251.063,89.7313 252.73,91.0646 253.5,93.5C 251.251,92.9202 249.585,91.5869 248.5,89.5 Z"/></g>
<g><path style="opacity:0.671" fill="#767676" d="M 253.5,93.5 C 255.404,93.7376 256.738,94.7376 257.5,96.5C 255.596,96.2624 254.262,95.2624 253.5,93.5 Z"/></g>
<g><path style="opacity:0.173" fill="#7f7f7f" d="M 319.5,97.5 C 318.5,99.1667 317.167,100.5 315.5,101.5C 315.833,99.1667 317.167,97.8333 319.5,97.5 Z"/></g>
<g><path style="opacity:0.055" fill="#a0a0a0" d="M 315.5,101.5 C 315.167,102.5 314.5,103.167 313.5,103.5C 313.5,102.167 314.167,101.5 315.5,101.5 Z"/></g>
<g><path style="opacity:0.62" fill="#606060" d="M 109.5,98.5 C 106.471,101.859 103.471,105.192 100.5,108.5C 100.421,107.07 100.754,105.736 101.5,104.5C 103.921,102.066 106.588,100.066 109.5,98.5 Z"/></g>
<g><path style="opacity:0.737" fill="#696969" d="M 311.5,105.5 C 310.315,106.857 309.315,108.357 308.5,110C 308.989,111.138 309.322,112.305 309.5,113.5C 308.883,113.389 308.383,113.056 308,112.5C 306.687,108.795 307.854,106.462 311.5,105.5 Z"/></g>
<g><path style="opacity:0.8" fill="#6c6c6c" d="M 264.5,103.5 C 268.92,106.929 272.253,111.262 274.5,116.5C 270.452,112.746 267.118,108.413 264.5,103.5 Z"/></g>
<g><path style="opacity:0.663" fill="#5c5c5c" d="M 99.5,109.5 C 98.396,111.389 97.0627,113.055 95.5,114.5C 95.687,112.436 96.187,110.436 97,108.5C 97.6708,109.252 98.5041,109.586 99.5,109.5 Z"/></g>
<g><path style="opacity:1" fill="#040404" d="M 200.5,119.5 C 200.611,120.117 200.944,120.617 201.5,121C 203.81,121.497 206.143,121.663 208.5,121.5C 209.167,121.833 209.833,122.167 210.5,122.5C 212.03,124.346 214.03,125.346 216.5,125.5C 217.67,127.279 219.336,128.279 221.5,128.5C 223.834,131.829 226.834,134.496 230.5,136.5C 230.573,140.181 232.24,142.514 235.5,143.5C 237.967,146.337 239.633,149.671 240.5,153.5C 240.336,156.187 240.503,158.854 241,161.5C 241.278,162.416 241.778,163.082 242.5,163.5C 242.5,163.833 242.5,164.167 242.5,164.5C 241.039,169.637 240.372,174.97 240.5,180.5C 239.015,182.249 238.015,184.249 237.5,186.5C 236.837,188.641 236.503,190.975 236.5,193.5C 236.529,196.269 237.195,198.603 238.5,200.5C 239.31,203.344 240.644,206.01 242.5,208.5C 242.5,210.5 243.5,211.5 245.5,211.5C 247.167,212.5 248.5,213.833 249.5,215.5C 252.024,219.106 255.357,221.772 259.5,223.5C 260.167,223.5 260.5,223.833 260.5,224.5C 262.039,227.972 264.706,229.972 268.5,230.5C 269.5,230.833 270.167,231.5 270.5,232.5C 271.082,233.931 271.915,235.264 273,236.5C 273.77,235.402 274.603,235.402 275.5,236.5C 277.103,239.108 279.103,241.441 281.5,243.5C 282.183,243.137 282.85,242.804 283.5,242.5C 284.5,243.167 285.5,243.833 286.5,244.5C 287.288,247.621 289.288,249.288 292.5,249.5C 294.54,251.177 296.54,252.844 298.5,254.5C 299.13,257.705 301.13,259.371 304.5,259.5C 305.167,259.5 305.5,259.833 305.5,260.5C 307.039,263.972 309.706,265.972 313.5,266.5C 314.833,267.5 316.167,268.5 317.5,269.5C 318.478,271.812 320.145,273.478 322.5,274.5C 322.833,274.5 323.167,274.5 323.5,274.5C 323.539,275.583 323.873,276.583 324.5,277.5C 327.515,279.615 330.515,281.615 333.5,283.5C 335.341,284.402 336.674,285.736 337.5,287.5C 337.427,289.027 338.094,290.027 339.5,290.5C 339.66,292.153 340.326,293.486 341.5,294.5C 342.167,294.5 342.5,294.833 342.5,295.5C 342.5,300.5 342.5,305.5 342.5,310.5C 342.068,311.71 341.401,312.71 340.5,313.5C 339.094,313.973 338.427,314.973 338.5,316.5C 338.167,317.167 337.833,317.833 337.5,318.5C 336.167,318.5 335.5,319.167 335.5,320.5C 335.167,320.5 334.833,320.5 334.5,320.5C 331.454,320.183 329.787,321.516 329.5,324.5C 327.517,324.157 326.183,324.824 325.5,326.5C 319.773,326.74 314.106,326.407 308.5,325.5C 307.486,324.326 306.153,323.66 304.5,323.5C 302.729,321.065 300.396,319.398 297.5,318.5C 296.588,316.405 295.421,314.405 294,312.5C 293.329,311.748 292.496,311.414 291.5,311.5C 290.213,308.547 288.213,306.214 285.5,304.5C 284.5,304.167 283.833,303.5 283.5,302.5C 283.5,299.167 281.833,297.5 278.5,297.5C 278.719,296.325 278.386,295.325 277.5,294.5C 275.69,292.469 273.69,290.802 271.5,289.5C 270.5,289.167 269.833,288.5 269.5,287.5C 269.461,286.417 269.127,285.417 268.5,284.5C 264.408,280.733 260.408,277.066 256.5,273.5C 255.833,272.167 254.833,271.167 253.5,270.5C 252.955,268.407 252.122,266.407 251,264.5C 248.624,263.624 247.124,261.958 246.5,259.5C 245.583,258.873 244.583,258.539 243.5,258.5C 243.461,257.417 243.127,256.417 242.5,255.5C 240.026,252.807 237.359,250.474 234.5,248.5C 234.5,248.167 234.5,247.833 234.5,247.5C 233.936,243.936 231.936,241.603 228.5,240.5C 226.833,239.5 225.5,238.167 224.5,236.5C 224.125,233.467 222.458,231.467 219.5,230.5C 219.027,229.094 218.027,228.427 216.5,228.5C 216.027,227.094 215.027,226.427 213.5,226.5C 208.438,226.274 203.438,226.608 198.5,227.5C 196.473,227.338 194.473,227.505 192.5,228C 191.944,228.383 191.611,228.883 191.5,229.5C 183.5,229.5 175.5,229.5 167.5,229.5C 166.508,229.672 165.842,229.338 165.5,228.5C 163.698,227.542 161.698,226.875 159.5,226.5C 158.486,225.326 157.153,224.66 155.5,224.5C 154.713,222.896 153.38,222.229 151.5,222.5C 150.5,222.167 149.833,221.5 149.5,220.5C 147.431,217.427 144.764,215.094 141.5,213.5C 140.833,212.5 140.167,211.5 139.5,210.5C 138.877,207.07 137.211,204.404 134.5,202.5C 134.5,202.167 134.5,201.833 134.5,201.5C 134.03,196.417 132.697,191.75 130.5,187.5C 129.385,182.25 129.219,176.917 130,171.5C 130.472,167.89 131.972,164.89 134.5,162.5C 136.292,162.366 137.958,162.699 139.5,163.5C 139.908,164.643 140.575,165.643 141.5,166.5C 144.536,168.552 147.536,170.552 150.5,172.5C 151.051,175.267 152.384,177.6 154.5,179.5C 158.713,182.914 162.713,186.58 166.5,190.5C 167.736,191.246 169.07,191.579 170.5,191.5C 172.011,193.441 174.011,193.941 176.5,193C 178.059,192.02 179.726,191.187 181.5,190.5C 182.127,189.583 182.461,188.583 182.5,187.5C 184.5,185.833 186.5,184.167 188.5,182.5C 191.797,182.368 193.463,180.702 193.5,177.5C 196.5,177.167 198.167,175.5 198.5,172.5C 201.615,168.252 202.282,163.586 200.5,158.5C 197.597,152.594 193.264,147.927 187.5,144.5C 187.5,144.167 187.5,143.833 187.5,143.5C 184.5,139.833 181.167,136.5 177.5,133.5C 174.647,131.132 173.481,128.132 174,124.5C 176.697,122.424 179.53,120.757 182.5,119.5C 188.514,118.294 194.514,118.294 200.5,119.5 Z M 318.5,291.5 C 322.078,294.633 323.411,298.633 322.5,303.5C 320.809,304.864 319.142,306.197 317.5,307.5C 306.143,307.401 303.143,302.401 308.5,292.5C 311.764,291.676 315.098,291.342 318.5,291.5 Z"/></g>
<g><path style="opacity:0.194" fill="#838383" d="M 200.5,119.5 C 203.373,119.802 206.039,120.469 208.5,121.5C 206.143,121.663 203.81,121.497 201.5,121C 200.944,120.617 200.611,120.117 200.5,119.5 Z"/></g>
<g><path style="opacity:0.929" fill="#555555" d="M 275.5,117.5 C 277.759,118.344 278.759,120.011 278.5,122.5C 276.75,121.341 275.75,119.674 275.5,117.5 Z"/></g>
<g><path style="opacity:0.463" fill="#707070" d="M 91.5,120.5 C 91.573,122.027 90.9063,123.027 89.5,123.5C 89.427,121.973 90.0937,120.973 91.5,120.5 Z"/></g>
<g><path style="opacity:0.447" fill="#747474" d="M 210.5,122.5 C 212.97,122.654 214.97,123.654 216.5,125.5C 214.03,125.346 212.03,124.346 210.5,122.5 Z"/></g>
<g><path style="opacity:0.996" fill="#666666" d="M 278.5,122.5 C 280.614,123.784 281.614,125.784 281.5,128.5C 279.654,126.97 278.654,124.97 278.5,122.5 Z"/></g>
<g><path style="opacity:0.898" fill="#525252" d="M 57.5,118.5 C 57.6567,119.873 57.49,121.207 57,122.5C 56.0978,124.431 54.9312,126.097 53.5,127.5C 54.083,124.053 55.4163,121.053 57.5,118.5 Z"/></g>
<g><path style="opacity:0.514" fill="#767676" d="M 314.5,125.5 C 315.345,126.671 316.011,128.005 316.5,129.5C 314.824,128.817 314.157,127.483 314.5,125.5 Z"/></g>
<g><path style="opacity:0.529" fill="#7b7b7b" d="M 88.5,125.5 C 88.3404,127.153 87.6737,128.486 86.5,129.5C 86.2291,127.62 86.8958,126.287 88.5,125.5 Z"/></g>
<g><path style="opacity:1" fill="#6b6b6b" d="M 216.5,125.5 C 218.933,125.273 220.599,126.273 221.5,128.5C 219.336,128.279 217.67,127.279 216.5,125.5 Z"/></g>
<g><path style="opacity:0.961" fill="#585858" d="M 182.5,119.5 C 179.53,120.757 176.697,122.424 174,124.5C 173.481,128.132 174.647,131.132 177.5,133.5C 170.613,130.336 169.946,126.169 175.5,121C 177.866,120.56 180.199,120.06 182.5,119.5 Z"/></g>
<g><path style="opacity:0.839" fill="#6d6d6d" d="M 221.5,128.5 C 223.95,129.777 226.283,131.277 228.5,133C 229.823,133.816 230.489,134.983 230.5,136.5C 226.834,134.496 223.834,131.829 221.5,128.5 Z"/></g>
<g><path style="opacity:0.125" fill="#7a7a7a" d="M 177.5,133.5 C 181.167,136.5 184.5,139.833 187.5,143.5C 183.167,141.167 179.833,137.833 177.5,133.5 Z"/></g>
<g><path style="opacity:0.78" fill="#767676" d="M 281.5,128.5 C 284.35,131.433 286.016,135.099 286.5,139.5C 284.418,136.065 282.752,132.399 281.5,128.5 Z"/></g>
<g><path style="opacity:1" fill="#3b3b3b" d="M 230.5,136.5 C 233.323,137.992 234.99,140.326 235.5,143.5C 232.24,142.514 230.573,140.181 230.5,136.5 Z"/></g>
<g><path style="opacity:0.008" fill="#787878" d="M 187.5,144.5 C 193.264,147.927 197.597,152.594 200.5,158.5C 196.223,153.885 191.89,149.219 187.5,144.5 Z"/></g>
<g><path style="opacity:0.933" fill="#666666" d="M 286.5,140.5 C 289.404,144.221 290.738,148.554 290.5,153.5C 288.944,149.348 287.61,145.015 286.5,140.5 Z"/></g>
<g><path style="opacity:0.608" fill="#6a6a6a" d="M 78.5,151.5 C 78.5797,154.781 77.913,157.781 76.5,160.5C 76.4203,157.219 77.087,154.219 78.5,151.5 Z"/></g>
<g><path style="opacity:0.391" fill="#828282" d="M 318.5,135.5 C 330.584,137.449 342.917,138.116 355.5,137.5C 355.831,164.005 355.498,190.339 354.5,216.5C 354.5,216.167 354.5,215.833 354.5,215.5C 354.5,189.833 354.5,164.167 354.5,138.5C 342.5,138.5 330.5,138.5 318.5,138.5C 318.5,137.5 318.5,136.5 318.5,135.5 Z"/></g>
<g><path style="opacity:1" fill="#1b1b1b" d="M 49.5,138.5 C 38.3456,139.495 27.0123,139.828 15.5,139.5C 15.831,164.672 15.4977,189.672 14.5,214.5C 14.5,189.167 14.5,163.833 14.5,138.5C 26.1667,138.5 37.8333,138.5 49.5,138.5 Z"/></g>
<g><path style="opacity:1" fill="#616161" d="M 240.5,153.5 C 241.581,156.627 242.247,159.96 242.5,163.5C 241.778,163.082 241.278,162.416 241,161.5C 240.503,158.854 240.336,156.187 240.5,153.5 Z"/></g>
<g><path style="opacity:0.624" fill="#6c6c6c" d="M 134.5,162.5 C 135.097,161.861 135.93,161.528 137,161.5C 138.376,161.684 139.209,162.351 139.5,163.5C 137.958,162.699 136.292,162.366 134.5,162.5 Z"/></g>
<g><path style="opacity:0.576" fill="#808080" d="M 139.5,163.5 C 144.043,165.372 147.71,168.372 150.5,172.5C 147.536,170.552 144.536,168.552 141.5,166.5C 140.575,165.643 139.908,164.643 139.5,163.5 Z"/></g>
<g><path style="opacity:0.671" fill="#7e7e7e" d="M 242.5,164.5 C 243.152,165.449 243.486,166.615 243.5,168C 242.553,172.307 241.553,176.473 240.5,180.5C 240.372,174.97 241.039,169.637 242.5,164.5 Z"/></g>
<g><path style="opacity:0.896" fill="#454545" d="M 76.5,160.5 C 75.4538,170.213 75.4538,179.88 76.5,189.5C 73.8333,179.833 73.8333,170.167 76.5,160.5 Z"/></g>
<g><path style="opacity:0.988" fill="#585858" d="M 198.5,172.5 C 198.167,175.5 196.5,177.167 193.5,177.5C 194.833,175.5 196.5,173.833 198.5,172.5 Z"/></g>
<g><path style="opacity:0.43" fill="#656565" d="M 290.5,153.5 C 291.787,154.871 292.453,156.705 292.5,159C 294.079,171.04 293.746,182.873 291.5,194.5C 291.739,192.533 291.406,190.699 290.5,189C 292.004,184.502 292.671,179.835 292.5,175C 291.862,167.688 291.195,160.521 290.5,153.5 Z"/></g>
<g><path style="opacity:1" fill="#595959" d="M 150.5,172.5 C 157.219,178.889 163.886,185.222 170.5,191.5C 169.07,191.579 167.736,191.246 166.5,190.5C 162.713,186.58 158.713,182.914 154.5,179.5C 152.384,177.6 151.051,175.267 150.5,172.5 Z"/></g>
<g><path style="opacity:0.949" fill="#4e4e4e" d="M 193.5,177.5 C 193.463,180.702 191.797,182.368 188.5,182.5C 189.833,180.5 191.5,178.833 193.5,177.5 Z"/></g>
<g><path style="opacity:0.943" fill="#636363" d="M 49.5,137.5 C 49.5,137.833 49.5,138.167 49.5,138.5C 37.8333,138.5 26.1667,138.5 14.5,138.5C 14.5,163.833 14.5,189.167 14.5,214.5C 25.8333,215.167 37.1667,215.833 48.5,216.5C 36.5861,216.821 24.7527,216.488 13,215.5C 12.3333,189.833 12.3333,164.167 13,138.5C 25.0864,137.512 37.253,137.178 49.5,137.5 Z"/></g>
<g><path style="opacity:0.459" fill="#888888" d="M 240.5,180.5 C 240.117,183.811 239.117,186.811 237.5,189.5C 237.5,188.5 237.5,187.5 237.5,186.5C 238.015,184.249 239.015,182.249 240.5,180.5 Z"/></g>
<g><path style="opacity:0.655" fill="#787878" d="M 130.5,187.5 C 132.697,191.75 134.03,196.417 134.5,201.5C 132.054,197.241 130.721,192.574 130.5,187.5 Z"/></g>
<g><path style="opacity:1" fill="#666666" d="M 182.5,187.5 C 182.461,188.583 182.127,189.583 181.5,190.5C 179.726,191.187 178.059,192.02 176.5,193C 174.011,193.941 172.011,193.441 170.5,191.5C 174.936,191.972 178.936,190.638 182.5,187.5 Z"/></g>
<g><path style="opacity:0.851" fill="#3c3c3c" d="M 237.5,186.5 C 237.5,187.5 237.5,188.5 237.5,189.5C 237.323,193.234 237.656,196.901 238.5,200.5C 237.195,198.603 236.529,196.269 236.5,193.5C 236.503,190.975 236.837,188.641 237.5,186.5 Z"/></g>
<g><path style="opacity:0.565" fill="#606060" d="M 291.5,194.5 C 291.706,197.495 291.04,200.162 289.5,202.5C 289.294,199.505 289.96,196.838 291.5,194.5 Z"/></g>
<g><path style="opacity:0.378" fill="#6f6f6f" d="M 78.5,200.5 C 79.9238,202.515 80.5905,204.848 80.5,207.5C 79.0762,205.485 78.4095,203.152 78.5,200.5 Z"/></g>
<g><path style="opacity:1" fill="#636363" d="M 289.5,202.5 C 289.59,205.152 288.924,207.485 287.5,209.5C 287.171,206.772 287.837,204.438 289.5,202.5 Z"/></g>
<g><path style="opacity:0.855" fill="#747474" d="M 134.5,202.5 C 137.211,204.404 138.877,207.07 139.5,210.5C 137.045,208.368 135.379,205.701 134.5,202.5 Z"/></g>
<g><path style="opacity:0.89" fill="#6f6f6f" d="M 242.5,208.5 C 243.833,209.167 244.833,210.167 245.5,211.5C 243.5,211.5 242.5,210.5 242.5,208.5 Z"/></g>
<g><path style="opacity:0.941" fill="#575757" d="M 80.5,207.5 C 81.9313,208.78 82.5979,210.447 82.5,212.5C 80.744,211.448 80.0773,209.781 80.5,207.5 Z"/></g>
<g><path style="opacity:0.949" fill="#6d6d6d" d="M 141.5,213.5 C 144.764,215.094 147.431,217.427 149.5,220.5C 145.914,219.25 143.248,216.916 141.5,213.5 Z"/></g>
<g><path style="opacity:0.69" fill="#767676" d="M 286.5,210.5 C 286.829,213.228 286.163,215.562 284.5,217.5C 284.721,214.933 285.388,212.599 286.5,210.5 Z"/></g>
<g><path style="opacity:0.852" fill="#454545" d="M 354.5,215.5 C 354.5,215.833 354.5,216.167 354.5,216.5C 342.42,216.188 330.42,216.521 318.5,217.5C 330.12,215.521 342.12,214.854 354.5,215.5 Z"/></g>
<g><path style="opacity:0.345" fill="#757575" d="M 249.5,215.5 C 253.238,217.697 256.571,220.364 259.5,223.5C 255.357,221.772 252.024,219.106 249.5,215.5 Z"/></g>
<g><path style="opacity:1" fill="#6a6a6a" d="M 284.5,217.5 C 284.586,218.496 284.252,219.329 283.5,220C 285.324,220.66 286.657,221.827 287.5,223.5C 285.436,222.942 283.77,221.775 282.5,220C 282.639,218.699 283.305,217.866 284.5,217.5 Z"/></g>
<g><path style="opacity:0.565" fill="#757575" d="M 151.5,222.5 C 153.38,222.229 154.713,222.896 155.5,224.5C 153.847,224.34 152.514,223.674 151.5,222.5 Z"/></g>
<g><path style="opacity:0.796" fill="#6a6a6a" d="M 155.5,224.5 C 157.153,224.66 158.486,225.326 159.5,226.5C 157.62,226.771 156.287,226.104 155.5,224.5 Z"/></g>
<g><path style="opacity:0.275" fill="#939393" d="M 317.5,218.5 C 317.657,219.873 317.49,221.207 317,222.5C 316.124,224.758 314.957,226.758 313.5,228.5C 313.938,224.687 315.271,221.354 317.5,218.5 Z"/></g>
<g><path style="opacity:0.737" fill="#616161" d="M 48.5,216.5 C 50.0174,216.511 51.1841,217.177 52,218.5C 53.3347,222.191 54.5013,225.858 55.5,229.5C 53.369,225.152 51.0356,220.818 48.5,216.5 Z"/></g>
<g><path style="opacity:1" fill="#606060" d="M 260.5,224.5 C 263.891,225.529 266.557,227.529 268.5,230.5C 264.706,229.972 262.039,227.972 260.5,224.5 Z"/></g>
<g><path style="opacity:0.812" fill="#6b6b6b" d="M 289.5,225.5 C 292.069,225.738 293.735,227.071 294.5,229.5C 292.251,228.92 290.585,227.587 289.5,225.5 Z"/></g>
<g><path style="opacity:1" fill="#4f4f4f" d="M 87.5,224.5 C 89.664,226.822 91.3307,229.489 92.5,232.5C 91.234,231.91 89.9007,231.41 88.5,231C 88.9574,230.586 89.2907,230.086 89.5,229.5C 87.9951,228.158 87.3285,226.492 87.5,224.5 Z"/></g>
<g><path style="opacity:0.49" fill="#868686" d="M 159.5,226.5 C 161.698,226.875 163.698,227.542 165.5,228.5C 162.99,228.946 160.99,228.28 159.5,226.5 Z"/></g>
<g><path style="opacity:0.176" fill="#939393" d="M 213.5,226.5 C 215.027,226.427 216.027,227.094 216.5,228.5C 214.973,228.573 213.973,227.906 213.5,226.5 Z"/></g>
<g><path style="opacity:0.349" fill="#828282" d="M 198.5,227.5 C 196.343,228.407 194.01,229.073 191.5,229.5C 191.611,228.883 191.944,228.383 192.5,228C 194.473,227.505 196.473,227.338 198.5,227.5 Z"/></g>
<g><path style="opacity:0.863" fill="#7a7a7a" d="M 167.5,229.5 C 175.5,229.5 183.5,229.5 191.5,229.5C 183.5,232.167 175.5,232.167 167.5,229.5 Z"/></g>
<g><path style="opacity:0.545" fill="#7b7b7b" d="M 216.5,228.5 C 218.027,228.427 219.027,229.094 219.5,230.5C 217.973,230.573 216.973,229.906 216.5,228.5 Z"/></g>
<g><path style="opacity:0.627" fill="#838383" d="M 294.5,229.5 C 296.027,229.427 297.027,230.094 297.5,231.5C 295.973,231.573 294.973,230.906 294.5,229.5 Z"/></g>
<g><path style="opacity:0.294" fill="#a3a3a3" d="M 313.5,230.5 C 313.068,231.71 312.401,232.71 311.5,233.5C 311.285,231.821 311.952,230.821 313.5,230.5 Z"/></g>
<g><path style="opacity:0.761" fill="#5c5c5c" d="M 270.5,232.5 C 272.795,233.136 274.461,234.469 275.5,236.5C 274.603,235.402 273.77,235.402 273,236.5C 271.915,235.264 271.082,233.931 270.5,232.5 Z"/></g>
<g><path style="opacity:1" fill="#515151" d="M 297.5,231.5 C 301.675,232.343 304.675,234.676 306.5,238.5C 302.949,236.889 299.949,234.556 297.5,231.5 Z"/></g>
<g><path style="opacity:1" fill="#4e4e4e" d="M 56.5,233.5 C 57.5,233.5 58.5,233.5 59.5,233.5C 59.8333,236.167 60.1667,238.833 60.5,241.5C 59.1993,238.899 57.866,236.232 56.5,233.5 Z"/></g>
<g><path style="opacity:0.6" fill="#6e6e6e" d="M 92.5,232.5 C 94.2503,233.659 95.2503,235.326 95.5,237.5C 93.7497,236.341 92.7497,234.674 92.5,232.5 Z"/></g>
<g><path style="opacity:0.812" fill="#707070" d="M 219.5,230.5 C 222.458,231.467 224.125,233.467 224.5,236.5C 222.11,235.109 220.443,233.109 219.5,230.5 Z"/></g>
<g><path style="opacity:0.396" fill="#868686" d="M 311.5,234.5 C 310.976,236.306 310.309,237.972 309.5,239.5C 309.077,237.219 309.744,235.552 311.5,234.5 Z"/></g>
<g><path style="opacity:0.039" fill="#989898" d="M 306.5,238.5 C 307.391,239.11 308.391,239.443 309.5,239.5C 308.053,240.885 307.053,240.552 306.5,238.5 Z"/></g>
<g><path style="opacity:1" fill="#494949" d="M 275.5,236.5 C 278.891,237.529 281.557,239.529 283.5,242.5C 282.85,242.804 282.183,243.137 281.5,243.5C 279.103,241.441 277.103,239.108 275.5,236.5 Z"/></g>
<g><path style="opacity:1" fill="#383838" d="M 95.5,237.5 C 97.914,238.911 99.5806,240.911 100.5,243.5C 98.8053,242.989 97.1386,242.322 95.5,241.5C 96.3629,240.274 96.3629,238.94 95.5,237.5 Z"/></g>
<g><path style="opacity:0.784" fill="#646464" d="M 228.5,240.5 C 231.936,241.603 233.936,243.936 234.5,247.5C 231.436,246.101 229.436,243.768 228.5,240.5 Z"/></g>
<g><path style="opacity:0.851" fill="#707070" d="M 286.5,244.5 C 289.109,245.443 291.109,247.11 292.5,249.5C 289.288,249.288 287.288,247.621 286.5,244.5 Z"/></g>
<g><path style="opacity:0.898" fill="#545454" d="M 60.5,241.5 C 63.3133,244.4 62.6466,246.4 58.5,247.5C 59.2899,246.206 60.2899,245.039 61.5,244C 60.7476,243.329 60.4142,242.496 60.5,241.5 Z"/></g>
<g><path style="opacity:0.761" fill="#7c7c7c" d="M 234.5,248.5 C 237.359,250.474 240.026,252.807 242.5,255.5C 243.127,256.417 243.461,257.417 243.5,258.5C 239.788,255.789 236.788,252.456 234.5,248.5 Z"/></g>
<g><path style="opacity:0.929" fill="#4d4d4d" d="M 298.5,254.5 C 301.089,255.419 303.089,257.086 304.5,259.5C 301.13,259.371 299.13,257.705 298.5,254.5 Z"/></g>
<g><path style="opacity:1" fill="#535353" d="M 243.5,258.5 C 244.583,258.539 245.583,258.873 246.5,259.5C 247.124,261.958 248.624,263.624 251,264.5C 252.122,266.407 252.955,268.407 253.5,270.5C 249.82,266.817 246.486,262.817 243.5,258.5 Z"/></g>
<g><path style="opacity:0.875" fill="#5d5d5d" d="M 114.5,257.5 C 116.754,258.124 118.421,259.457 119.5,261.5C 116.931,261.262 115.265,259.929 114.5,257.5 Z"/></g>
<g><path style="opacity:0.576" fill="#5f5f5f" d="M 305.5,260.5 C 308.891,261.529 311.557,263.529 313.5,266.5C 309.706,265.972 307.039,263.972 305.5,260.5 Z"/></g>
<g><path style="opacity:0.757" fill="#696969" d="M 124.5,264.5 C 128.054,265.769 131.054,267.769 133.5,270.5C 129.61,269.729 126.61,267.729 124.5,264.5 Z"/></g>
<g><path style="opacity:0.867" fill="#646464" d="M 37.5,268.5 C 38.4408,270.05 39.1075,271.716 39.5,273.5C 36.8083,272.409 36.1416,270.743 37.5,268.5 Z"/></g>
<g><path style="opacity:0.871" fill="#5a5a5a" d="M 133.5,270.5 C 136.063,271.088 138.396,272.088 140.5,273.5C 137.509,273.834 135.176,272.834 133.5,270.5 Z"/></g>
<g><path style="opacity:0.678" fill="#6a6a6a" d="M 232.5,277.5 C 231.185,276.524 229.852,275.524 228.5,274.5C 226.271,275.577 223.937,276.244 221.5,276.5C 223.762,275.177 226.096,273.843 228.5,272.5C 230.611,273.605 231.945,275.271 232.5,277.5 Z"/></g>
<g><path style="opacity:0.788" fill="#6b6b6b" d="M 256.5,273.5 C 260.408,277.066 264.408,280.733 268.5,284.5C 269.127,285.417 269.461,286.417 269.5,287.5C 264.46,283.461 260.127,278.794 256.5,273.5 Z"/></g>
<g><path style="opacity:0.608" fill="#777777" d="M 317.5,269.5 C 320.189,270.189 321.856,271.856 322.5,274.5C 320.145,273.478 318.478,271.812 317.5,269.5 Z"/></g>
<g><path style="opacity:0.98" fill="#5f5f5f" d="M 140.5,273.5 C 142.887,273.912 144.887,274.912 146.5,276.5C 143.895,276.379 141.895,275.379 140.5,273.5 Z"/></g>
<g><path style="opacity:0.749" fill="#6e6e6e" d="M 39.5,273.5 C 40.8221,273.33 41.9887,273.663 43,274.5C 44.4213,276.405 45.588,278.405 46.5,280.5C 43.8333,278.5 41.5,276.167 39.5,273.5 Z"/></g>
<g><path style="opacity:0.965" fill="#575757" d="M 156.5,279.5 C 152.863,279.13 149.53,278.13 146.5,276.5C 147.15,276.196 147.817,275.863 148.5,275.5C 151.341,276.708 154.007,278.041 156.5,279.5 Z"/></g>
<g><path style="opacity:0.996" fill="#585858" d="M 220.5,276.5 C 217.992,278.554 214.992,279.554 211.5,279.5C 214.189,277.883 217.189,276.883 220.5,276.5 Z"/></g>
<g><path style="opacity:0.655" fill="#656565" d="M 156.5,279.5 C 159.829,279.215 162.829,279.882 165.5,281.5C 162.273,281.324 159.273,280.657 156.5,279.5 Z"/></g>
<g><path style="opacity:0.937" fill="#555555" d="M 211.5,279.5 C 206.801,281.423 201.801,282.59 196.5,283C 188.167,283.667 179.833,283.667 171.5,283C 170.944,282.617 170.611,282.117 170.5,281.5C 174.974,282.025 179.474,282.359 184,282.5C 193.403,281.633 202.57,280.633 211.5,279.5 Z"/></g>
<g><path style="opacity:0.894" fill="#636363" d="M 232.5,277.5 C 235.573,279.569 237.906,282.236 239.5,285.5C 236.084,283.752 233.75,281.086 232.5,277.5 Z"/></g>
<g><path style="opacity:1" fill="#575757" d="M 323.5,274.5 C 327.456,276.788 330.789,279.788 333.5,283.5C 330.515,281.615 327.515,279.615 324.5,277.5C 323.873,276.583 323.539,275.583 323.5,274.5 Z"/></g>
<g><path style="opacity:0.706" fill="#646464" d="M 46.5,280.5 C 49.028,281.184 51.1947,282.518 53,284.5C 55.4703,286.791 57.3036,289.457 58.5,292.5C 54.1667,288.833 50.1667,284.833 46.5,280.5 Z"/></g>
<g><path style="opacity:0.549" fill="#747474" d="M 337.5,287.5 C 338.906,287.973 339.573,288.973 339.5,290.5C 338.094,290.027 337.427,289.027 337.5,287.5 Z"/></g>
<g><path style="opacity:0.596" fill="#727272" d="M 318.5,291.5 C 315.098,291.342 311.764,291.676 308.5,292.5C 309.694,291.223 311.36,290.556 313.5,290.5C 315.369,290.507 317.036,290.84 318.5,291.5 Z"/></g>
<g><path style="opacity:0.588" fill="#6e6e6e" d="M 271.5,289.5 C 273.69,290.802 275.69,292.469 277.5,294.5C 278.386,295.325 278.719,296.325 278.5,297.5C 275.45,295.451 273.117,292.784 271.5,289.5 Z"/></g>
<g><path style="opacity:0.392" fill="#7a7a7a" d="M 339.5,290.5 C 341.104,291.287 341.771,292.62 341.5,294.5C 340.326,293.486 339.66,292.153 339.5,290.5 Z"/></g>
<g><path style="opacity:0.588" fill="#646464" d="M 242.5,288.5 C 245.384,291.239 248.051,294.239 250.5,297.5C 249.061,299.553 247.061,300.553 244.5,300.5C 245.335,299.057 246.668,298.057 248.5,297.5C 246.056,294.736 244.056,291.736 242.5,288.5 Z"/></g>
<g><path style="opacity:0.749" fill="#686868" d="M 58.5,292.5 C 61.5,292.833 63.1667,294.5 63.5,297.5C 61.5,296.167 59.8333,294.5 58.5,292.5 Z"/></g>
<g><path style="opacity:1" fill="#535353" d="M 278.5,297.5 C 281.833,297.5 283.5,299.167 283.5,302.5C 280.856,301.856 279.189,300.189 278.5,297.5 Z"/></g>
<g><path style="opacity:1" fill="#4c4c4c" d="M 63.5,297.5 C 67.4045,299.214 70.9045,301.547 74,304.5C 74.6077,306.154 75.1077,307.821 75.5,309.5C 71.1667,305.833 67.1667,301.833 63.5,297.5 Z"/></g>
<g><path style="opacity:0.784" fill="#7f7f7f" d="M 342.5,295.5 C 344.872,300.459 344.872,305.459 342.5,310.5C 342.5,305.5 342.5,300.5 342.5,295.5 Z"/></g>
<g><path style="opacity:0.09" fill="#959595" d="M 240.5,302.5 C 239.07,303.537 237.403,304.204 235.5,304.5C 236.635,302.787 238.302,302.12 240.5,302.5 Z"/></g>
<g><path style="opacity:0.918" fill="#525252" d="M 322.5,303.5 C 322.033,306.297 320.367,307.631 317.5,307.5C 319.142,306.197 320.809,304.864 322.5,303.5 Z"/></g>
<g><path style="opacity:0.886" fill="#434343" d="M 127.5,302.5 C 133.605,302.252 138.605,304.252 142.5,308.5C 137.265,306.871 132.265,304.871 127.5,302.5 Z"/></g>
<g><path style="opacity:1" fill="#424242" d="M 232.5,305.5 C 229.547,306.746 226.547,308.079 223.5,309.5C 223.414,308.504 223.748,307.671 224.5,307C 227.063,305.921 229.729,305.421 232.5,305.5 Z"/></g>
<g><path style="opacity:0.831" fill="#676767" d="M 285.5,304.5 C 288.213,306.214 290.213,308.547 291.5,311.5C 288.757,309.761 286.757,307.427 285.5,304.5 Z"/></g>
<g><path style="opacity:0.831" fill="#5f5f5f" d="M 120.5,299.5 C 119.448,299.351 118.448,299.517 117.5,300C 112.631,305.037 107.631,309.87 102.5,314.5C 102.389,313.883 102.056,313.383 101.5,313C 105.806,309.36 109.806,305.36 113.5,301C 115.664,298.737 117.997,298.237 120.5,299.5 Z"/></g>
<g><path style="opacity:1" fill="#4c4c4c" d="M 75.5,309.5 C 81.6689,312.819 87.1689,317.152 92,322.5C 94.6125,320.391 97.1125,318.058 99.5,315.5C 100.417,314.873 101.417,314.539 102.5,314.5C 99.2039,318.298 95.7039,321.964 92,325.5C 85.9965,320.663 80.4965,315.33 75.5,309.5 Z"/></g>
<g><path style="opacity:0.576" fill="#7f7f7f" d="M 291.5,311.5 C 292.496,311.414 293.329,311.748 294,312.5C 295.421,314.405 296.588,316.405 297.5,318.5C 294.8,316.766 292.8,314.432 291.5,311.5 Z"/></g>
<g><path style="opacity:0.6" fill="#6b6b6b" d="M 340.5,313.5 C 340.573,315.027 339.906,316.027 338.5,316.5C 338.427,314.973 339.094,313.973 340.5,313.5 Z"/></g>
<g><path style="opacity:0.043" fill="#a7a7a7" d="M 337.5,318.5 C 337.167,319.5 336.5,320.167 335.5,320.5C 335.5,319.167 336.167,318.5 337.5,318.5 Z"/></g>
<g><path style="opacity:0.282" fill="#7f7f7f" d="M 297.5,318.5 C 300.396,319.398 302.729,321.065 304.5,323.5C 301.326,322.99 298.992,321.323 297.5,318.5 Z"/></g>
<g><path style="opacity:1" fill="#4f4f4f" d="M 334.5,320.5 C 333.461,322.531 331.795,323.864 329.5,324.5C 329.787,321.516 331.454,320.183 334.5,320.5 Z"/></g>
<g><path style="opacity:0.576" fill="#6e6e6e" d="M 304.5,323.5 C 306.153,323.66 307.486,324.326 308.5,325.5C 306.62,325.771 305.287,325.104 304.5,323.5 Z"/></g>
<g><path style="opacity:0.886" fill="#757575" d="M 329.5,324.5 C 328.486,325.674 327.153,326.34 325.5,326.5C 326.183,324.824 327.517,324.157 329.5,324.5 Z"/></g>
<g><path style="opacity:0.953" fill="#6f6f6f" d="M 308.5,325.5 C 314.106,326.407 319.773,326.74 325.5,326.5C 320.384,328.941 315.05,329.108 309.5,327C 308.944,326.617 308.611,326.117 308.5,325.5 Z"/></g>
<g><path style="opacity:0.818" fill="#5b5b5b" d="M 223.5,309.5 C 222.62,321.317 222.287,332.817 222.5,344C 195.997,344.83 169.663,344.663 143.5,343.5C 169.5,343.5 195.5,343.5 221.5,343.5C 221.333,332.495 221.5,321.495 222,310.5C 222.383,309.944 222.883,309.611 223.5,309.5 Z"/></g>
</svg>
