<?xml version="1.0" standalone="no"?>
<!DOCTYPE svg PUBLIC "-//W3C//DTD SVG 20010904//EN"
 "http://www.w3.org/TR/2001/REC-SVG-20010904/DTD/svg10.dtd">
<svg version="1.0" xmlns="http://www.w3.org/2000/svg"
 width="135.000000pt" height="240.000000pt" viewBox="0 0 135.000000 240.000000"
 preserveAspectRatio="xMidYMid meet">

<g transform="translate(0.000000,240.000000) scale(0.100000,-0.100000)"
fill="#000000" stroke="none">
<path d="M451 1819 c-18 -11 -38 -33 -44 -49 -6 -17 -17 -30 -23 -30 -6 0 -23
-9 -38 -21 -31 -25 -34 -66 -7 -100 19 -24 19 -25 -6 -84 -87 -213 -112 -472
-68 -704 17 -89 153 -503 169 -513 6 -4 124 -8 262 -8 185 0 254 3 266 13 15
12 130 339 165 467 13 51 17 107 18 265 0 225 -10 289 -72 452 -33 85 -34 93
-19 108 39 40 23 108 -28 121 -14 3 -29 18 -37 36 -26 62 -50 68 -289 68 -199
0 -217 -2 -249 -21z m567 -128 c8 -5 12 -17 10 -27 -3 -18 -19 -19 -330 -22
-301 -2 -326 -1 -332 15 -15 39 13 43 333 43 168 0 312 -4 319 -9z m-8 -145
c22 -53 65 -187 73 -233 l7 -33 -390 0 c-309 0 -390 3 -390 13 0 22 40 157 67
228 l27 69 294 0 293 0 19 -44z m-380 -313 c0 -11 -123 -133 -134 -133 -12 0
-136 121 -136 132 0 4 61 8 135 8 74 0 135 -3 135 -7z m410 -1 c0 -7 -50 -57
-113 -112 l-27 -24 -65 64 c-36 36 -65 68 -65 72 0 4 61 8 135 8 74 0 135 -4
135 -8z m-250 -92 l85 -80 -85 -85 c-46 -47 -89 -85 -95 -85 -14 0 -165 154
-165 167 0 12 156 163 167 163 5 -1 46 -37 93 -80z m-340 -65 c11 -13 3 -26
-56 -89 -77 -81 -94 -94 -94 -68 0 10 25 44 55 76 l55 59 -60 63 c-59 61 -67
74 -54 87 6 6 125 -93 154 -128z m650 116 c0 -10 -7 -24 -15 -31 -9 -7 -34
-35 -57 -62 l-41 -49 56 -57 c50 -50 72 -92 50 -92 -11 0 -153 143 -153 155 0
11 141 155 152 155 5 0 8 -8 8 -19z m-470 -313 c0 -5 -61 -8 -135 -8 -74 0
-135 3 -135 7 0 4 30 38 67 75 l67 68 68 -67 c38 -37 68 -71 68 -75z m410 0
c0 -5 -61 -8 -135 -8 -74 0 -135 3 -135 7 0 4 30 38 67 75 l67 68 68 -67 c38
-37 68 -71 68 -75z m40 -65 c0 -24 -62 -223 -70 -223 -3 0 -26 41 -50 90 -24
50 -47 90 -51 90 -3 0 -27 -16 -52 -35 -25 -19 -48 -35 -50 -35 -2 0 -27 18
-56 39 l-53 40 -50 -40 c-27 -21 -55 -36 -61 -32 -7 3 -28 19 -48 35 -20 15
-41 28 -46 28 -5 0 -29 -40 -53 -90 -24 -49 -47 -90 -51 -90 -13 0 -81 224
-71 234 3 3 176 6 384 6 353 0 378 -1 378 -17z m-80 -267 c0 -34 -24 -36 -311
-34 l-284 3 -3 23 -3 22 300 0 c249 0 301 -2 301 -14z m-30 -84 c0 -5 -7 -29
-16 -55 l-16 -47 -239 0 -239 0 -11 28 c-6 15 -13 39 -16 55 l-5 27 271 0
c149 0 271 -4 271 -8z"/>
<path d="M500 1534 c-52 -137 -62 -193 -27 -153 20 21 69 157 62 169 -11 17
-25 11 -35 -16z"/>
<path d="M680 1451 c0 -105 1 -111 20 -111 20 0 21 5 18 107 -3 93 -5 108 -20
111 -16 3 -18 -7 -18 -107z"/>
<path d="M860 1545 c0 -20 48 -145 62 -162 7 -9 15 -10 21 -4 9 9 -34 141 -56
169 -13 16 -27 15 -27 -3z"/>
<path d="M635 1110 l-59 -60 54 -55 c30 -30 59 -55 65 -55 6 0 36 26 68 58
l57 58 -58 57 c-32 31 -60 57 -63 57 -2 0 -31 -27 -64 -60z"/>
</g>
</svg>
