<?xml version="1.0" encoding="UTF-8" standalone="no"?>
<svg
   enable-background="new 0 0 32 32"
   version="1.1"
   viewBox="0 0 32 32"
   xml:space="preserve"
   id="svg1"
   sodipodi:docname="military_war_soldier_army_icon_218836.svg"
   inkscape:version="1.3 (0e150ed6c4, 2023-07-21)"
   xmlns:inkscape="http://www.inkscape.org/namespaces/inkscape"
   xmlns:sodipodi="http://sodipodi.sourceforge.net/DTD/sodipodi-0.dtd"
   xmlns="http://www.w3.org/2000/svg"
   xmlns:svg="http://www.w3.org/2000/svg"><defs
     id="defs1" /><sodipodi:namedview
     id="namedview1"
     pagecolor="#ffffff"
     bordercolor="#000000"
     borderopacity="0.25"
     inkscape:showpageshadow="2"
     inkscape:pageopacity="0.0"
     inkscape:pagecheckerboard="0"
     inkscape:deskcolor="#d1d1d1"
     inkscape:zoom="23.46875"
     inkscape:cx="15.978695"
     inkscape:cy="16"
     inkscape:window-width="1920"
     inkscape:window-height="986"
     inkscape:window-x="-11"
     inkscape:window-y="-11"
     inkscape:window-maximized="1"
     inkscape:current-layer="svg1" /><g
     id="_x36_0" /><g
     id="_x35_9" /><g
     id="_x35_8" /><g
     id="_x35_7" /><g
     id="_x35_6" /><g
     id="_x35_5" /><g
     id="_x35_4" /><g
     id="_x35_3" /><g
     id="_x35_2" /><g
     id="_x35_1" /><g
     id="_x35_0" /><g
     id="_x34_9" /><g
     id="_x34_8" /><g
     id="_x34_7" /><g
     id="_x34_6" /><g
     id="_x34_5" /><g
     id="_x34_4" /><g
     id="_x34_3" /><g
     id="_x34_2" /><g
     id="_x34_1" /><g
     id="_x34_0" /><g
     id="_x33_9" /><g
     id="_x33_8" /><g
     id="_x33_7" /><g
     id="_x33_6" /><g
     id="_x33_5" /><g
     id="_x33_4" /><g
     id="_x33_3" /><g
     id="_x33_2" /><g
     id="_x33_1" /><g
     id="_x33_0" /><g
     id="_x32_9" /><g
     id="_x32_8" /><g
     id="_x32_7" /><g
     id="_x32_6" /><g
     id="_x32_5" /><g
     id="_x32_4_1_" /><g
     id="_x32_3" /><g
     id="_x32_2" /><g
     id="_x32_1" /><g
     id="_x32_0" /><g
     id="_x31_9" /><g
     id="_x31_8" /><g
     id="_x31_7" /><g
     id="_x31_6" /><g
     id="_x31_5" /><g
     id="_x31_4" /><g
     id="_x31_3" /><g
     id="_x31_2" /><g
     id="_x31_1" /><g
     id="_x31_0" /><g
     id="_x39_" /><g
     id="_x38_"
     style="fill:#000000"><path
       d="M21,17h-2v-0.4238281C20.7626953,15.8024292,22,14.0450439,22,12v2c0,0.5522461,0.4472656,1,1,1   s1-0.4477539,1-1V8c0-2.7568359-2.2431641-5-5-5h-6c-2.7568359,0-5,2.2431641-5,5v6c0,0.5522461,0.4472656,1,1,1s1-0.4477539,1-1   v-2c0,2.0450439,1.2373047,3.8024292,3,4.5761719V17h-2c-2.7568359,0-5,2.2431641-5,5v6c0,0.5522461,0.4472656,1,1,1h14   c0.5527344,0,1-0.4477539,1-1s-0.4472656-1-1-1h-5.5859375l4-4H22c0.3466797,0,0.6679688-0.1796875,0.8505859-0.4741211   c0.1826172-0.2949219,0.1992188-0.6630859,0.0439453-0.9731445l-1.2376099-2.4752197C22.9953003,19.37854,24,20.5719604,24,22v6   c0,0.5522461,0.4472656,1,1,1s1-0.4477539,1-1v-6C26,19.2431641,23.7568359,17,21,17z M10,8c0-1.6542969,1.3457031-3,3-3h6   c1.6542969,0,3,1.3457031,3,3v2H10V8z M12,12h8c0,1.6542969-1.3457031,3-3,3h-2C13.3457031,15,12,13.6542969,12,12z M17,17   v0.7636719l-1,2l-1-2V17H17z M13.3818359,19l1.5,3l-0.2697754,0.5395508l-2.057373-1.371582   C12.390625,21.0585938,12.1972656,21,12,21h-0.3818359l1-2H13.3818359z M8,22c0-1.4280396,1.0046997-2.62146,2.3430786-2.9224854   l-1.2376099,2.4752197c-0.1552734,0.3100586-0.1386719,0.6782227,0.0439453,0.9731445C9.3320313,22.8203125,9.6533203,23,10,23   h1.6972656l2.0134277,1.3422852L12.3818359,27H8V22z M19,21c-0.265625,0-0.5195313,0.1054688-0.7070313,0.2929688   l-1.6425781,1.6425781L18.6181641,19h0.7636719l1,2H19z"
       fill="#4D4D4D"
       id="path1"
       style="fill:#000000" /></g><g
     id="_x37_" /><g
     id="_x36_" /><g
     id="_x35_" /><g
     id="_x34_" /><g
     id="_x33_" /><g
     id="_x32_" /><g
     id="_x31_" /><g
     id="topic" /><g
     id="Guides" /></svg>
