<?xml version="1.0" standalone="no"?>
<!DOCTYPE svg PUBLIC "-//W3C//DTD SVG 20010904//EN"
 "http://www.w3.org/TR/2001/REC-SVG-20010904/DTD/svg10.dtd">
<svg version="1.0" xmlns="http://www.w3.org/2000/svg"
 width="496.000000pt" height="503.000000pt" viewBox="0 0 496.000000 503.000000"
 preserveAspectRatio="xMidYMid meet">

<g transform="translate(0.000000,503.000000) scale(0.100000,-0.100000)"
fill="#000000" stroke="none">
<path d="M2383 4625 c-29 -8 -72 -26 -95 -41 -49 -31 -1813 -1786 -1862 -1854
-49 -67 -69 -136 -65 -228 8 -154 -46 -93 986 -1123 695 -693 929 -921 964
-937 106 -50 218 -51 325 -1 39 19 231 205 971 944 1051 1048 978 964 978
1135 0 170 71 87 -973 1130 -970 970 -952 954 -1070 979 -67 14 -94 13 -159
-4z m207 -96 c63 -28 1860 -1822 1892 -1889 30 -61 35 -144 13 -212 -16 -50
-63 -98 -934 -971 -709 -710 -927 -923 -965 -942 -65 -33 -169 -34 -236 -4
-34 15 -156 131 -492 467 -247 245 -448 450 -448 454 0 5 466 8 1036 8 l1035
0 -6 23 c-10 31 -45 67 -66 67 -10 0 -34 -10 -54 -21 -50 -30 -113 -22 -165
20 -36 29 -47 32 -166 42 -100 9 -142 9 -195 -1 -63 -12 -70 -11 -112 9 -25
12 -75 24 -113 28 -44 3 -76 12 -89 23 -33 29 -79 49 -177 76 -51 14 -109 31
-130 37 -32 9 -45 7 -111 -21 -100 -42 -199 -57 -252 -40 -32 11 -44 22 -63
60 l-23 46 -37 -23 c-20 -13 -46 -33 -57 -44 -87 -90 -113 -119 -126 -137 -8
-12 -41 -32 -74 -45 -56 -23 -60 -26 -65 -62 l-5 -38 -461 463 c-302 303 -467
477 -480 503 -26 55 -26 175 0 230 29 61 1837 1867 1897 1894 60 28 168 28
229 0z"/>
<path d="M2434 3916 c-188 -88 -190 -357 -2 -450 146 -73 323 11 359 169 46
205 -164 371 -357 281z"/>
<path d="M3190 3665 c-230 -51 -556 -231 -589 -326 -26 -75 -5 -147 83 -287
31 -49 72 -124 92 -167 l36 -77 45 43 c24 24 77 79 116 122 l70 78 -16 29
c-26 44 -21 90 22 181 40 84 40 90 9 133 -14 17 -16 17 -46 2 -29 -15 -32 -15
-32 -1 0 25 109 71 158 66 22 -2 12 -47 -31 -137 -72 -147 -82 -179 -67 -214
13 -30 54 -60 84 -60 58 0 87 43 185 276 54 128 81 219 81 269 0 69 -79 97
-200 70z"/>
<path d="M3377 3351 c-57 -59 -65 -71 -48 -71 11 0 115 120 109 126 -3 2 -30
-23 -61 -55z"/>
<path d="M2610 3043 c-1 -32 -7 -89 -14 -128 -77 -423 -79 -417 64 -265 139
148 139 155 26 348 -34 56 -64 102 -68 102 -5 0 -8 -26 -8 -57z"/>
<path d="M3191 3050 c-13 -11 -33 -20 -45 -20 -20 0 -55 -33 -254 -241 l-63
-66 12 -46 c12 -51 47 -86 127 -126 52 -27 74 -24 82 8 3 14 12 27 19 29 9 3
11 -2 7 -15 -11 -33 -56 -263 -66 -333 -12 -82 -1 -130 87 -390 105 -310 119
-333 202 -332 74 1 118 54 108 129 -2 21 -41 143 -86 271 -47 135 -81 249 -81
272 0 44 28 185 71 359 40 157 37 196 -25 362 -59 158 -63 164 -95 139z"/>
<path d="M2969 2933 c-51 -54 -228 -237 -394 -406 -279 -287 -323 -336 -298
-326 8 3 683 695 777 797 17 18 25 32 19 32 -5 0 -52 -44 -104 -97z"/>
<path d="M2670 2565 c-30 -30 -51 -57 -47 -61 10 -11 55 5 76 27 17 18 36 77
28 85 -2 2 -27 -21 -57 -51z"/>
<path d="M2809 2578 c-11 -18 -48 -89 -82 -157 l-62 -124 1 -241 c0 -132 4
-277 8 -321 7 -71 11 -82 41 -112 27 -27 41 -33 75 -33 35 0 48 6 77 35 l34
34 -8 193 c-4 106 -8 238 -8 293 l0 100 65 120 c36 66 66 125 68 130 1 6 -19
18 -45 27 -27 10 -67 33 -90 53 -23 19 -44 35 -47 35 -4 0 -15 -15 -27 -32z"/>
<path d="M1969 2188 c-115 -138 -170 -249 -171 -348 -1 -66 17 -109 52 -128
34 -18 133 -8 215 22 125 45 299 174 289 213 -3 10 -28 49 -56 87 l-50 69 -72
-72 c-70 -70 -99 -84 -124 -59 -28 28 -13 63 53 128 53 53 62 66 52 79 -19 23
-99 71 -119 71 -9 0 -41 -28 -69 -62z"/>
<path d="M2146 2110 c-87 -89 -98 -112 -60 -118 15 -2 44 23 101 86 65 70 79
91 72 105 -6 9 -14 17 -18 17 -4 0 -47 -41 -95 -90z"/>
</g>
</svg>
